<?xml version="1.0" encoding="iso-8859-1"?>
<!-- Generator: Adobe Illustrator 21.0.0, SVG Export Plug-In . SVG Version: 6.00 Build 0)  -->
<svg version="1.1" xmlns="http://www.w3.org/2000/svg"
	 viewBox="0 0 512 512" enable-background="new 0 0 512 512" xml:space="preserve">
	<path fill="#FCDA3A" d="M280.6,511.5c-15.2,0-30.5,0-45.7,0c-17-2.2-34.1-2.4-50.7-7.7c-68.6-21.6-119.8-63.9-153.9-127.2
		c-6.1-11.3-10.7-23.3-15.4-35.3c-10-25.7-9.6-52.6-9.3-79.5c0-2.8,0-5.5,0-8.3c-0.2-26.3-0.4-52.4,8.7-77.9
		C34.5,119.3,68.7,74.1,119.1,41.5c22-14.2,45.7-24.6,70.9-31.8c14.8-4.1,29.9-3.6,44.8-6c15.2,0,30.5,0,45.7,0
		c8.3,1.6,16.7,1,25.1,2.2C343,11,376.2,26.5,406.6,47.9c50.2,35.3,82.9,83.1,99.7,141.9c3.1,11,2.1,22.5,4.5,33.6
		c0,22.8,0,45.7,0,68.5c-2,17.6-4.1,35-10.1,52c-10.5,29.3-26,55.5-45.7,79.3c-31.8,38.4-72.3,64-119.4,79.7
		c-15.4,5.1-31.2,7-47.3,7.8C285.7,510.8,283,509.8,280.6,511.5z"/>
	<path fill="#FEFEFE" d="M234.9,3.8c-13.4,4-27.4,5-41,8.5c-36.7,9.5-69,26.7-98.3,50.7c-30.5,24.9-53.1,55.7-69.3,91.2
		C12,185.4,4.2,218.4,6.2,253.2c-0.5,1-1,1-1.5,0C4.8,172.1,4.8,91,4.6,9.9c0-5.2,1.1-6.3,6.3-6.3C85.6,3.8,160.2,3.8,234.9,3.8z"
		/>
	<path fill="#FEFEFE" d="M6.2,262c1.3,13-0.4,26.1,1.7,39.2c2.5,15.2,6.6,29.9,11.7,44.1c7.3,20.3,17.5,39.5,30,57.2
		c21.7,30.7,48.8,55.5,81.2,74.6c25.2,14.8,52.4,23.7,80.5,30.2c7.7,1.8,15.9,1,23.4,4c-74.5,0-149.1-0.1-223.6,0.1
		c-5.5,0-6.7-1.3-6.7-6.7C4.8,424,4.8,343,4.8,262C5.3,261.1,5.8,261,6.2,262z"/>
	<path fill="#FEFEFE" d="M510.8,223.4c-4.3-11.2-5.1-23.3-8.3-34.8c-8.7-31.9-23.6-60.4-43.6-86.4C421.6,53.7,372.3,24,313.3,9.7
		c-10.8-2.6-21.8-4-32.7-5.9c74.7,0,149.3,0.1,224-0.1c5.2,0,6.3,1.1,6.3,6.3C510.7,81.1,510.8,152.2,510.8,223.4z"/>
	<path fill="#FEFEFE" d="M280.6,511.5c12.3-2.3,24.7-4.1,36.9-7.1c40.8-10,76.9-28.8,108.7-56.5c29.9-26,51.5-57.6,67-93.5
		c8.1-18.7,13.6-38.5,15.9-58.9c0.2-1.4,0.1-2.9,1.7-3.6c0,71.2-0.1,142.3,0.1,213.5c0,5.2-1.1,6.3-6.3,6.3
		C429.9,511.4,355.3,511.5,280.6,511.5z"/>
	<path fill="#FDFCF2" d="M6.2,262c-0.5,0-1,0-1.5,0c0-2.9,0-5.9,0-8.8c0.5,0,1,0,1.5,0C6.2,256.2,6.2,259.1,6.2,262z"/>
	<path fill="#374043" d="M352.7,400.5c-23.3,21.8-51,33.3-82.7,35.3c-8.1-1.2-16.3-1.2-24.4,0c-23.8-1-45.2-9.4-65.3-21.7
		c-12.3-7.5-21.2-18.7-31.6-28.2c-0.4-3.1-2.8-4.6-5-6.1c-14.5-18.4-24.4-38.8-26.6-62.4c-0.9-6.5-1.4-13-1.6-19.6
		c-0.3-6.7,1.7-9.9,8.8-7.4c30.5,15.1,63.4,22.1,96.5,28.1c7.3,1.3,15.4-0.4,23.1,1.1c8.6,2.2,17.1,2.1,25.7,0.1
		c7.7-1.8,15.6-1.6,23.4-1.4c0.6,0.6,1.4,0.8,2.3,0.8c1.4,0,2.8,0,4.2,0c-1.3-0.2-2.8,0.3-3.6-1.2c22.7-3.6,45.4-7.2,67.1-15
		c10-3.6,19.5-8,28.8-13c6.9-3.7,10.2-2,10,5.9c-0.7,27.9-7.7,53.7-24.5,76.7c-3.5,4.8-7,9.7-10.9,14.3
		C361.3,390.9,356.8,395.5,352.7,400.5z"/>
	<path fill="#374043" d="M385.8,226.8c-0.1,5.4-2.1,10-5.4,14.2c-3.2,2.5-6.1,5.2-8.4,8.6c-7.6,5.2-15.1,5.5-22.7,0.1
		c-2.3-3.5-5.4-6.2-8.8-8.7c-11-17.4-8.4-38.7,6.5-52.3c10.4-9.5,26.1-5.5,34.9,9.3c2.4,4,4.4,8.2,4.1,13.1
		C384.6,216.4,384.8,221.6,385.8,226.8z"/>
	<path fill="#374043" d="M180.2,230.3c-0.1,4-2,7.3-4.1,10.4c-12,17.3-29.7,17.9-42.3-2.5c-5.8-9.3-6.8-20.3-2.7-31.1
		c1.3-0.3,1.3-0.3,0.6-3c0.9-3.4,2.1-6.6,4.8-9.1c3.2-1.5,5.4-3.8,7-6.9c12.2-12,30.9,0.3,36.6,17.7
		C180.3,214.1,180.5,222.2,180.2,230.3z"/>
	<path fill="#323B40" d="M124.2,290.4c-6-0.1-7.6,2.8-7.1,8.5c0.5,6.1,0,12.3-0.1,18.4c-3.2-7.8-3.8-16.2-2.9-24.4
		C114.9,285.3,120,288.2,124.2,290.4z"/>
	<path fill="#27333F" d="M180.2,230.3c-2.5-8.1-2.3-16.2-0.2-24.4C182.6,214.1,183,222.2,180.2,230.3z"/>
	<path fill="#2F3940" d="M269.5,319.7c-8.6,3.6-17.2,3.2-25.7-0.1C252.4,319.6,261,319.6,269.5,319.7z"/>
	<path fill="#2C3641" d="M352.7,400.5c2.7-6.4,7.3-10.9,13.7-13.7C362.9,392.5,358.3,397,352.7,400.5z"/>
	<path fill="#1F2C3D" d="M245.5,435.8c8.1-2.5,16.3-2.5,24.4,0C261.8,436.7,253.7,436.7,245.5,435.8z"/>
	<path fill="#293440" d="M340.5,241c4.5,1.3,8.1,3.6,8.8,8.7C345.2,247.9,342.4,244.9,340.5,241z"/>
	<path fill="#25313F" d="M143.5,188.2c-0.2,4.4-2.5,6.8-7,6.9C138,192.1,140.3,189.7,143.5,188.2z"/>
	<path fill="#2E3741" d="M372,249.6c1-4.6,3.9-7.4,8.4-8.6C378.6,244.9,375.9,247.8,372,249.6z"/>
	<path fill="#1F2B3D" d="M385.8,226.8c-2.4-5.2-2.5-10.4,0.1-15.6C387,216.4,387,221.6,385.8,226.8z"/>
	<path fill="#2D3840" d="M295.8,317.9c2.3,0.2,4.5,0.4,6.8,0.7c-3.3,1.5-6.6,2.3-9.7-0.3C293.9,318.2,294.8,318,295.8,317.9z"/>
	<path fill="#26313F" d="M131.6,204.2c0.4,1,1.2,2.1,1.2,3.1c0,1.1,1,2.8-1.1,3c-0.1,0-0.5-2-0.7-3.1
		C131.3,206.2,131.5,205.2,131.6,204.2z"/>
	<path fill="#2A3440" d="M143.6,379.8c3.7,0.4,5.2,2.6,5,6.1C146.4,384.3,144.7,382.3,143.6,379.8z"/>
	<path fill="#FEFEFE" d="M124.3,305.9c0.8-7.1,4.7-2,6.5-1.2c21.7,9.4,44.2,15.7,67.4,20.1c1.7,0.3,3.4,0.2,5.2,0.3
		c1.1-0.8,2.2-0.9,3.2,0.3c11.6,2.9,23.5,3.7,35.4,3.4c3-1.8,6.3-0.5,9.4-0.9c3.2,1,6.3,0.8,9.5,0c3.7,0.4,7.5-1,11,0.9
		c9.4,0.4,18.8,0,28.1-2c4.5-2,9.1-2.7,14-1.8c13.5-1.1,26.4-4.6,39.3-8.2c12.7-3.6,24.9-8.2,37.8-14.6c-0.2,11.3-2.5,21.2-5.8,31
		c-1,2.9-4.6,3.4-7.2,4.5c-22.8,9.6-46.3,16.7-71,19.4c-1.4,0.2-2.8,0.8-4.1,1.2c-1.2,2-3.5,0.8-5.1,1.6c-4.2,1-8.6-0.3-12.7,1.3
		c-1.9,0.6-3.9,0.9-5.9,0.8c-14.4,0-28.7,0.1-43.1-0.1c-2.1-0.4-4.3-0.2-5.9-2c-4.2-1.4-8.6-1.5-12.9-1.3c-1.1,0.9-2.2,1-3.1-0.3
		c-22.3-4.4-44.3-9.8-66-16.6c-14.9-4.6-21.6-13-22.3-27.8c-0.1-2.3-1-4.5-1.5-6.8c-0.7-0.2-0.9-0.5-0.7-0.9
		C123.9,306.1,124.1,305.9,124.3,305.9z"/>
	<path fill="#2F383A" d="M230.2,360.1c1.6,0.1,3.1,0.2,4.7,0.4c13.1,2,26.4,0.1,39.5,1c1.2,0.5,1.5,1.3,0.9,2.5
		c-17.9-0.2-35.8,1.1-55.6-2.8C224.5,360.7,227.4,360.4,230.2,360.1z"/>
	<path fill="#30393B" d="M275.3,363.9c0-0.6,0-1.1,0-1.7c1.4-1.8,3.9-0.1,5.3-1.8c1.4,0,2.8-0.1,4.3-0.1c3.9-1.3,8-0.6,12-0.6
		c0.4,0.2,0.9,0.5,1.3,0.7C290.8,363.2,283,363.1,275.3,363.9z"/>
	<path fill="#242D30" d="M313.9,325.1c-4.7,0.6-9.3,1.2-14,1.8C303.9,320.9,309,323.4,313.9,325.1z"/>
	<path fill="#242D2F" d="M259.6,329.1c-2.4,1.1-4.8,1.1-7.2-0.1c-1.1-0.7-1-1.4,0.1-2c2.3,0,4.7,0,7,0
		C260.7,327.7,260.7,328.3,259.6,329.1z"/>
	<path fill="#232C30" d="M206.5,325.4c-1.1-0.1-2.1-0.2-3.2-0.3c3-2.4,6.3-1.6,9.9-1.2C211.2,326.2,208.5,324.4,206.5,325.4z"/>
	<path fill="#2B3334" d="M259.6,329.1c0-0.7-0.1-1.4-0.1-2c4.1,0.5,8.6-1.4,12.3,1.8C267.8,329.9,263.7,329.6,259.6,329.1z"/>
	<path fill="#242E31" d="M298.2,358.8c1.6-0.2,3.2-0.3,4.7-0.5c1.6,0.3,3.2,0.5,4.9,0.8c0,0.4,0.1,0.8,0.1,1.2c-3.2,0-6.5,0-9.7,0
		c0,0,0,0,0,0C297.1,359.9,297.1,359.3,298.2,358.8z"/>
	<path fill="#252F32" d="M231.1,326c-2.2,1.5-4.3,1.1-6.6,0.2C226.8,324.8,228.8,325.1,231.1,326z"/>
	<path fill="#2C3334" d="M252.5,327.1c0,0.6-0.1,1.3-0.1,2c-3.5,0.6-7,0.9-10.5-0.2C245.1,325.9,248.9,327.4,252.5,327.1z"/>
	<path fill="#242E31" d="M214.2,358.5c1,0.1,2.1,0.2,3.1,0.3c-2.4,2.2-5.2,1.9-9.8,0.9C210.9,359.1,212.5,358.8,214.2,358.5z"/>
	<path fill="#252F32" d="M289.1,326.7c-1.4,0-2.8,0.2-4.1-0.1c-0.8-0.1-0.8-1,0.1-1.1c1.3-0.2,2.7,0,4,0
		C289.1,325.9,289.1,326.3,289.1,326.7z"/>
	<path fill="#222B2E" d="M124.3,305.9c0.4,0.4,0.5,0.9,0.2,1.4c-0.3,1.7-0.5,3.4-0.9,5.9C122,310.1,122.3,307.9,124.3,305.9z"/>
	<path fill="#27323F" d="M231.6,320.8c1.7-1,3.3-1.2,4.9,0.2C234.8,322,233.2,322.2,231.6,320.8z"/>
	<path fill="#374043" d="M280.6,360.4c-1.4,1.8-3.3,1.7-5.3,1.8c-10.4,0-20.8,0.1-31.3,0c-3.1,0-6.4,0.8-9.1-1.7
		C250.2,360.5,265.4,360.4,280.6,360.4z"/>
	<path fill="#374043" d="M298.2,358.8c0,0.5,0,1.1,0,1.6c-4.4,0-8.9-0.1-13.3-0.1C289.2,358.5,293.7,358.7,298.2,358.8z"/>
	<path fill="#FCDA3A" d="M513.8,230.3c0,4.7,0,9.4,0,14.2c-1.5,8.3-1.5,16.5,0,24.8c0,4.7,0,9.4,0,14.2c-2.7,4-1.3,8.6-1.7,12.9
		c-3.1,35.4-16.1,67.4-34.5,97.3c-33.6,54.6-81.7,91.1-142.1,111.8c-15.6,5.4-32.3,5.8-48.4,8.3c-20.1,0-40.2,0-60.2,0
		c-24-2.3-47.6-6.4-70-16.2c-53.3-23.3-95-59.5-124.3-109.8c-10.6-18.2-19.1-37.1-25.3-57.2c-3.6-11.7-3.2-23.8-4.5-35.8
		c-0.2-1.4,0.3-3-0.9-4.2c0-21.9,0-43.7,0-65.6c1.9-8,1.1-16.3,2.4-24.4c5-30.2,17.4-57.3,33.7-83c24.9-39,58.3-68.9,98.7-90.5
		c26.9-14.4,55.5-24.7,86.8-24.4c1.7,0,3.6,0.5,5.1-0.9c3.5,0,7.1,0,10.6,0c3.5,1.4,7.1,1.4,10.6,0c11.8,0,23.6,0,35.4,0
		c8.6,2,17.4,1.2,26.1,2.5c30.6,4.5,57.9,17.5,83.7,33.7c41.4,25.9,73.4,60.7,94.6,104.8c12.8,26.5,23.2,54.1,22.7,84.4
		C512.4,228.3,513,229.4,513.8,230.3z"/>
	<path fill="#FEFEFE" d="M287,513.8c13.1-5.3,27.3-6.6,40.8-10.3c30.7-8.5,58.2-22.8,83.3-42c52.2-39.9,84-92.4,97.4-156.5
		c1.5-7.2-0.4-15.3,5.2-21.5c0,74.7-0.1,149.4,0.1,224.1c0,5.3-1.1,6.4-6.3,6.3C434,513.7,360.5,513.8,287,513.8z"/>
	<path fill="#FEFEFE" d="M513.8,230.3c-6.5-2.6-2.6-8.8-3.4-12.7c-9-46.5-26.9-88.4-57.7-124.8C421.1,55.5,382.3,29.3,336,14
		c-15.7-5.2-31.6-8.6-48-10.5c-1-0.1-1.8-1.1-2.7-1.7c74.1,0,148.2,0.1,222.3-0.1c5.3,0,6.4,1.1,6.3,6.3
		C513.7,82.1,513.8,156.2,513.8,230.3z"/>
	<path fill="#FEFEFE" d="M1.8,290.5c4.8,9.2,4,19.6,6.4,29.3c5.7,22.6,14.7,43.6,25.8,63.9c14.5,26.5,34.1,49,56.5,68.7
		c22.9,20.1,49.1,35,77.9,45.6c18.4,6.7,37.3,10.6,56.4,14.1c0.7,0.1,1.3,1,1.9,1.5c-72.8,0-145.6-0.1-218.4,0.1
		c-5.5,0-6.8-1.2-6.8-6.8C1.8,434.9,1.8,362.7,1.8,290.5z"/>
	<path fill="#FEFEFE" d="M228.5,1.8c-10.7,4.6-22.4,4.1-33.5,7c-29,7.6-56,19.3-80.8,36C78.5,68.9,50.3,100.2,29.9,138
		c-13.8,25.6-23,53.2-26.3,82.4c-0.2,1.7,0.4,3.6-1.8,4.5c0-72.2,0.1-144.4-0.1-216.6c0-5.5,1.3-6.8,6.8-6.8
		C81.8,1.8,155.2,1.8,228.5,1.8z"/>
	<path fill="#F9DC58" d="M513.8,269.3c-2.8-8.3-2.8-16.5,0-24.8C513.8,252.8,513.8,261,513.8,269.3z"/>
	<path fill="#F9D947" d="M249.8,1.8c-3.5,2.5-7.1,2.6-10.6,0C242.7,1.8,246.3,1.8,249.8,1.8z"/>
	<path fill="#581415" d="M262.2,205.7c16.3,1.4,29.7,8.1,42.1,19.2c33.7,30.2,39.9,67,28.8,108.6c-2,7.6-5.1,15-10.5,21.1
		c-4.5,2.6-8.4,0.5-12.4-1.6c-35.6-18.4-71.2-18.9-106.6,0.5c-2.8,1.5-5.5,3.4-9,3.1c-12.3-13-16.1-29.2-17.4-46.3
		c0-0.4,0.1-0.8,0.1-1.2c0.1-5.8,0.2-11.7,0-17.5c-0.1-0.4-0.1-0.8-0.2-1.2c0.3-3.6-0.3-7.4,1.7-10.7c2.6-0.6,0.6-2,0.6-3.1
		c3.7-17.3,12.1-31.7,24.9-44.3c12.3-12.1,24.9-22.7,42.3-26c1.7-0.3,3.5-0.2,5.2-0.3C255.2,206.7,258.7,206.9,262.2,205.7z"/>
	<path fill="#871A1D" d="M194.4,356.6c12.8-13.4,29.7-17.3,47-19.9c26.6-3.9,51.5,1.4,74.6,15.2c2,1.2,4.3,1.8,6.5,2.6
		c-16.6,23.3-39.8,32.7-67.8,31.8c-19.3-0.6-36.8-6-51.2-19.5c-0.8-2.6-2.5-4.4-5.2-5.2C197,360,195.7,358.3,194.4,356.6z"/>
	<path fill="#050006" d="M340.6,166.1c-10.9-0.2-27.7-8.4-37.5-28.3c-5-10.1-3-18.2,5.2-21.9c7.3-3.3,13.7,0,18.4,9.8
		c4.6,9.6,12.8,13.7,22.8,14.1c10.4,0.4,19.1-3.2,24.8-12.4c1.1-1.7,1.9-3.7,2.9-5.5c4.1-6.7,10.8-8.9,17.3-5.7
		c6.6,3.3,9.1,9.8,6.5,17.1C394.2,153,374.2,166.1,340.6,166.1z"/>
	<path fill="#050006" d="M154,166.2c-15.2-3.8-28.9-10.1-37-24.6c-1.6-2.8-3.1-5.8-3.9-8.8c-2.2-8.1,1.1-14.8,8.1-17.3
		c6.4-2.3,13,0.9,16.6,8c7,14,16.6,18.5,31.7,15.5c8.9-1.8,14.5-7.1,18.6-14.9c4.6-8.7,11.7-11.5,18.7-7.7c7.2,3.9,9.1,11,5,19.7
		c-8.9,18.6-24.2,27.9-44.2,30.3C162.9,168.8,158.5,166.7,154,166.2z"/>
	<path fill="#EBBF69" d="M121,230.3c-11.5,0.4-21.7-2-31.1-7.4c-11.1-6.4-11-17.6,0.3-24.2c12.2-7,25.6-8.5,39.4-6.7
		c6.7,0.9,13.4,2.3,19.4,5.7c5.4,3,10.2,6.8,10.1,13.4c-0.1,6.6-4.9,10.5-10.5,13.1C139.7,228.5,130.4,230.8,121,230.3z"/>
	<path fill="#EBBF69" d="M385.8,230.3c-10.2,0.4-19.9-1.9-28.9-6.8c-12.3-6.8-12.8-18.7-0.5-25.1c19.5-10.1,39.8-10.1,59.3-0.1
		c12.4,6.3,12,18.3-0.3,25.1C406.4,228.6,396.4,230.8,385.8,230.3z"/>
	<path fill="#581415" d="M177,310.2c-1.8-6.7-2-13.3-0.1-20c0.2,0.4,0.5,0.7,0.7,1.1c0.8,6,0.7,11.9,0,17.9
		C177.4,309.5,177.2,309.9,177,310.2z"/>
	<path fill="#EAD196" d="M154,166.2c4.5-1.5,9,0.2,13.5,0.2C162.9,168.9,158.4,168.8,154,166.2z"/>
	<path fill="#81121C" d="M198.3,361.7c4.2-0.7,5.9,1,5.2,5.2C201.2,365.7,199.3,364.1,198.3,361.7z"/>
	<path fill="#500A12" d="M262.2,205.7c-3.5,2.3-7,2.2-10.5,0.1C255.1,205,258.6,204.9,262.2,205.7z"/>
	<path fill="#4D0711" d="M179.2,276.4c0.5,1,1.2,2,1.3,3c0.1,1.1,1,2.7-1,3.1c-0.1,0-0.6-2-0.9-3
		C178.8,278.5,179,277.5,179.2,276.4z"/>
	<path fill="#47020E" d="M177.6,309.2c0-6,0-11.9,0-17.9C179.8,297.3,179.7,303.2,177.6,309.2z"/>
	<path fill="#FCDA3A" d="M231.7,11.9c6,0,12,0,18,0c5.4,1.5,10.8,1.5,16.2,0c3.6,0,7.2,0,10.8,0c9,2.3,18.2,1.6,27.2,2.8
		c29,3.9,54.6,16.6,79,33.2c2.8,1.9,5,4.5,6.6,7.6c1.6,4.7,0.1,9-1.8,13c-6.5,13.8-12.2,28-18.6,41.9
		c-3.9,8.6-10.1,12.8-18.9,14.1c-19.8,2.8-39.5,6.4-59.3,9.2c-0.5,4.3,2.4,5.6,4.1,7.4c12.7,13.7,25.2,27.5,38.1,41
		c6.3,6.6,8.6,13.9,7,23.5c-3.1,18.7-5.9,37.5-8.7,56.2c-0.4,2.8-1.4,5.6,0,8.9c10.6-4.4,20.3-10.7,30.2-16.4
		c9-5.2,18.2-9.8,27.1-15.1c5.8-3.5,11.2-2.9,17,0.2c16.4,8.7,32.3,18.2,48.5,27.2c2.6,1.5,5.1,3.4,8.3,3.6
		c1.7-2.8,0.7-5.6,0.2-8.4c-3.5-19.3-5.9-38.8-9.2-58.1c-2.2-13.2,6.8-26,19.5-28.6c4.5,1.9,5.5,6.5,6.7,10.8
		c8.9,30.7,12.3,61.9,9.4,94.2c-3.9,44-16.4,84.4-40,120.4c-32.8,50.2-76.2,84.7-131.9,100c-11.9,3.3-24.2,3.2-36.4,4.3
		c-2.6,0.2-5.4-0.9-7.8,0.9c-3,0-6,0-9,0c-5.4-1.5-10.8-1.5-16.2,0c-2.4,0-4.8,0-7.2,0c-14.1-2.5-28.6-1.2-42.4-5.3
		c-75.1-22.4-127-73-156.8-150.4c-9-23.4-13.2-47.9-15.1-73.2c-2.3-29.7,1.3-58.4,7.8-86.9c1.3-5.6,2.6-11.4,8.1-14.4
		c12,1.5,20.9,13.4,19.4,26.2c-2.2,18.5-5.8,36.8-8.6,55.3c-0.7,4.2-1.3,8.2-0.6,13.9c10.2-4.4,19.6-9.7,28.7-15.3
		c8.9-5.4,18.1-10,27-15.3c7-4.2,13.4-4,20.4-0.2c15.8,8.5,31,18.2,46.9,26.4c2.7,1.4,5.1,3.5,8.6,3.8c1.9-4.1,0-8-0.5-11.9
		c-2.3-16.9-4.6-33.8-7.9-50.5c-2.2-11.1,0.5-19.3,7.8-26.9c12.5-13,24.6-26.4,36.8-39.6c1.6-1.8,4.5-3.3,3.8-6
		c-0.7-2.8-3.8-2.7-6.1-3c-17.8-2.2-35.4-5.9-53.2-8.1c-6.6-0.8-12.5-3.1-15.8-9.5c-8.1-15.8-15.7-31.9-22.5-48.4
		c-1.2-3-1.8-6.2-1.3-9.5c1-4.4,4.1-7,7.4-9.2c20.8-14.1,42.9-25.1,66.7-31.8C209.9,12.9,221.1,14.9,231.7,11.9z"/>
	<path fill="#FEFEFE" d="M273.1,505.9c12.2-3.9,25-3.8,37.3-7.4c94.8-27.8,152.3-93.9,172.4-197.1c8.3-42.4,4.5-84.6-10.3-125.3
		c-1.4-5.8,2.7-8.8,5.7-12.1c8.4-9.5,17.2-18.4,26.1-28.6c-8.9-4.2-17.7-3.5-25.9-5.5c-5.5-1.4-12.2,0.1-15.8-6.8
		c0.1-5.6,3.4-8.5,8.1-7.7c12.7,2,25.4,4.9,38.3,5c2.2,0,3.4,2.4,4.9,3.9c0,124.4-0.1,248.9,0.2,373.3c0,6.7-1,8.6-7.7,8.5
		C428.5,505.8,350.8,505.9,273.1,505.9z"/>
	<path fill="#FEFEFE" d="M43.2,176.6c-7.8,17.3-10.5,36.1-12.4,54.8c-5,50.1,2.4,98.3,25,142.6c36.6,71.7,92.6,114.9,167.9,128.4
		c5.7,1,11.9,0,17.1,3.6c-77.4,0-154.9-0.1-232.3,0.2c-5.8,0-6.8-1.7-6.8-7.5c0.2-122.8,0.1-245.7,0.1-368.5
		c0.7-0.7,1.5-0.8,2.4-0.5c11.5,11.2,22.9,22.6,33.6,34.8C40.6,167.8,45.1,170.7,43.2,176.6z"/>
	<path fill="#FEFEFE" d="M3.9,130.4c-0.7-0.1-1.4-0.2-2.1-0.3C1.8,93.1,2,56,1.6,19c-0.1-6.5,1.8-7.2,7.1-7.2
		C83,12,157.4,11.9,231.7,11.9c-5.4,5.1-12.5,3.3-18.7,4.7c-31.3,6.9-59.8,20.4-85.9,40c-4.5,0.7-5.2-4.5-8.9-6.3
		c-7.4,10.1-10,23.4-17.6,33.4c-6.6,5.1-11.4,11.9-15.7,19.2c-4.7,8.2-10.8,15-17.5,21.3c-17.9,5.3-36.5,6.1-54.7,9.8
		C9.4,134.6,6.3,133.3,3.9,130.4z"/>
	<path fill="#FEFEFE" d="M513.8,124.3c-7.6-0.2-15.4,0.5-22.9-1c-5.2-1.1-11.7-0.7-15.1-2.8c-6.2-3.8-9.1-1.9-13,2.2
		c-4.7,5.2-9.9,3.5-15.1,1.1c-8.2-6.9-13.8-16.3-20.2-24.9c-3-4-6.2-7.6-10.3-10.2c-6.7-7-8.2-17.1-12.9-25.3
		c-2.3-4.1-3.7-8.8-6.6-12.8c-4.1,0.3-4.6,7.1-9.3,6.1c-31.9-24.4-67.6-37.9-106.2-42.9c-1.9-0.3-4.3,0.7-5.5-1.9
		c76.4,0,152.9,0.1,229.3-0.1c6,0,8.1,0.7,8,8.2C513.5,54.7,513.8,89.5,513.8,124.3z"/>
	<path fill="#F9E372" d="M265.9,11.9c-5.4,3-10.8,3-16.2,0C255.1,11.9,260.5,11.9,265.9,11.9z"/>
	<path fill="#F7DE70" d="M247.9,505.9c5.4-3.1,10.8-2.9,16.2,0C258.7,505.9,253.3,505.9,247.9,505.9z"/>
	<path fill="#05AEF1" d="M98.6,81.8c6.4-13.5,12.7-27.1,19.6-41.6c3.2,6,6.1,11.2,9,16.5c7.2,20,17.2,38.6,25.6,58
		c2.1,4.9,6.2,4.7,9.8,5.3c22.4,3.6,44.9,6.9,67.3,10.4c1.1,0.2,2.2,0.6,3.3,0.8c1.1,3.7-1.7,4.8-3.2,6.4
		c-15.7,16.8-31.4,33.7-47.4,50.2c-4.3,4.4-5,8.7-4.1,14.5c4.1,24,7.9,48,11.8,72c0.2,1.5,0,3.1,0,5.6
		c-21.8-12.3-42.9-24-63.8-36.2c-5.5-3.2-9.7-3.8-15.5-0.4c-17.9,10.7-36.1,20.7-54.3,31c-3.1,1.8-6.2,3.4-10.8,6
		c2.5-16.5,4.7-31.3,7.1-46.1c2-12.3,4.1-24.5,6.2-36.8c0.5-2.8-0.3-5-2.3-6.9c-4.6-4.5-9.2-9.1-13.8-13.7
		c-10.4-13.1-22.5-24.4-33.7-36.5c-2.4-2.6-7.2-4.1-5.5-9.7c21.7-2.3,43.2-5.8,64.5-10.3c7.3-3.3,12.7-8.5,16.3-16.4
		C88.4,95.8,93.8,89,98.6,81.8z"/>
	<path fill="#05AEF1" d="M447.1,120.4c5,2.4,10.5,1.8,15.7,2.3c16.2,3,32.4,5.9,52,9.5c-15.3,15.9-28.9,29.9-42.5,44
		c-0.3,0.1-0.6,0.2-0.8,0.4c-13.7,9.5-17,21.9-12.8,39.3c5,20.3,6.9,41.5,10.4,64c-21.4-12.1-41.7-23.2-61.6-35.2
		c-7.5-4.5-13.2-5-21-0.2c-18.6,11.6-37.8,21.8-56.8,32.6c-1.7,1-3.3,3-5.7,1.5c5.9-26.3,8.5-53.4,13.5-79.9c0.9-4.5-1-7-3.6-10
		c-17.1-19.4-34-38.9-50.5-57.9c11.9-1.9,26.4-4.2,40.9-6.4c10-1.6,20.1-3,30.1-4.6c3.2-0.5,6.4-0.9,8.1-4.9
		c8.5-19.4,17.2-38.8,25.8-58.1c2.7-5.2,5.4-10.3,8.7-16.8c7.5,16.3,14.7,31.7,21.8,47.1c4.2,4.6,8.1,9.7,10.5,15.5
		C433.1,111.5,439,117,447.1,120.4z"/>
	<path fill="#50341D" d="M350,329.5c-12.3,20.6-28.1,37.9-45.8,52.9c-25.3,21.3-58.4,22.4-87.5,2.9
		c-20.3-13.6-36.4-32.4-49.8-53.7c1.6-3.2,4.3-2.9,7-2.9c57.9,0,115.7-0.1,173.6,0C348.4,328.7,349.1,329.2,350,329.5z"/>
	<path fill="#FDFDFD" d="M257.9,326.2c-28.7,0-57.4-0.4-86.1,0.2c-9,0.2-11.6-3.9-11.8-12.3c-0.3-11.1,3.8-17.7,11.9-17.9
		c15.2-0.4,30.5-0.3,45.7-0.2c40.9,0,81.9,0.1,122.8,0.1c5.4,0,10.2,0.4,12.8,6.5c2.8,6.8,3.1,13.7,0.3,20.6c-1.8,4.3-5.6,3-8.7,3
		C315.9,326.3,286.9,326.2,257.9,326.2z"/>
	<path fill="#321100" d="M350,329.5c-56.7,0-113.3,0.1-170,0.1c-4.4,0-9-0.6-13.1,2c-1.6-1.3-2.9-3-0.2-4c1.9-0.7,4.1-0.3,6.2-0.3
		c56.5,0,113,0,169.5,0.1C344.9,327.4,348.5,324.9,350,329.5z"/>
	<path fill="#F6D12C" d="M302,294.3c-5.6,0-11.2,0-16.8,0c0-0.5,0-1-0.1-1.4c5.6,0,11.1,0,16.7,0c0.7,0.2,0.9,0.5,0.7,0.9
		C302.4,294.1,302.2,294.3,302,294.3z"/>
	<path fill="#F0C81E" d="M302,294.3c-0.1-0.5-0.1-1-0.1-1.4c4.4,0,8.7,0,13.1,0c0,0.5,0,1,0.1,1.4
		C310.6,294.3,306.3,294.3,302,294.3z"/>
	<path fill="#FADA3F" d="M98.6,81.8c-5.2,11.4-9.9,23.1-15.8,34.1c-2.9,5.4-9.2,4.4-14.4,4.3C78.3,107.2,86.4,92.6,98.6,81.8z"/>
	<path fill="#F9D93E" d="M447.1,120.4c-9.3,1.1-15.9-2.3-19.2-12.5c-2.3-7.2-5.9-13.8-9-20.7c8.2,2,10.9,10.5,16.1,15.9
		C439.8,108.1,443.2,114.6,447.1,120.4z"/>
	<path fill="#FCDA3A" d="M9.8,246.6c0-4.8,0-9.7,0-14.5c3-7.2,1.4-14.8,2.1-22.2c2.7-28.1,12.9-53.9,26.1-78.3
		C62.1,86.9,96.3,52,141,27.6c26.5-14.4,54.3-24.6,84.9-24.9c1.2,0,2.4,0,3.4-0.9c5.4,0,10.9,0,16.3,0c8.5,1.5,16.9,1.5,25.4,0
		c4.8,0,9.7,0,14.5,0c6.7,2,13.6,1.3,20.4,2.2c39.3,4.9,72.9,23.1,103.3,46.9c44.8,35.1,74.3,80.9,89.9,135.8
		c3.9,13.8,3.4,28,4.9,42.1c0.2,1.7-0.5,3.6,0.9,5.2c0,3.6,0,7.3,0,10.9c-1.5,7.9-1.5,15.7,0,23.6c0,5.4,0,10.9,0,16.3
		c-2.4,9.3-1.3,19-2.7,28.5c-4.2,28.4-14.8,54.3-29.5,78.7c-1.9,3.1-4.3,5.8-8.2,6.6c-5.3,0-6.9-4.3-8.6-8
		c-6.2-12.7-12.8-25.1-20.5-37.1c-4.7-7.4-5.4-7.4-11.1-0.1c-3.3,3.8-6,8-7.9,12.7c-5.1,11.2-11.5,21.8-15.6,33.6
		c-5.5,16,0.8,31.8,15.8,39.6c3.4,1.8,7.3,3,9.3,6.8c0.7,4.2-1.8,6.8-4.5,9.3c-29.7,26.5-63.8,45.1-102.3,55.2
		c-9.9,2.6-20.1,2.9-30.3,3.2c-3,0.1-5.9,0-8.7,1.4c-4.8,0-9.7,0-14.5,0c-4.6-2-9.5-0.4-14.2-0.9c-3.7,0.5-7.6-1-11.2,0.9
		c-1.8,0-3.6,0-5.4,0c-6.9-2.3-14.2-1.4-21.3-2c-30.3-2.5-57.2-14.9-82.4-30.3c-60-36.6-97.8-90-116-157.6
		c-3.6-13.2-3-26.8-4.2-40.3c-0.4-3.1,0.9-6.3-0.9-9.3c0-1.8,0-3.6,0-5.4C11.3,262.3,11.3,254.5,9.8,246.6z"/>
	<path fill="#FEFEFE" d="M11.3,284.8c3.6,28.2,9.8,55.8,22.1,81.6c37.9,79.8,99.4,129.3,187,145.3c4.8,0.9,10.3-1,14.3,3.2
		c-72.7,0-145.4-0.1-218.1,0.1c-5.7,0-6.9-1.3-6.9-6.9c0.2-74.5,0.1-149,0.1-223.5C10.4,283.4,10.9,283.5,11.3,284.8z"/>
	<path fill="#FEFEFE" d="M229.2,1.8c-6.9,4-14.9,3.5-22.3,5.2C102.7,30.8,24.5,118.4,12.6,225c-0.3,2.6,0.1,5.5-2.7,7.1
		c0-74.5,0.1-149-0.1-223.5c0-5.6,1.2-7,6.9-6.9C87.5,1.9,158.3,1.8,229.2,1.8z"/>
	<path fill="#FEFEFE" d="M504.8,233.9c-2.4-12.5-4.1-25.2-7.4-37.6c-24.7-93-81.8-155.8-174-185.4c-10-3.2-20.3-5.5-30.8-6.6
		c-2.4-0.2-5.6,0.4-7.2-2.6c71,0,142,0.1,213-0.2c5.4,0,6.5,1.1,6.5,6.5C504.7,83.4,504.8,158.7,504.8,233.9z"/>
	<path fill="#FEFEFE" d="M280,514.9c11.2-4.2,23.2-4.3,34.6-7.2c40.6-10.3,76-29.8,107-57.8c1.1-1,1.8-2.4,2.7-3.6
		c2.6-4.8,8-2.1,11.5-4.3c1.2-0.5,2.4-1.2,3.6-1.7c10.4-3.8,16.7-11.3,19.9-21.7c4-5.7,1.1-11.8,1.3-17.7c0.4-1.4,1.1-2.5,2.4-3.2
		c6.4-4.3,8.7-11.4,11.9-17.7c13.8-26.3,23-54.1,27-83.6c0.5-4-0.1-8.4,2.9-11.8c0,74.6-0.1,149.3,0.2,223.9
		c0,5.4-1.1,6.5-6.5,6.5C425.6,514.9,352.8,514.9,280,514.9z"/>
	<path fill="#FADA46" d="M270.9,1.8c-8.5,2.9-16.9,2.9-25.4,0C254,1.8,262.5,1.8,270.9,1.8z"/>
	<path fill="#F6DB63" d="M9.8,246.6c2.8,7.9,2.9,15.7,0,23.6C9.8,262.3,9.8,254.5,9.8,246.6z"/>
	<path fill="#FADA46" d="M504.8,268.4c-2.9-7.9-2.9-15.7,0-23.6C504.8,252.6,504.8,260.5,504.8,268.4z"/>
	<path fill="#F6DB65" d="M250.7,513.4c4.9,0.2,10.1-1.8,14.7,1.5c-4.8,0-9.7,0-14.5,0c-0.7-0.2-0.9-0.6-0.8-0.9
		C250.4,513.6,250.5,513.4,250.7,513.4z"/>
	<path fill="#F5E292" d="M250.7,513.4c0.1,0.5,0.1,1,0.2,1.5c-3.6,0-7.3,0-10.9,0C243.3,511.7,247.1,513.6,250.7,513.4z"/>
	<path fill="#F7F0D2" d="M11.3,284.8l-0.7,0l-0.7-0.1c0-3,0-6,0-9.1C12.9,278.2,11.4,281.6,11.3,284.8z"/>
	<path fill="#6074B0" d="M463,397.8c-0.1,1-0.2,2.1-0.4,3.1c0.3,6.6,0,13.1,0.2,19.7c-3.1,11.6-10.7,18.9-21.5,23.3
		c-4-1.1-8.1-0.1-11.7-0.6c2.5,0.9,5.9-1.1,8.5,1.2c-4.2,3-9.3,0.8-13.7,2.1c-8.1-2.6-15.8-5.9-21.2-12.9
		c-7.8-10.2-10.9-21.4-6.4-33.8c4.5-12.4,9.9-24.4,17.4-35.3c3.8-3.3,5.6-7.8,7.3-12.4c2.2-4.1,3.5-10.3,8.4-10.4
		c4.5-0.1,6,5.9,8.4,9.6C447.9,366,455.6,381.8,463,397.8z"/>
	<path fill="#313131" d="M245.1,313.5c22.6-5.3,42.4,1.6,59.6,15.4c7.2,5.7,14.7,11.5,20.6,19.1c3.7,4.8,4.7,8.5,0.8,12.4
		c-3.8,3.8-7.2,2.9-11.2-1.4c-12.6-13.3-26.5-25.2-45.2-29.2c-11.9-2.6-23.5-2.9-34.6,3.2c-12.8,7.1-26.2,13.3-34.5,26.4
		c-2.6,4.1-7,4.7-11.1,1.7c-3.9-2.9-5.3-7.7-1.7-11c12.5-11.5,22.6-25.9,39.6-31.9c4.8-1.7,9.4-3.9,14.5-4.4
		C243,314,244.4,316.1,245.1,313.5z"/>
	<path fill="#313131" d="M406.9,230.4c14.6,6.6,29.7,11.2,45.5,13.8c8,1.3,9.5,5.7,5.3,13.3c-3.1,1.5-6.3,2.1-9.6,1.3
		c-3.9-1.7-8-1.5-12.1-1.5c-31.2-5.8-56.7-20.2-72.7-48.7c0.1-3.8,0-7.5,1.7-11c3.7-3.9,8.4-2.3,9.8,0.9
		c5.2,11.6,14.5,19.5,23.2,28C400.6,228.5,403.2,230.7,406.9,230.4z"/>
	<path fill="#313131" d="M86,241.3c1.8-3.6,5.6-4,8.8-5.4c17.7-7.9,35.6-15.5,43.8-35.3c1.7-4.1,5.6-7,10.3-4
		c4.3,2.7,6.6,6.8,3.5,12.1c-9.9,16.7-23.1,29.7-41,37.7c-3.6-0.2-6.8,0.7-9,3.8c-5.7,3-11.5,5.7-18.1,5.4
		C78.7,250,80.9,245.4,86,241.3z"/>
	<path fill="#313131" d="M389,293.8c-0.2-4.6,3.7-6.5,6.1-9.4c6.6-3.4,13.6-3.8,20.8-3.4c8.4,3.2,12.3,9.6,12.9,18.3
		c0.6,10.1-4,17-13,21.2c-4.8-0.3-9.6,0.7-14.3,0.2c-7.2-2.2-11.7-6.7-12.9-14.2C388.7,302.3,389,298,389,293.8z"/>
	<path fill="#313131" d="M114.9,281.2c5.2,2,8.6,5.7,10.6,10.8c0,4.9,1,9.9-0.4,14.7c-1.3,5.1-5.5,8.3-8.2,12.4
		c-11.9,5.9-22.7,2.6-29-8.9c-5.6-10.1-1-22.5,10.8-29C104.1,281.1,109.5,281.1,114.9,281.2z"/>
	<path fill="#313131" d="M86,241.3c-1.4,4.6-2.2,9.3-1.8,14.2c-5.1,2.7-10.5,4.2-16.3,3.9c-1.7-0.1-3.4-0.3-4.4-2
		c1.3-5.7-4.8-6.9-6.5-10.8c0.3-0.5,0.6-1.4,0.8-1.4C67.5,246.1,76.3,240.8,86,241.3z"/>
	<path fill="#313131" d="M57,246.6c3.1,2.2,8-2.3,10.2,2.5c1.7,3.5-0.7,6.1-3,8.4c-2.3,2-4.7,1.3-7.1,0
		C53.4,253.9,54.5,250.2,57,246.6z"/>
	<path fill="#26282E" d="M415.9,281.1c-6.7,2.9-13.9,2-20.8,3.4C401.3,278.6,408.2,277.2,415.9,281.1z"/>
	<path fill="#22252C" d="M114.9,281.2c-5.4,2.6-10.8,2.6-16.2,0C104.1,278,109.5,278.1,114.9,281.2z"/>
	<path fill="#22252C" d="M124,308.2c0.6-5.4-1.4-11,1.5-16.2c2.7,5.4,3.1,10.8,0.3,16.2C125.2,309.1,124.6,309.1,124,308.2z"/>
	<path fill="#1D212B" d="M389,293.8c2.3,4.3,2.6,8.5-0.3,12.7C386.4,302.2,386.7,298,389,293.8z"/>
	<path fill="#2D2D2F" d="M124,308.2c0.6,0,1.2,0,1.8,0c-1.8,4.6-3.6,9.2-8.9,10.9C116.5,313.7,122.1,312.2,124,308.2z"/>
	<path fill="#25272D" d="M401.5,320.7c4.8-2.5,9.5-2.3,14.3-0.2C411.1,322.6,406.3,323.7,401.5,320.7z"/>
	<path fill="#6075B2" d="M421.4,352c0,5.5-1.1,10.5-7.3,12.4C415.2,359.5,418.6,355.9,421.4,352z"/>
	<path fill="#22252C" d="M364.9,197.5c1.3,4,0.7,7.6-1.7,11C360.2,204.3,360.5,200.6,364.9,197.5z"/>
	<path fill="#27282E" d="M57.2,257.4c2.4,0,4.7,0,7.1,0c1.2,0.7,2.4,1.3,3.6,2C63.8,261.3,60.2,261.3,57.2,257.4z"/>
	<path fill="#22242D" d="M446.8,257.5c3.6,0,7.3,0,10.9,0c-3.1,4-6.9,3.7-10.9,1.8c-0.2-0.3-0.5-0.6-0.7-0.9
		C446.3,258.1,446.6,257.8,446.8,257.5z"/>
	<path fill="#2B2C30" d="M102.3,250.1c1.7-4.3,4.4-6.4,9-3.8C108.3,247.6,105.3,248.8,102.3,250.1z"/>
	<path fill="#25272D" d="M406.9,230.4c-4.6,2.3-6.8-0.9-9-4C401.3,226.8,404.1,228.6,406.9,230.4z"/>
	<path fill="#26272D" d="M436,257.3c3.7-2.2,7.3-2.4,10.8,0.2c0,0,0,0,0,0c-3.1,1.4-6.1,1.3-9.2,0.1l-0.8,0L436,257.3z"/>
	<path fill="#313131" d="M437.6,257.5c3.1,0,6.1,0,9.2-0.1c0,0.6,0,1.2,0,1.8C443.6,259.1,440.3,259.9,437.6,257.5z"/>
	<path fill="#25272D" d="M245.1,313.5c1,0.6,3.8,0.3,2.9,1.3c-1.6,1.7-4.2,0.7-6.1-0.9C243,313.7,244.1,313.6,245.1,313.5z"/>
	<path fill="#566CAC" d="M462.8,420.6c-2.4-6.5-2.2-13.1-0.2-19.7C465.4,407.4,465.1,414,462.8,420.6z"/>
	<path fill="#5E72AE" d="M438.1,444.4c-4,0-8.1,0-12.1,0c5.1-1.7,10.3-3,15.3-0.5C440.2,444,439.1,444.2,438.1,444.4z"/>
	<path fill="#FCDA3A" d="M235,1.8c14,0,28.1,0,42.1,0c3.3,1.8,6.9,0.4,10.3,0.9c53,1.5,97,24.6,137.1,57c2.5,2,4.6,4.5,5,8
		c0,4.7-3.3,7.2-6.5,9.7c-4.4,3.4-8.7,6.9-12.3,11c-4.6,5.3-9.2,5.1-14.2,0.3c-7.5-7.3-14.3-15.4-25-18.3
		c-1.2-0.4-2.3-0.9-3.4-1.4c-2.2-1-4.4-1.6-6.8-1.6c-4.3-0.1-8.7-0.6-12.9,0.8c-30.4,3.3-54.1,40.6-47,72.2
		c3.7,16.5,10.9,31.1,21.3,44.3c2.7,4.5,6.6,7.9,10.6,11.2c3.7,2.8,7.5,5.6,10.7,8.9c1.5,2.3,3.5,4.2,5.8,5.7
		c11.8,8.5,21,19.9,32.3,29c2.3,2.8,4.8,5.4,7.7,7.6c1.9,1.3,3.9,2.6,5.4,4.3c5.4,6,11,6.8,16.9,0.8c3-2,5.4-4.6,7.7-7.3
		c4-3.2,7.5-7,11.6-10c1.9-1.5,3.7-3,5.5-4.5c3.4-3.3,6.9-6.4,10.4-9.6c2.3-1.7,4.1-3.9,5.8-6.2c12.5-11.7,26.5-21.8,37.4-35.1
		c2.4-3,5.7-5.2,10-3.2c8.8,9.8,9.3,22.5,10.4,34.4c1.3,13.6,2.7,27.2,2.2,41c0,2.9,0,5.7,0,8.6c2.1,62.8-19,117.6-59.4,164.7
		c-37.2,43.4-84,72-140.2,84.1c-17.1,3.7-34.7,3.4-52.2,3.6c-2.7,0-5.5,0-8.2,0c-62.6,2.5-116.8-19.1-163.9-59
		c-41.9-35.5-69.8-80.3-83-133.9c-2.6-10.5-2.1-21.4-3.4-32.1c-0.5-3,0.9-6.2-0.9-9.1c0-14.6,0-29.2,0-43.8c1.8-3,0.4-6.3,1-9.4
		c1.4-12.3,1.1-24.7,4.4-36.7c1.4-4.9,2.3-10.2,6.8-13.6c4.8-2.3,7.6,1,10.3,4c5.5,6.4,11.1,12.6,17.4,18.2c1.7,2.3,3.6,4.5,6,6.1
		c17.3,14.2,33,30.3,49.9,45c2.4,2.7,4.8,5.5,7.9,7.4c4,3.3,6.8,0.8,9.8-1.8c16.4-14.1,32.7-28.3,48.4-43.1
		c3.6-3.4,7.6-6.4,11.5-9.4c3-2.2,5.5-5,7.9-7.8c16.1-16.3,28.9-34.4,30.6-58.3c1-3.9,1.1-7.7,0-11.6c-2-28.4-21.4-51-48.5-55.7
		c-4.1-1.2-8.3-0.8-12.3,0.3c-13.9,1.1-24.4,8.9-34.2,17.8c-7.7,6.9-11.6,6.9-18.4-0.6c-3.4-3.8-7.8-6.1-11.3-9.6
		c-2.3-2.3-4.5-4.6-4.7-8.1c0.3-4.2,3.1-6.8,6-9.3c30-25.2,64.1-42.6,101.9-52.5c11-2.9,22.5-2.8,33.8-3.6
		C229,2.2,232.1,3.5,235,1.8z"/>
	<path fill="#C96165" d="M497.7,176.3c-12.1,16-27.9,28.2-42.8,41.3c-2.8,0.8-4.8,2.4-5.7,5.2c-3.1,3.9-6.6,7.4-11,10
		c-2.8-0.1-4,1.7-4.8,4c-3.6,4-7.4,7.7-12,10.6c-3.5,1.2-5.9,3.6-7.5,6.9c-2,1.6-4.4,2.9-5.8,4.9c-3.7,5.2-6.8,3.5-10.3-0.2
		c-3.3-3.5-7-6.7-10.6-10c-1.5-3.3-4-5.7-7.5-6.9c-11-10-21.9-19.9-32.9-29.9c-0.9-2.9-2.9-4.4-5.7-5.2c-3.3-3-6.7-5.9-10-8.9
		c-2.7-4.3-6-7.9-10.5-10.4c-21.2-25.2-31.7-53.2-18.8-85.4c8.3-20.8,23.1-35.5,47-37.6c4.1,1.1,8.2,1.3,12.2-0.1
		c2.6,0.1,5.3-0.2,7.5,1.6c0.5,2.4,1.9,0.7,2.9,0.6c12.4,2.6,20.4,11.4,28.4,20.3c1.8,2,3.2,5.8,6.2,1.2
		c5.6-8.4,14.2-13.5,22-19.3c3.9-7.5,11.1-6.9,18-7.3c4.3,0.9,8.5,1.6,12.9,0.4c14.1,0.7,26.3,5,34.3,17.5
		c1.4,3.3,4.4,4.7,7.1,6.6c8.1,8.4,10.9,18.8,11.4,30c0.2,4,0.3,8,1.8,11.8c0,1.2,0,2.3,0,3.5c-2.7,7.5-1.1,15.5-3.3,23.1
		C508,162.9,506.6,171.8,497.7,176.3z"/>
	<path fill="#FEFEFE" d="M261.3,512.3c32.2-1.4,63.6-6.8,93.2-19.7c77.6-33.8,127.6-91.8,149.7-173.5c5.1-18.8,7.1-38.2,8-57.7
		c0.5-1.2,1-1.2,1.5,0c0,82-0.1,164,0.1,245.9c0,5.5-1.2,6.7-6.7,6.7c-82-0.2-164-0.1-245.9-0.1
		C260.1,513.2,260.1,512.7,261.3,512.3z"/>
	<path fill="#FEFEFE" d="M3.2,287.6C7,305.1,9.3,323,15.8,339.9c37.2,97.7,107.6,154.2,210.7,170.2c8.6,1.3,17.4,1.4,26,2.1
		c1.2,0.5,1.2,1,0,1.5c-81.4,0-162.8-0.1-244.2,0.1c-5.4,0-6.7-1.2-6.7-6.7C1.8,434,1.8,360.8,1.8,287.6
		C2.3,286.4,2.8,286.4,3.2,287.6z"/>
	<path fill="#FEFEFE" d="M513.8,128c-3.4-2.7-2.7-6.7-3.3-10.2c-2-11-5.2-21.4-12.6-30c-2.2-1.9-4.8-3.5-6.7-5.8
		c-7.6-11.1-18.7-15.9-31.7-16.9c-4.1,1.1-8.1,1.1-12.2,0c-6.8-0.9-12.6,3-19,4.1c-11.6-13.4-26.5-22.7-41.5-31.7
		c-30.5-18.4-63.9-29-99.1-34.1c-1.2-0.5-1.2-1-0.1-1.5c73.2,0,146.3,0.1,219.5-0.1c5.2,0,6.9,0.8,6.9,6.6
		C513.6,48.1,513.8,88.1,513.8,128z"/>
	<path fill="#FEFEFE" d="M226.1,3.3c-46.1,6.6-88.1,23.1-125,51.7c-5.5,4.2-11.7,7.8-15.4,14c-6.3,4.2-12.5,0.3-18.8-0.2
		c-3.8-1.1-7.6-1.4-11.4-0.2c-22.3,2.3-34.8,16.8-43.9,35.4c-2.5,5.2-2.5,11.4-6.4,16.1c-1,1-2.1,1.6-3.5,0.9
		c0-37.6,0.2-75.2-0.2-112.8C1.5,2.4,3.3,1.6,8.4,1.6C81,1.8,153.6,1.8,226.2,1.8C227.4,2.3,227.4,2.8,226.1,3.3z"/>
	<path fill="#FEFEFD" d="M497.7,176.3c7.9-14,11.1-29.7,16.1-44.8c0,40.3,0,80.7,0,121c-0.5,1.2-1,1.2-1.5,0
		c-1.1-20.8-3.9-41.4-9.1-61.6C501.9,185.8,500.7,180.7,497.7,176.3z"/>
	<path fill="#FEFEFD" d="M16.4,175.3c-7.1,13-8.4,27.5-11.2,41.6c-0.6,3.1,0,6.4-2,9.3c-0.4,1.2-0.9,1.2-1.4,0
		c0-29.2,0-58.4,0-87.7c1.5-0.6,2.7,0.1,3.7,1.2c5.2,9.4,7.2,20.1,11.7,29.8C18,171.4,17.8,173.5,16.4,175.3z"/>
	<path fill="#C55559" d="M3.9,140.2c-0.7-0.5-1.4-1.1-2.1-1.6c0-0.6,0-1.2,0-1.8c1.4-4.7,1.4-9.4,0-14c0-0.6,0-1.2,0-1.8
		c0.7-0.5,1.4-1.1,2.1-1.6C11.1,124.6,11.1,134.7,3.9,140.2z"/>
	<path fill="#EFD4D3" d="M1.8,122.7c2.7,4.7,2.7,9.4,0,14C1.8,132.1,1.8,127.4,1.8,122.7z"/>
	<path fill="#FEF8DC" d="M287.6,1.8c0,0.5,0,1,0.1,1.5c-3.5-0.4-7.5,1.9-10.6-1.5C280.5,1.8,284.1,1.8,287.6,1.8z"/>
	<path fill="#FDFBF0" d="M512.3,252.5c0.5,0,1,0,1.5,0c0,2.9,0,5.8,0,8.8c-0.5,0-1,0-1.5,0C512.3,258.3,512.3,255.4,512.3,252.5z"
		/>
	<path fill="#FDF7DC" d="M226.1,3.3c0-0.5,0-1,0.1-1.5c2.9,0,5.8,0,8.8,0C232.5,5.1,229.1,2.8,226.1,3.3z"/>
	<path fill="#FDFAE9" d="M1.8,226.2c0.5-0.1,1-0.1,1.4,0c0,3,1.7,6.3-1.4,8.8C1.8,232,1.8,229.1,1.8,226.2z"/>
	<path fill="#FDFAE9" d="M3.2,287.6l-0.7,0l-0.7-0.1c0-2.9,0-5.8,0-8.8C4.9,281.3,3.2,284.6,3.2,287.6z"/>
	<path fill="#FDFBF0" d="M252.5,513.8c0-0.5,0-1,0-1.5c2.9,0,5.9,0,8.8,0c0,0.5,0,1,0,1.5C258.3,513.8,255.4,513.8,252.5,513.8z"
		/>
	<path fill="#C96165" d="M3.9,140.2c2.1-6.9,2.2-13.9-0.1-20.8c4-26.9,18.5-45.1,44.6-53.7c1.9-0.6,4-0.4,6-0.6
		c4.6,1.1,9.2,1.1,13.9,0c6.2-0.5,11.5,3.1,17.4,3.9c6.3,5.8,14.3,9.6,19.2,17.1c3.4,5.2,6.5,3.2,10.2-0.8
		c10.2-10.8,21.7-19.8,37.6-20.2c4.1,1.2,8.2,1.1,12.2-0.4c27.5,3,50.9,28.2,52.4,58.2c-1.2,4.6-1.1,9.2-0.1,13.8
		c-2.2,24.6-14.4,43.9-32.4,60c-3.5,1.2-5.9,3.6-7.5,6.9c-21.2,19.1-42.4,38.1-63.6,57.3c-5.3,4.8-7.6,0.3-10.4-2.9
		c-1.5-3.4-3.9-5.7-7.5-6.9c-13.5-12.1-26.9-24.2-40.4-36.4c-3.4-3.1-6.7-6.2-10-9.3c-0.9-2.8-2.9-4.3-5.6-5.2
		c-9.4-6.8-16-16.1-23.4-24.8C10.9,164.1,5.4,152.8,3.9,140.2z"/>
	<path fill="#374043" d="M252.5,336.7c-19,1.4-45-21.3-47.5-41.7c-1.3-3-0.6-6.1-0.5-9.1c1.7-3.8-1-8.8,3-12.1
		c2.2-1.1,4.5-1.1,6.8-1.1c28.3-0.1,56.6-0.1,84.9,0c2.3,0,4.7,0,6.9,1c5.1,5.5,1.1,12.4,2.9,18.4c0.5,1,0.4,2-0.2,3
		c-2.6,20.5-28.5,43-47.5,41.6C258.3,335.3,255.4,335.3,252.5,336.7z"/>
	<path fill="#959068" d="M308.8,295c-0.2-0.8-0.4-1.6-0.5-2.4c-1-4.6-0.3-9.3-0.5-13.9c-0.1-2.1,0-4.2-3-4.2
		c-31.8,0-63.6,0-95.4,0c-7,1.7-1.1,8.2-4.1,11.3c-0.1,3.1-0.2,6.2-0.2,9.2c-3.4-7.4-1.3-15.1-1.5-22.7c1.1-2,3-1.4,4.7-1.4
		c32.3,0,64.7,0,97,0c1.2,0,2.3,0.2,3.4,0.7C312.1,279.3,311.2,287.2,308.8,295z"/>
	<path fill="#FCDD3F" d="M308.5,271.6c-31.5,0.1-63.1,0.1-94.6,0.2c-3.5,0-7,0.3-10.5,0.5c1.6-2.1,3.9-2.3,6.2-2.3
		c31.3,0,62.6,0,93.9,0.1C305.2,270.1,306.9,271.1,308.5,271.6z"/>
	<path fill="#C75966" d="M320.8,187.8c6,1,9.3,4.6,10.5,10.4C327.2,195.3,323.6,191.9,320.8,187.8z"/>
	<path fill="#C34F63" d="M361.2,64.7c-4.1,2.8-8.1,2.7-12.2,0.1C353,63.8,357.1,63.9,361.2,64.7z"/>
	<path fill="#C55464" d="M217.2,136.6c-2.2-4.6-2.3-9.2,0.1-13.8C217.2,127.4,217.2,132,217.2,136.6z"/>
	<path fill="#C75A68" d="M177.2,203.5c-0.3-5.4,3.6-6.2,7.5-6.9C182.2,198.9,179.7,201.2,177.2,203.5z"/>
	<path fill="#C75A68" d="M379.8,242.2c4,0.7,7.9,1.5,7.5,6.9C384.8,246.8,382.3,244.5,379.8,242.2z"/>
	<path fill="#C75A67" d="M414,254.3c-0.4-5.4,3.5-6.2,7.5-6.9C418.9,249.7,416.4,252,414,254.3z"/>
	<path fill="#C75A67" d="M95.8,251c4,0.7,7.9,1.5,7.5,6.9C100.8,255.6,98.3,253.3,95.8,251z"/>
	<path fill="#C34F63" d="M164.9,64.6c-4,3-8,2.7-12.2,0.4C156.8,64.9,160.9,64.8,164.9,64.6z"/>
	<path fill="#C65967" d="M39.8,200.1c3.1,0.4,6.4,0.5,5.6,5.2C43.5,203.6,41.6,201.8,39.8,200.1z"/>
	<path fill="#C75A68" d="M341.3,207.1c3.1,0.4,6.5,0.5,5.7,5.2C345,210.6,343.1,208.8,341.3,207.1z"/>
	<path fill="#C75A67" d="M449.1,222.8c-0.8-4.8,2.6-4.8,5.7-5.2C453,219.4,451,221.1,449.1,222.8z"/>
	<path fill="#C65866" d="M433.4,236.9c-0.8-4.2,1.1-5.2,4.8-4C436.6,234.2,435,235.5,433.4,236.9z"/>
	<path fill="#C65764" d="M371.6,66.9c-1,0.4-1.9,1.1-3,1.3c-1,0.1-2.1-0.3-3.1-0.4c0.5-1.8,2.1-0.9,3.2-1.4
		C369.6,66.5,370.6,66.7,371.6,66.9z"/>
	<path fill="#2C3748" d="M252.5,336.7c2.9-2.4,5.9-2.4,8.8,0C258.3,337.4,255.4,337.4,252.5,336.7z"/>
	<path fill="#C24B4F" d="M447.2,65c4.1-0.7,8.1-0.7,12.2,0C455.3,67.4,451.2,67.4,447.2,65z"/>
	<path fill="#C5575A" d="M491.1,81.9c3.6,0.3,5.4,2.8,6.7,5.8C494.4,87.2,492.3,85.1,491.1,81.9z"/>
	<path fill="#C24C50" d="M68.3,65.1c-4.6,2.3-9.2,2.3-13.9,0C59.1,64.3,63.7,64.3,68.3,65.1z"/>
	<path fill="#2A3645" d="M206.8,273.8c33.4,0,66.7,0,100.1,0c0.5,0.4,0.7,0.7,0.5,1c-0.2,0.3-0.4,0.5-0.5,0.5
		c-33.3,0-66.6,0-99.9,0c-0.5-0.3-0.7-0.6-0.6-1C206.5,274,206.7,273.8,206.8,273.8z"/>
	<path fill="#16253F" d="M306.8,275.3c0-0.5,0-1,0.1-1.5c3.5,6.1,1.6,12.5,1.3,18.8C305.6,287,307.6,281,306.8,275.3z"/>
	<path fill="#16233F" d="M206.8,273.8c0,0.5,0,1,0.1,1.5c-0.4,3.5,0.9,7.3-1.7,10.5C205.7,281.8,203.2,277.3,206.8,273.8z"/>
	<path fill="#FEFEFE" d="M513.8,271.8c0,78.5-0.1,156.9,0.1,235.4c0,5.5-1.2,6.7-6.7,6.7c-76.7-0.2-153.4-0.1-230.2-0.1
		c2-6.2,8-3.9,12-5.7c11.6-1.3,22.9-4,34.1-7c16.3-2.8,30.7-10.7,45.7-16.7c24.1-12.1,45.8-27.7,65.5-46c4.3-4,8.2-8.3,11.5-13.1
		c8.4-9.4,16.7-18.8,23-29.8c4.6-7.2,9.5-14.3,12.3-22.5c5.1-7.7,8.5-16.2,11.6-24.8c2.1-4.1,3.5-8.4,4.5-12.9
		c0.2-5.3,2.1-10.1,4.3-14.8c1.5-4,2.7-8.1,3-12.5c0.4-3.5,1.4-7,1.8-10.5c1.1-4.4,1.5-8.9,2.3-13.4c1.5-3.9,0.3-8.4,2.6-12.1
		C512,271.3,512.8,271.2,513.8,271.8z"/>
	<path fill="#FEFEFE" d="M285.8,1.8c73.9,0,147.9,0.1,221.8-0.1c5.2,0,6.3,1.1,6.3,6.3c-0.2,78.6-0.1,157.2-0.1,235.8
		c-0.9,0.6-1.7,0.5-2.4-0.2c-2.6-4-0.9-8.8-2.5-13c-0.3-0.8-0.4-1.7-0.6-2.6c-0.4-3-0.3-6-1.3-8.8c-0.7-2.9-0.8-5.8-1.7-8.6
		c-0.8-3.2-0.7-6.5-1.6-9.7c-0.5-1.9-1-3.8-1.6-5.6c-0.6-1.8-1.1-3.7-1.9-5.4c-0.6-1.4-1.3-2.8-1.8-4.3c-0.5-1.5-0.7-3.1-0.9-4.6
		c-0.6-3.4-1.5-6.8-2.5-10.2c-0.5-1.8-1.1-3.6-1.8-5.4c-1.2-2.7-2-5.6-3.5-8.1c-0.6-0.9-1.2-1.9-1.8-2.8c-1.5-2.6-2.2-5.5-3.4-8.3
		c-0.6-1.4-1.3-2.7-2-4.1c-1.5-3.1-2.8-6.3-5.2-8.9c-1.3-1.4-2.4-2.9-3.2-4.6c-0.9-2.3-1.8-4.6-3.5-6.6c-1.3-1.7-2.4-3.5-3.4-5.4
		c-0.7-1.2-1.3-2.4-2.3-3.4c-1.3-1.2-2.8-2.4-3.5-4.1c-0.9-2.1-1.7-4.2-3.5-5.7c-2-1.7-3.6-3.9-5.1-6.1c-1.7-2.5-3.3-5.1-5.5-7.2
		c-12.1-11.5-22.6-24.6-36.7-34c-6-4.3-12.5-8-18.2-12.7c-21.9-13.8-45.2-23.9-70.3-30.7c-12.1-3.3-25.1-2.2-36.3-8.4
		C285.2,3.4,285.2,2.6,285.8,1.8z"/>
	<path fill="#FEFEFE" d="M235,513.8c-75.7,0-151.4-0.1-227.1,0.1c-5.2,0-6.3-1.1-6.3-6.3c0.2-73.4,0.1-146.7,0.1-220.1
		c0.9-0.6,1.7-0.5,2.4,0.3c2.1,3.2,1.4,7.1,2.7,10.5c2.1,7.3,2.4,15.1,5,22.2c1.8,10.9,5.9,21.1,10.2,31.1
		c5.5,16,14.2,30.4,23.1,44.7c4.1,6.5,8.1,13,13.7,18.4c14.6,20.6,33.6,36.5,54.1,50.8c17.4,12.3,36.4,21.4,56.1,29.2
		c9.5,3.9,19.6,5.7,29.5,8.5c9.6,1.9,19.1,3.7,28.8,5.2C230.2,510.1,234.6,509.1,235,513.8z"/>
	<path fill="#FEFEFE" d="M1.8,226.2c0-72.6,0.1-145.3-0.1-217.9c0-5.5,1.2-6.7,6.7-6.7c73.2,0.2,146.4,0.1,219.6,0.1
		c0.6,0.9,0.5,1.7-0.2,2.4c-16.5,5.3-34,6.6-50.5,12.3c-17.4,6.1-33.9,13.5-49.7,22.9c-15.8,8.4-29.4,19.5-42.4,31.6
		C77,75.6,72.3,83.6,66.2,90.2c-3.2,3.4-5.5,7.4-8.9,10.6c-2.6,2.7-4.5,6-7,8.9c-2,2.7-3.8,5.6-5.6,8.5c-2.6,3.4-4.3,7.2-6.7,10.7
		c-2.8,4.2-4.7,8.8-7,13.3c-1.9,3.3-3.5,6.8-5.2,10.2c-0.5,1-1,2-1.5,3c-1,2-1.5,4.2-2.3,6.4c-1.3,2.8-2.4,5.7-3.3,8.6
		c-1.2,3.3-2.3,6.7-3.4,10.1c-0.8,2.2-1.2,4.6-1.8,6.9c-0.6,1.9-1.2,3.8-1.8,5.7c-1.1,3-2.2,6.1-2.5,9.3c-0.2,2.1-0.4,4.2-0.9,6.2
		c-1.1,4.1-1.6,8.4-2.6,12.5c-0.2,1.8-0.6,3.5-1.7,4.9C3.4,226.8,2.6,226.8,1.8,226.2z"/>
	<path fill="#C85F6C" d="M125.6,38.3c24.6-16,51.5-26.1,80.4-31.4c7.3-1.3,14.3-3.7,21.8-3.7c1.6-0.9,3.4-0.6,5.1-0.4
		c4.2,1.2,8.7,0.5,14.4,2.8c-0.5-0.2-1.5-2.6-1.5-1.4c-1.8,0-4.3,1.1-3.8-2.4c9.9,0,19.9,0,29.8,0c2.9,2.9,6.3,1.7,9.6,1
		c1.6,0,3.2-0.4,4.6,0.6c38.8,5.1,75.6,16.1,108,38.9c-3.9,6.6-10.7,5.2-16.5,5.3c-23,0.4-46.1-0.3-69.1-0.7
		c-26.5-0.5-53.1-0.1-79.6-0.2c-25.4-0.2-50.8,0.1-76.1-0.3C142.9,46.1,134,43.2,125.6,38.3z"/>
	<path fill="#E5BD52" d="M289.4,510c-3.7,2.6-9.1-0.4-12.3,3.7c-2.3,0-4.7,0-7,0c-5.5-2-11.1-0.3-16.6-1
		c-6.2-5.2-13-9.1-20.4-12.5c-6.5-3-9.1-10.5-11.8-16.8c-2.7-6.2-6.3-11.7-9.7-17.5c-4-6.9-3.2-9.2,4.1-12.3
		c3-1.3,3.8-2.7,3.1-5.9c-2.5-10.8-2.4-10.8,9-12.3c4.7,0.4,8.5,2.4,11.6,5.9c4.9,9.3,12.3,17.2,15.4,27.6
		c1.8,6.1,9.1,1.9,12.7,5.4c2.8,2.6,4.8,5.9,6.6,9.1c2.9,5.2,6.5,9.2,11.9,12.1C292.9,499.2,293.6,504.5,289.4,510z"/>
	<path fill="#DA985D" d="M1.8,252.5c0-4.7,0-9.4,0-14c0.6-0.6,1.3-0.7,2-0.4c15.8-4,32-5.2,48.1-7.4c17.1-2.4,34.3-1.9,51.5-2.1
		c4.1-0.1,8.1-1,12.1-2c2.4-0.3,4.8-0.3,6.1,2.3c0.2,2-0.6,3.7-1.4,5.4c-0.9,7.1-4.9,9.4-12,10.7c-13,2.4-26,3-39.1,2.9
		c-12.6-0.1-24.9,2.7-37.3,3.3C21.7,251.7,11.8,254.1,1.8,252.5z"/>
	<path fill="#DB9B5B" d="M1.8,252.5c26.9-4.6,54-6.9,81.4-7.2c10.2-0.1,20.4-2.2,30.6-3.4c2.7-0.3,3.6-1.4,2.7-4
		c-1-2.8,0-4.5,3.1-4.7c2,5.6,8.2,8.9,8.3,15.5c-1.3,4.9-5.2,5.9-9.5,6.2c-17.4,1.4-34.8,3.1-52.3,4.2
		c-17.6,1.1-35.1,4.9-52.4,8.8c-3.9,0.9-7.8,3-11.8,0.4C1.8,263,1.8,257.8,1.8,252.5z"/>
	<path fill="#DD9E5A" d="M1.8,268.3c16-4.1,32.3-6.3,48.5-9.3c22.9-4.2,46.1-2.9,68.9-6.4c3.9-0.6,6.8-1.3,7.2-5.7
		c8.1,0.2,12.3,7,18.1,11c2.6,1.8,1.1,4.1-1.7,5c-24.2-0.6-48.3,1-72.2,4.3c-18.7,2.5-37.3,5.7-54.7,13.8
		c-4.1,1.8-8.2,3.2-12.7,1.5c-1.3-2.2,0.4-5-1.4-7.2C1.8,272.9,1.8,270.6,1.8,268.3z"/>
	<path fill="#ECCF83" d="M252.5,511.9c5.8,1,12-1.8,17.6,1.8c-9.4,0-18.7,0-28.1,0c-0.4-1.8,0.8-2.6,2.2-3.2
		C247.2,509.5,249.9,510.3,252.5,511.9z"/>
	<path fill="#E5BD52" d="M243.7,511.9c-0.6,0.6-1.1,1.2-1.7,1.9c-2.3,0-4.7,0-7,0c-1.3-3.8-5.5-1-7.5-3.3
		C233.2,507,238.8,505.1,243.7,511.9z"/>
	<path fill="#C55464" d="M242,1.8c1,2.1,3.5,1.3,7.3,4c-6.9-1.1-11.5,1.1-16-2.1c1.3-1.9,3.9-0.1,5.2-1.9
		C239.6,1.8,240.8,1.8,242,1.8z"/>
	<path fill="#EBC79F" d="M1.8,275.3c2.7,1.7,1.3,4.6,1.9,7c1.5,2,1.4,3.9-0.5,5.6l-0.7,0.1l-0.7-0.3
		C1.8,283.5,1.8,279.4,1.8,275.3z"/>
	<path fill="#E9C2A2" d="M3.5,238.3c-0.6,0.1-1.1,0.1-1.7,0.1c0-4.1,0-8.2,0-12.3c0.5-0.1,1-0.2,1.6-0.2
		C6.8,230.1,6.7,234.2,3.5,238.3z"/>
	<path fill="#E2ABB2" d="M286,3.3c-1.8,0.1-3.7,0.2-5.5,0.4c-2.6,0.4-5.7,2.8-6.9-1.9c4.1,0,8.2,0,12.3,0
		C285.8,2.3,285.8,2.8,286,3.3z"/>
	<path fill="#E2ACB3" d="M238.5,1.8c-1.1,2.3-3.4,1.5-5.2,1.9c-1.8-0.1-3.7-0.3-5.5-0.4c0.1-0.5,0.2-1,0.2-1.5
		C231.5,1.8,235,1.8,238.5,1.8z"/>
	<path fill="#F8EDDD" d="M513.8,271.8c-0.6,0-1.2,0-1.9,0c-2.6-3-2.4-6.3-0.7-9.6c0.7-0.8,1.5-1.1,2.6-0.9
		C513.8,264.8,513.8,268.3,513.8,271.8z"/>
	<path fill="#C55464" d="M273.5,1.8c1.8,2.6,4.6,1.3,6.9,1.9c-3.5,2.2-6.8,3.5-8.7-1.9C272.4,1.8,272.9,1.8,273.5,1.8z"/>
	<path fill="#E7BC86" d="M513.8,261.3l-0.6,0.3l-0.6-0.2c-0.4-0.2-0.8-0.5-1.2-0.7c-1.6-2.6-1.5-5.3,0-7.9
		c0.7-0.8,1.5-0.8,2.4-0.2C513.8,255.4,513.8,258.3,513.8,261.3z"/>
	<path fill="#F5E6D2" d="M513.8,252.5c-0.5-0.2-1-0.3-1.5-0.2c-2.8-2.9-2.8-5.8,0.2-8.7c0.5-0.1,0.9-0.1,1.3,0.1
		C513.8,246.6,513.8,249.6,513.8,252.5z"/>
	<path fill="#E6C153" d="M370,485.7c-14.5,7.6-29.5,14-45.7,17.3c-1.3-0.7-2.6-1.4-3.1-2.9c-4-11.5-11.9-20.4-19.1-29.8
		c-2.5-4.3-4.4-8.9-6.9-13.1c-0.9-1.5-1.7-3.1-1.8-4.9c-0.1-1.5,0.2-3.9,1.1-4c10.6,0,4.2-16.1,14.9-15.8c3.2,0.1,5.5-1.6,7.6-3.6
		c0.8-0.4,1.6-0.6,2.5-0.6c8.1,3.5,14.7,2.1,22.6-2.9c15-9.5,29.1-1.7,31.5,15.9c-1.1,4.6-5.6,8-2.7,14.1c1.5,3.1-3,6-6.6,6.7
		c-4.1,0.8-4.2,2.2-2.9,5.9C363.6,474.3,368.1,479.4,370,485.7z"/>
	<path fill="#E7C354" d="M370,485.7c-8.2-5.3-8.2-15.6-13.5-22.7c-1.1-1.4,0.1-2.8,2.6-3c11.4-0.8,11.5-1,7.4-10.3
		c-2.6-5.8,6.6-3.2,5.2-7.9c4.6-13.1,5.3-13.5,20.2-11.6c8.5,1,16.3,0.2,24.3-4.1c7.2-3.8,15.8-4.2,23.4-8
		c5.1-2.6,8.1,1.1,7.9,8.1c-15.5,20.2-35.7,34.9-56.8,48.4C384.1,478.9,377.5,483.2,370,485.7z"/>
	<path fill="#E5C155" d="M447.5,426.3c-1.9-7.6-6.5-9.1-12.3-3.9c-1.1,0.9-2,3-2.9,3c-15.2-0.5-28.2,13.2-44.6,6.6
		c-5.4-2.2-11.7-1.3-12.9,7c-0.2,1.1-1.9,2-2.9,3c0.1-11-6.9-15.9-16.3-18.5c-5.4-1.5-11.2,1.8-13.9,4.8
		c-7.7,8.2-14.7,5.8-22.4,1.4c-1.1-1.5-0.3-2.9,0.4-4.3c0.4-0.7,1-1.2,1.6-1.6c1.9-0.3,3.8-0.3,5.4-1.6c4.3-5.6,9.4-8.3,16.4-4.9
		c2.1,1,4.5-0.3,6.8-0.4c16.6-1.1,33-4.1,49.8-4.1c10.2,0,20.4-0.6,30.6-4.7c7.4-3,14.8-6.1,21.9-9.9c4.4-1.8,8.9-3.7,13.7-4.1
		c1.9-0.2,4.8-1,4.5,2.8C464.2,407.8,456.5,417.5,447.5,426.3z"/>
	<path fill="#E2AE5A" d="M510.3,284.2c0.1,4.7-0.1,9.4-2,13.9c-9.2-0.8-18-2-27.3,1.8c-5.1,2.1-12-0.1-18-0.7
		c-6.3,1.1-10.7,6.6-17.4,7.5c-2.9,0.4-2.2,3.7-0.9,5.8c3.3,5.4,2.5,10.5-0.7,15.6c-5.2,0.8-6.8-3.3-9.2-6.4
		c-3.9-5.5-8.5-10.3-13.4-14.9c-8-7.5-7.2-9.4,2.6-14.2c6.8-3.3,13-7.5,20.5-9.2c2.9-0.6,5.7-1.5,8.6-0.7c2.5,0.8,5,1.8,7.6,0.9
		c14.2-4.9,28.8-1.5,43.2-2.6C506.3,280.7,510.2,279.2,510.3,284.2z"/>
	<path fill="#E5BC56" d="M494.6,349c-3.1,8.8-5.5,17.9-12,25.1c-7.7,5-16.7,8.1-22.6,15.7c-2.9,3.8-8.1,4.4-12.1,6.7
		c-14.6,7.8-30.6,10.3-46.8,10.7c-10.4,0.3-20.8,2.3-31.2,0.3c-3.4-0.7-6.9-1-9.8-3.1c-1.1-5.4-5.2-5.6-9.8-6.1
		c-8.6-1-10.7-5.7-6.4-12.9c9.5,2.4,18.7,5.6,28.1,8.5c5.4,1.6,10.6,2.6,16.1,1.1c7.8-0.5,15.6-1.1,23.5-0.9
		c25-0.3,43.7-11.8,57-32.5C473.7,353,485.9,347.1,494.6,349z"/>
	<path fill="#E5BF52" d="M303.3,469.9c10,9.1,17,20.2,21,33.1c-11.3,3.9-23,6.2-35,7c3.3-5.2,0.8-10.6-3.2-11.9
		c-11.6-3.8-13.8-14.8-19.7-22.9c-0.2-3.3,2.4-3.9,4.6-4.2C281.8,470,292.5,468,303.3,469.9z"/>
	<path fill="#E2B259" d="M462.9,296.3c7.6-0.7,14.7,3.7,23.3-0.7c6-3.1,15.3-3.4,22.1,2.4c-0.6,3.5-1.1,7.1-1.7,10.6
		c-1.1,1.3-0.8,3.3-3.7,3.8c-11.9,2-24.3,2.2-35,8.7c-7.2,2.5-9.8,7.4-8.3,14.9c0.7,3.7,0.8,7.5-0.1,11.2
		c-0.9,3.9-2.4,7.4-7.6,5.4c-2.9-8.7,0.1-17.8-1.8-26.5c-0.6-2.8,0.2-5.8-0.2-8.7c-0.9-7.3,0.1-13.3,8-16.2
		C460.1,300.3,461.4,298.1,462.9,296.3z"/>
	<path fill="#E1AB5B" d="M510.3,284.2c-2.9-4.1-6.4-0.3-9.5-0.3c-13.3-0.1-26.7-2.5-39.7,2c-3.4,1.2-6.1,0.4-8.7-1.8
		c-4.6-2.1-12.8,2.6-13.5-7.1c1-7.1,6.4-7.2,11.8-7.6c15.4-1.2,30.8,0.5,46.3-0.1c5.5-0.2,10.6-0.9,12.4-7.4
		c0.7-0.9,1.5-1.1,2.4-0.6c0,0,0.7,0.1,0.7,0.1c-0.2,3.5-0.4,6.9-0.6,10.4C510.8,275.8,513,280.3,510.3,284.2z"/>
	<path fill="#E4B858" d="M494.6,349c-10.6,4.1-20.3,6.7-27.6,18.6c-8.4,13.7-22.6,24.6-40.4,26.8c-4.9,0.6-9.5,2.8-14.6,1.9
		c-0.5-4.7,3.2-4.8,6.2-5.6c24.5-6.7,42.1-21.2,51.8-45c3.3-8.2,10.1-13.5,18.1-17c5.8-2.5,9.5,0.4,11.2,7.8
		C497.8,340.7,497.4,345.3,494.6,349z"/>
	<path fill="#E3B558" d="M468.2,319.1c6.5-3.2,12.4-9,20.7-5.6c0.3,0.1,0.7,0.3,0.8,0.1c5-3.7,11-4.4,16.9-5
		c-0.1,4.4-0.9,8.6-3.3,12.4c-2.7,4.8-6.4,5.9-12.2,6.8c-9.7,1.6-17.7,8.1-21.3,18.3c-3.8,10.6-11,19-17.8,27.6
		c-2,2.5-4.4,5.9-8.7,3.4c-0.5-5,3-8,5.8-11.2c6.1-7.3,10.8-15.2,11-25C460.2,332.5,463.4,325.6,468.2,319.1z"/>
	<path fill="#E3B757" d="M443.6,377c11.7-4.5,16-15.5,21.1-25.3c5.2-9.9,9.7-19.8,20.8-24.5c1.6-0.7,3.6-2.8,4.3-2.4
		c5.9,3.2,9.5-0.7,13.5-3.8c-0.4,5.4-4.6,9.8-4.1,15.5c-5.2-9.1-11.9-9-20.2,0.5c-3.7,4.2-6.3,9-8.9,14.2
		c-11,21.7-27.9,36.8-52.5,41.6c-2.5,0.5-4.4,1.2-5.5,3.6c-8.2-1-16.4,1.9-24.5,0c-6.9,1.5-13.1-1.4-19.4-3.2
		c-3.1-0.9-5.7-3.1-5.6-7c3.3-3.6,7-1.9,10.4-0.4c3.3,1.4,6.5,2.4,10.1,1.5c3.8-0.5,7.6,0.1,11.3,0.7c6.7,1.2,13.1-0.3,19.7-1.9
		C424.1,383.6,433.4,378.9,443.6,377z"/>
	<path fill="#E5BF56" d="M448.9,394.5c9.6-7,19.2-13.9,28.8-20.9c1.9-1.4,3.5-2.2,4.9,0.4c-1.9,8.8-7.2,15.7-12.4,22.7
		c-6.6-2.7-11.8,2.6-17.8,3C448.3,400,448.2,397.5,448.9,394.5z"/>
	<path fill="#C9626A" d="M64.5,89.3c5.6-7.1,11.2-14.3,19-19.4c9.5-6.7,20.4-3.4,30.6-3.5c20.3-0.3,40.7-2.2,61,0.1
		c3,0.3,6.1-0.5,7.8-3c4.1-5.9,9.9-6.1,16.2-6.2c27.7-0.5,55.4-0.8,83.1-0.9c17-0.1,34.2,1.8,51.3,0.6c22.1-1.6,44.3,2.4,66.4-0.4
		c4-0.5,8.1-0.9,12.1-1.7c14.3,9.3,25.9,21.6,37,34.4c-4,6.1-10.3,3.1-15.3,3.4c-31.9,1.5-63.9,0.3-95.9,0.5
		c-31.4,0.2-62.8,0.4-94.3-0.3c-30.8-0.7-61.7,0.1-92.5,0.2c-26.7,0.1-53.5,0.8-80.2-1.2C68.5,91.5,66.1,91.4,64.5,89.3z"/>
	<path fill="#C9606A" d="M412,54.7c-4.4,8.7-12.7,3.8-18.8,4.5c-12.6,1.4-25.3,0.1-38-0.6c-10.8-0.5-22,1.2-33,0.9
		c-11.6-0.3-23.2,3-34.7-1.3c-6.2-2.3-13.2,0.4-19.7,0.7c-24.2,1.2-48.3,0.2-72.5,0.6c-4.5,0.1-8.5-0.1-9.8,6
		c-1,4.4-6.5,4.4-9.6,4c-15.8-2.1-31.3-1.3-47.1-0.3c-9.3,0.6-19.3,0.5-28.9-0.9c-5.5-0.8-11,0.4-16.4,1.4
		c12.3-12.9,26.5-23.2,42.1-31.6c21.2,6.9,43.2,6,65,6.1c16,0.1,32.1-0.8,48.1-0.2c22.5,0.8,45.1,0.1,67.7,0.3
		c20.2,0.2,40.5,1.5,60.7,0.2c9-0.6,18.3,2,27-2.4C400,46.4,406,50.5,412,54.7z"/>
	<path fill="#CF7565" d="M29.4,141.9c1.4-5.2,4.1-9.7,7.5-13.9c32-2.8,64-2.4,96.1-1.4c25.7,1.6,51.4,0.2,77.1,0.5
		c23,0.2,46,0.2,69-0.2c20-0.4,40.1,1.6,60.1-1.1c11.6-1.6,23.2,0.6,34.9,0.2c29.7-1.1,59.4-0.6,89.1-0.6c4.3,0,8.8-0.5,12.7,2.4
		c1,1.4,2,2.9,3,4.3c1.5,3.9-1.7,4.3-4,4.9c-3.4,0.9-7,0.6-10.5,0.6c-35.3,0-70.7-0.8-106,0.2c-29.4,0.8-58.8,1.3-88.1,2.6
		c-15.9,0.7-31.9-0.4-47.8,0.5c-2.1,0.1-4,0.5-6,1c-21.5,1.4-43,0.9-64.5,1.1c-36.7,0.2-73.3,0.1-109.9,1.4
		C37.5,144.6,32.9,145.5,29.4,141.9z"/>
	<path fill="#CB6869" d="M64.5,89.3c32.3,0.5,64.5,1.4,96.8,1.5c23.6,0.1,47.2-0.9,70.8,0.1c21.5,0.9,43.2,0.4,64.7,0.2
		c27.4-0.3,54.9-1.7,82.2-1c23.4,0.6,46.7,0.5,70-1c1.8,2.2,3.6,4.5,5.4,6.7c0.2,4.9-3.8,4.3-6.6,4.6c-5.8,0.6-11.7,0.4-17.5,0.3
		c-23.3-0.3-46.4,2.5-69.7,2.7c-26.1,0.1-52.3-1-78.4-0.1c-29.1,1-58.2-0.1-87.3,0.1c-41.4,0.3-82.8,1-124.1,0.6
		c-5.1,0-11.1,1.6-14.7-4.2C58.9,96.4,61.7,92.8,64.5,89.3z"/>
	<path fill="#CC6A68" d="M56.1,99.9c2.5,0.6,4.9,1.7,7.4,1.7c30,0.1,60,0.3,90-0.1c20.6-0.3,41.3,0.5,61.9-0.6
		c19.1-1,37.9,1.6,57.1,0.1c14.1-1.1,28.9-0.8,43.4-0.3c11.2,0.4,22.8,0.5,34.2,0.1c13.6-0.5,27.5,0,41.1-1
		c20-1.5,39.9-1.1,59.8-1.7c1.2,0,2.4-1.4,3.6-2.1c1.6,2.1,3.2,4.2,4.8,6.3c-1.2,4.9-5.5,4.9-9,4.6c-22.5-1.6-45,0.2-67.5,0.7
		c-8.9,0.2-17.8-1.3-26.8-0.1c-4.4,0.6-8.5,1.2-12.3,3.5c-36.4,0.2-72.8,2.3-109.2,2.1c-55.4-0.2-110.7,0.3-166.1,0.1
		c-3.8,0-7.6,0.4-11.4,0.4c-3.5,0-7.2,0.1-7.8-4.8C51.2,105.6,52.8,102.1,56.1,99.9z"/>
	<path fill="#CE7167" d="M131.5,128c-15.1,0.1-30.3,0.5-45.4,0.2c-11.7-0.2-23.3,0.7-35,1.2c-4.8,0.2-9.8,2-14.2-1.3
		c1.6-4.1,3.4-8,6.9-10.8c10.4-2,21-1,31.5-0.9c35.6,0.4,71.3-0.1,106.9,0.3c10.5,0.1,20.8-3.4,31.4-1.8
		c28.3,0.6,56.6-0.2,84.9,0.2c24.2,0.4,48.3-0.7,72.5-0.1c23.3,0.6,46.7,0.5,70,0.3c9.2-0.1,18.5,0.7,27.7-0.2
		c1.2,1.9,2.4,3.8,3.5,5.7c-1.3,3.4-4.2,3.7-7.2,3.7c-40-0.3-80,2.4-120.1,2.5c-35.3,0.2-70.7,0.6-106,0.1
		c-24.6-0.4-49.3,0.4-73.9,0.4C153.9,127.5,142.7,129.5,131.5,128z"/>
	<path fill="#CD6E67" d="M213.9,117.5c-41.9,2.9-83.8,1.5-125.6,1.7c-12.4,0.1-24.9,0-37.3,0c-2.5,0-5.4,0.7-7.2-1.9
		c1-3.3,3-6.1,5.4-8.5c1.5,1.9,3.6,3.3,6,2.8c14.1-2.9,28.4-0.1,42.6-0.9c14.1-0.8,28.3-0.2,42.5-0.2c22.1,0,44.3,0,66.4,0
		c27.5,0,55,1,82.5-0.4c18.2-0.9,36.4-1.1,54.5-1.4c7.4-3.5,15.7-2.1,23.1-1.8c26.4,1,52.7-1.8,79,0.6c5.7,0.5,11.5-2.5,17,1.2
		c1.2,1.1,2.5,2.3,3.7,3.4c-1.1,6-6,3.7-9.1,3.4c-17.1-1.7-34.4-0.9-51.3-0.4c-28.1,0.7-56.3-1.3-84.4,0.3
		c-20,1.1-40.2-1-60.2,0.5C245.7,117.1,229.7,113.4,213.9,117.5z"/>
	<path fill="#D48563" d="M494.4,164.8c1.8,1.3,1.9,3.2,2,5.2c-4,4.4-9.5,4-14.7,4.2c-14.8,0.4-29.6,0-44.5-0.7
		c-15.9-0.8-32,0.8-48,1c-38.2,0.5-76.3,3.5-114.5,3.7c-9.1-2.9-18.2-2.6-27.2,0c-5.1,1.5-9.7-1-14.6-0.5
		c-13.7,0-27.1-4.7-40.9-3.4c-2,0.2-3.9-0.9-5-2.8c-0.2-1-0.1-1.9,0.4-2.8c13.5-2.7,27.1-3.1,40.8-2.9c13.1,0.1,26.2-0.2,39-3.6
		c1-0.3,2-0.3,3-0.3c18.2,0.9,36.4,1,54.7,1c23,0.1,45.8-2.7,68.8-1.9c23.5,0.8,47-0.4,70.6,0.9c6.3,0.3,12.7-1.5,19.1-1.1
		C487.5,161,491.3,161.8,494.4,164.8z"/>
	<path fill="#D17D64" d="M23,154.3c0.4-0.7,0.7-1.3,1.1-2c3.5-2.7,7.7-2.2,11.8-2.4c55.3-1.7,110.7-2,166-4
		c22.6-0.8,45.2-0.6,67.7-1.5c30.7-1.2,61.4-0.6,92-1.7c13-0.4,26-1.2,39.1-0.1c2.8,0.2,5-1.4,7.5-2.2c4.8-1.7,9.7-1.7,14.7-1.6
		c16,0.3,32,1.1,48,0.3c4.6-0.2,9.4-0.4,13.5,2.6c0.5,1.1,1,2.1,1.5,3.2c1.7,4-0.9,5.3-4,6c-2.9,0.6-5.8,0.6-8.7,0.5
		c-21.8-0.5-43.7-0.4-65.5,0.5c-18.9,0.8-37.8,1.1-56.7,2.2c-14.8-1.9-29.7-1-44.4-0.2c-11.1,0.6-21.9-0.9-33,0.1
		c-27.9,2.5-56,0-83.9,1.7c-9,0.5-18-1.3-27.1-0.8c-28.5,1.7-57.1,1.1-85.6,2.1c-13,0.4-25.9,3-39.1,2.3
		C32.6,159.1,26.6,160.1,23,154.3z"/>
	<path fill="#D58962" d="M273.5,177.1c3.4-2.2,7.3-2,11-1.7c22.9,1.5,45.8-0.5,68.5-1.8c24.4-1.4,48.9,0.5,73.2-2
		c16.3-1.7,32.3,2.6,48.6,0.5c7.1-0.9,14.5-0.4,21.6-2c1.8,3.3,3.1,6.7,3.1,10.6c-12.8,5.1-26.3,3.3-39.5,3.9
		c-18,0.7-36,0.2-54-0.3c-20.7-0.5-41.2,1.6-61.9,0.7c-26.7,0.9-53.4-0.9-80.1,0.2c-13.1,0.6-26.1,1.4-39.2,1.4
		c-5.9,0-11.6-0.5-17-3c0.3-4.4,2.6-6.2,8.7-6.6c5.5-0.4,11,0.6,16.4,1.3C246.6,179.8,260,175.7,273.5,177.1z"/>
	<path fill="#DFA45D" d="M511.8,261.3c-0.5,0-1,0-1.5,0c-3.4,3-7.6,2.5-11.7,2.5c-27.6-0.3-55.2,1.4-82.9,1.7
		c-10.4,0.1-20.9-1.8-31.3,1.2c-3.7,1.1-7.2,2.2-10,4.9c-5.1-1.7-12.3-11.3-10.7-15.4c2.6-7,8.8-8.6,15.6-8.6
		c13,4.1,26.2,1.5,39.1,0.3c28.8-2.7,57.7-2.9,86.5-3.8c1.8-0.1,3.6,0.5,3-2.3c-0.1-2.4-0.2-4.7,0-7.1c0.2-2.1,0.7-4,2.5-5.3
		c2.6,4.5,0,9.7,2,14.3c-0.6,2.9-1,5.7-0.2,8.7C512.1,255.3,511.9,258.3,511.8,261.3z"/>
	<path fill="#CF7467" d="M131.5,128c20.1-1.2,40.1-2.8,60.2-3.4c21.7-0.6,43.5-0.5,65.2,0c26.5,0.5,53.1-0.2,79.6,0.2
		c22.2,0.3,44.6,0.9,66.6-1c18.6-1.6,37.2,0.2,55.6-2.6c4.3-0.7,9,3.1,13.4-0.5c2.5,1.7,3.4,4.2,3.5,7
		c-26.8-0.3-53.8-1.2-80.4-0.1c-22.9,0.9-45.8-1-68.8,1.3c-18.5,1.9-37.4-0.3-56.1,0.1c-13.2,0.2-26.5,0.3-39.7,0.2
		c-32-0.3-64.1,0.2-96.2,0.3C133.5,129.6,132.5,128.6,131.5,128z"/>
	<path fill="#DA985F" d="M507,210.1c2.5,2.5,1.3,5.7,1.7,8.6c0.8,2,0.9,4,0.1,6c-8.3,4.8-17.1,1-25.7,1.5
		c-15.9,0.9-31.8,0.3-47.8,1.6c-11.5,0.9-23.2,0.7-34.7,0.5c-2-0.4-3.9-1.2-5.4-2.6c-4.4-3.9-8.1-3.4-11.4,1.4
		c-1.2,0.5-2.5,0.6-3.9,0.4c-12-2.1-12.6-2.8-9.3-10.9c17-2.1,34-3.7,51.2-3.8c12.1,0,24.5-0.2,36.5-2.5
		C474.6,207.2,490.8,206.1,507,210.1z"/>
	<path fill="#D79060" d="M504,194.5c0.4,1.8,0.8,3.6,1.2,5.4c-1.2,1.5-2.8,2.3-4.6,2.2c-20.1-0.2-40.1,1.4-60.1,3.2
		c-12.9-2.5-26-0.9-39-1.1c-11.6-0.2-23.2,0.7-34.8-0.7c-8.9-1.1-17.2,2.5-25.9,1.8c-20.3,1.2-40.6-0.6-60.8,1.4
		c-5.2,0.5-10.5-1.5-15.4,1c-1.3,0.4-2.6,0.6-4,0.5c-2.5-0.5-5-0.6-7.5,0.3c-2.2,0.5-4.4,0.7-6.7,0.7c-5.3-0.1-10.8,0.2-15.1-3.8
		c-0.5-3.4,2.1-4.3,4.4-5.4c9-1.6,18-0.8,27-0.7c14.9,0.1,29.6-1.1,44.3-3.3c6.7-1,13.2,0.6,19.9,0.3c33.6-1.5,67.1-5.3,100.7-4.1
		c22.6,0.8,45.2,1,67.8-1.2C499.1,190.7,501.5,192.6,504,194.5z"/>
	<path fill="#D07865" d="M484.3,141.9c-22.1-0.3-44.3,0.9-66.4-1c-3.1-0.3-6.3,0.7-9.4,1.1c-11.6,0.2-23.2-0.3-34.7,0.3
		c-27.3,1.4-54.6-0.4-81.9,0.8c-22.9,1-45.8,1.2-68.7,0.5c-3-0.1-5.8-0.6-7.5-3.5c10.4-5.2,21.5-1.9,32.2-2.3
		c27.6-1,55.3,0.3,82.8-1.4c46.6-2.9,93.3-0.5,139.9-1.6c2.9-0.1,6.7,1.7,8.1-2.8C481.8,134.7,482.9,138.4,484.3,141.9z"/>
	<path fill="#D68C61" d="M345.4,182.4c10.3,2.9,20.4-1.4,30.7-0.7c13.2,0.8,26.6,0.4,39.9,0.5c11.2,0.1,22.4,0.4,33.6,0.1
		c16.6-0.4,33.3-1.1,49.9-1.7c0.2,1.7,0.4,3.4,0.6,5.1c-5.4,4.4-11.9,4.9-18.2,4.1c-26.4-3.4-52.8,1.6-79.3-0.2
		c-10.8-0.7-21.9,2.3-33,2.7c-1.4,0.4-2.8,0.5-4.2,0.4c-3.4-0.6-6.9-1.5-10.4-0.2c-1.4,0.3-2.8,0.3-4.2,0.2
		c-15.9-0.7-31.9,0.1-47.8,0.7c-3.2,0.1-6.4,0.2-9.4-1.4c-2.6-6.2,3.2-4.8,5.6-5.6c5.8-2,12.2,0.9,18.1-1.3
		c5.8-2.6,11.9-1.4,17.9-1.5C338.8,183.8,342.2,183.6,345.4,182.4z"/>
	<path fill="#D78E61" d="M364.7,191.1c1.2,0,2.3,0,3.5,0c24.9-0.6,49.8-0.3,74.6-2.1c17.6-1.3,35.2,0.8,52.7-1.3
		c2.4-0.3,4.6,0.2,6.7,1.4c0.6,1.8,1.2,3.6,1.8,5.3c-9.8-2.6-19.5,0.9-29.3,0.5c-13.3-0.6-26.7,1-40,0.3
		c-16.9-1-33.6-0.5-50.4,0.3c-13.7,0.6-27.4,1.6-41.1,3.7c-8.7,1.3-18.7,0.8-28.1-0.7c-8.1-1.3-16.3,0.8-24.2,1.9
		c-18.7,2.4-37.3,0.6-55.9,1.4c-3.1-0.3-5.3-1.1-2.6-4.6c3.2-1.7,6.8-1.8,10.2-1.6c25,1.5,49.9-0.8,74.7-3
		c11.8-1,23.6,2.5,35.1-1.3c1.2,0,2.3,0,3.5,0C358.9,188.5,361.8,192.4,364.7,191.1z"/>
	<path fill="#D38264" d="M494.4,164.8c-13.7-3.6-27.5,0.7-41-0.6c-13.3-1.3-26.4-1.2-39.5-0.6c-18.9,0.8-37.7-2.3-56.5,1
		c-11.2,1.9-22.6-1-33.7,0.4c-16.3,2-32.6-0.9-48.9-0.1c-1.8,0.1-3.5-0.1-4.7-1.7c4-5.4,9.9-3.9,15.3-4c30-0.5,60.1,0.3,90-3.2
		c7.1-1.1,14.3-0.6,21.5-0.7c31.3,1,62.7,1.1,94.1,0.9C493.3,158.5,493.6,161.8,494.4,164.8z"/>
	<path fill="#CD6E67" d="M213.9,117.5c5.3-2.4,10.9-4.1,16.7-3.4c21.9,2.5,43.8-2.5,65.5-0.6c19,1.7,37.8-1,56.8-0.2
		c16.8,0.7,34,3,51-0.8c7-1.5,14.2,1.9,21.6,1.7c10.9-0.3,21.8-2.1,32.8-0.3c2.7,0.4,5.9,1,8.1-1.8c0.7,1,1.4,2,2.1,3
		c-1.4,2.4-3.8,2.5-6.1,2.4c-32.8-0.5-65.7,0-98.5-0.7c-23.1-0.4-46.4,0.4-69.5,0.6C267.6,117.6,240.7,117.5,213.9,117.5z"/>
	<path fill="#D99360" d="M440.1,203.4c21.5-4.8,43.4-3.2,65.1-3.6c2,3.2,1.8,6.7,1.7,10.2c-7,0.1-14.1,0.6-21.1,0.3
		c-9.5-0.5-18.8,1.2-28.2,1.8c-15.9,0.4-31.8-0.1-47.6-0.6c-6.7-0.2-13.3,0.5-20,0.5c-3.8,0-7.8,0.1-7.9-5.4
		c7.5-3.7,15.8-2.3,23.7-3.1C417.1,202.3,428.6,203.4,440.1,203.4z"/>
	<path fill="#D27F64" d="M398,157.8c-7.6,0-15.2,0-22.8,0c-9.7-0.9-19.4-1-29.1-1c-3.9,0-8.1,0.6-11.4-2.5
		c4.8-5.2,10.5-2.2,16-1.8c11.4-1.1,23.1-0.2,34.3-1.3c21.6-2.1,43.2-1.4,64.8-2.1c9.6-0.3,19.2,0,28.8-0.1c3.1,0,6.7,0.8,7.4-3.9
		c1.3,3,2.6,6,3.9,9c-6.8,4.8-14.8,2.6-21.9,2.4c-19.9-0.5-39.9,0.6-59.8-0.4C404.7,155.9,401.1,155.6,398,157.8z"/>
	<path fill="#DC9E5E" d="M510.4,229.3c-0.1,1.9-0.2,3.8-0.3,5.6c-1.6,1.4-3.5,2.4-5.5,2.3c-15-1-29.9,1.9-45.1,1.1
		c-12.8-0.6-26.1-0.9-38.9,2.3c-8.2,2.1-16.8,0.7-24.9,3.1c-6,0.4-9.2-1.9-7.9-8.4c1.8-3.9,5.6-4.1,8.9-4.3
		c21.5-1.2,43-3,64.6-1.4c2,0.2,4.2,0.6,6.1-0.1c13.1-4.7,26.6-2,39.9-2.6c1,0,2,0.3,2.8,0.9C510.5,228.3,510.6,228.8,510.4,229.3
		z"/>
	<path fill="#CC6B68" d="M462.7,108.7c-9.9,1.1-19.8,0.5-29.8,0.2c-20.9-0.6-41.8-0.6-62.7,0c-8.9,0.3-17.7,0.2-26.5-0.2
		c7.7-6.5,17.4-4.3,25.8-4.1c15,0.4,29.9-0.1,44.8-0.8c10.9-0.5,21.8,0,32.7,0.6c4.4,0.2,8.6,0.7,12.3-2.2
		C461.7,103.7,463.2,105.7,462.7,108.7z"/>
	<path fill="#D78E61" d="M502.2,189.1c-24.5,0.7-49.2,0-73.6,2.4c-19.3,1.9-38.4-0.7-57.5,1.1c-0.9,0.1-1.9-1-2.9-1.6
		c1.4-1.9,3.6-2,5.6-1.7c9.6,1.7,18.7-2.7,28.3-2.4c12.1,0.3,24.2-0.5,36.2,0.6c7,0.6,13.9-0.8,20.5-1.2c13.8-1,27.7,4.1,41.4-0.6
		C500.8,186.9,501.5,188,502.2,189.1z"/>
	<path fill="#D38163" d="M398,157.8c2.6-5.2,7.5-3.4,11.6-3.4c26.7-0.2,53.5-0.2,80.2-0.3c0.4,0.7,0.7,1.3,1.1,2
		c-6.9,5.8-16,3.5-22.9,3.2c-10.7-0.4-21.3,0.1-31.8-0.5C423.4,158.2,410.7,159,398,157.8z"/>
	<path fill="#DD9F5E" d="M510.1,227.9l-0.8,0h-0.8c-0.9-1.2-1.1-2.3,0-3.5c0.1-1.9,0.1-3.9,0.2-5.8
		C511.3,221.4,509.8,224.8,510.1,227.9z"/>
	<path fill="#E4BB52" d="M243.7,511.9c-5.2-3.2-10.8-1.1-16.2-1.4c-10.1-0.3-19.8-2.5-29.4-5.2c-4.5-3-8.3-6.4-9.5-11.9
		c-0.6-2.7-3.2-4.1-4.5-6.3c-6.5-10.8-12.6-21.7-19.8-32.1c-2.4-3.5-0.7-8.1,3.2-9.6c6-2.4,9.7-4.7,5.1-11.5
		c-1.1-1.7-0.4-4.8,1.5-5.4c6.8-2.5,7.3-9.1,10.1-14.2c1.8-3.2,3-8.4,8.9-5.5c0.6,1.2,0.3,2.4-0.2,3.5c-1.4,2.8-1.7,5.6,0,8.4
		c3.9,5.1,8.5,5,13.7,2.2c3-1.6,5.8-3.8,9.4-3.8c8.7,1.3,13.7,8.5,12,17.4c-1,1.3-2.3,1.8-3.8,1.7c-6.1-0.5-7.2,1.7-4.2,6.9
		c3.3,5.8,5.5,11.3-5.1,10.7c-4.3-0.2-5.3,2.6-3.1,5.7c7.7,10.9,12,23.6,19.3,34.8c1.8,2.7,4.7,3.7,7.5,4.1
		c7.1,1,11.5,5,14.1,11.4C249.5,511.9,246.6,511.9,243.7,511.9z"/>
	<path fill="#E4B852" d="M192.9,410.1c-8-1-8.6,7-8.9,10.4c-0.5,5.1-0.6,7-6.1,7.7c-4.8,0.6-5.2,4.1-2.2,7.7
		c4.6,5.4,5.7,8.9-3.6,9.7c-6.9,0.6-8.7,5.3-4.9,11.1c2.2,3.4,4.5,6.9,7.5,9.6c3.8,3.4,7.2,6.6,6.2,12.4c-0.2,1.2,0.5,3.4,1.4,3.9
		c9.4,4.8,9.4,16,15.9,22.7c-10.3-1.9-20.4-4.3-29.8-9c1.4-2.5,0.3-4.4-1.2-6.3c-9.6-11.7-15.6-25.8-24.7-38
		c-4-5.4-4.8-13-7.1-19.5c-0.3-0.8-0.1-1.8-0.3-2.6c-3.1-12.2-2.9-12.6,8.7-17.8c3.7-1.7,7.6-3,11.2-5c10.8-5,19.9-12.3,28.4-20.5
		c1.4-1.1,3-1.8,4.8-1.9c2.6,0.1,5.1,1.1,7.7,1.2c15.1,0.7,16.8,3.6,9.3,16.1C201.6,405.6,198.6,409.9,192.9,410.1z"/>
	<path fill="#E3B551" d="M156.1,408.5c-6.7,3.4-13.4,6.7-20,10.1c-1.6,0.8-4.9,1.8-2.9,4.1c6.4,7.3,6.2,16.7,9,25.1
		c0.3,0.8,0.3,1.9,0.8,2.4c11.7,11.4,16.1,27.7,26.8,39.8c1.7,2,6.5,6-1.5,6.2c-20.3-6.8-39.2-16.3-56.2-29.3
		c-3.6-8.2-10.3-15.1-9.6-25c3.7-4.9,6.6-9.6,1.2-15.4c-2-2.1-0.5-4.4,1.5-5.9c2.8-2.1,6-4.4,9.3-4.7c11.9-1.1,22.7-6.7,34.3-8.7
		C151.3,406.8,153.9,406.3,156.1,408.5z"/>
	<path fill="#DFA856" d="M20.5,352.6c-5.3-10-8.5-20.6-10.7-31.6c6.2-2.2,12.1-4.7,16.5-10.2c2.9-3.6,8.1-3.3,12.4-2.6
		c28,4.1,23.4-1.8,20.1,24.4c-2.7,21.1,9.9,37.1,27.6,42.5c6.5,2,14.1,1.3,19.5,6.7c0.6,1.4,0.6,2.7,0,4.1
		c-5.7,4.2-11.9,4.3-18.2,2.2c-7.4-2.5-14.9-4.8-22.3-7.5c-9-3.3-15.2-9.3-19.9-17.3c-3.2-5.4-6.9-10.2-14.1-10
		C27.6,353.2,23.9,355.2,20.5,352.6z"/>
	<path fill="#DFA558" d="M105.2,382.2c-5.1-1.2-10.1-2.6-15.2-3.6c-14.7-2.9-24.9-11.8-32.4-24.1c-0.9-1.4-1.4-3.3-1.4-4.9
		c-0.2-10.9-0.1-21.8,2.7-32.4c0.9-3.5-0.2-5.2-3.6-5c-5.6,0.4-11-1.2-16.4-1.8c-6.3-0.6-12.3-0.3-15.3,6.9
		c-2.9,6.7-8.8,3.5-13.7,3.8c-2.8-7.4-4.2-15.1-4.5-23c0.8-0.7,1.6-1.1,2.6-1.2c4.8-1,9.8-1.4,14.7-1.2c7.4,0.3,14.1-1.6,21-4.2
		c10.1-3.8,20.7-5.8,30.5,1.5c1.3,3.9,0.2,8.5,4.5,11.7c3.2,2.4,1.8,6.3-1.2,8.1c-4.5,2.6-4.2,6.4-3.9,10.5
		c-0.6,4.7-2.5,8.9-3.7,13.4c-4,15.7,6.9,32.5,23.4,36.2c10.6,2.3,21.2,3.1,31.8-0.3c3.1-1,6.2-1.5,9.3,0.1c2.3,6.5-3.3,7.3-6.9,8
		C120.2,381.9,112.7,383.1,105.2,382.2z"/>
	<path fill="#E2B151" d="M103.5,441.9c-0.5,6.6,5.2,10.8,6.7,16.7c0.7,2.8,2.4,5.3,1.8,8.3c-21.2-13.6-39.6-30.3-54.5-50.7
		c-0.3-5.2,4-6.4,7.4-7c7.2-1.3,14.1-3.2,20.9-5.4c3.5,4.5,7.6,7.7,13.7,7.6c2.3,0,4.2,1.5,5.4,3.6c1.2,2.4,1,4.5-1.1,6.3
		c-2.1,1.9-2.1,3.8,0,5.9C109.1,432.2,107.2,437.1,103.5,441.9z"/>
	<path fill="#E1AE53" d="M87.7,405c-8.7,7.4-22.1,1.9-30.1,11.1c-5.6-5.3-9.8-11.6-13.5-18.2c0.9-3.1-4.6-5.8-0.3-9.1
		c3.8-2.9,7.6-3.8,12-2c2.9,1.2,6,2,9.1,2.5c16.1,1,32.1,3,48.2,1.6c3.1,0.7,5.5,2.3,6.7,5.4c0,1.9-0.8,3.5-2.5,4.2
		c-8,3.2-16.7,3.7-24.6,7.2C90.9,408.5,88.9,406.8,87.7,405z"/>
	<path fill="#DDA15A" d="M7,298.1c-0.6,0-1.2,0-1.7,0c-3.1-2.9-1-6.9-2.1-10.2c0.2-1.9,0.3-3.7,0.5-5.6c3.5-0.6,6.9-1.1,10.4-1.7
		c20.2-8.9,41.9-8.9,63.2-10.6c3.5-0.3,7,0.9,9.2,4.1c0.8,5.3-3.2,6.4-6.9,7.1c-15.3,3.1-29.8,9.7-45.9,9.2
		C24.1,290.1,15.9,295.5,7,298.1z"/>
	<path fill="#E0AB54" d="M63.1,391c-1.9-0.4-3.9-0.5-5.8-1.2c-10.1-3.9-13.2-2-13.4,8.2c-9.7-14.2-18.3-28.9-23.5-45.3
		c3.7-0.7,7.4-1.3,11.1-2c1.6,4.8,3.9,8.9,9.5,9.8c0.8,0.1,1.8,0.6,2.2,1.2C49.6,371.7,57.3,380.7,63.1,391z"/>
	<path fill="#D17B64" d="M215.7,140.3c16.3,2.8,32.8,1.1,49.2,1.5c22.5,0.5,44.9-2.6,67.5-1.2c11.1,0.7,22.4-0.7,33.5,0.2
		c14.2,1.2,28.6-2.9,42.7,1.2c-4.9,7-12.4,2.9-17.7,2.5c-17.4-1-34.5,1.4-51.8,1.2c-16.6-0.2-33.3,1-49.8,0.7
		c-21.3-0.4-42.7,1.9-64.1-0.6c-6.9-0.8-14.2,2.9-21.4,3c-38.5,0.9-77.1,1.5-115.6,1.8c-21.3,0.2-42.6,3.2-63.9,1.6
		c1.2-3.8,2.7-7.4,5.3-10.5c18.8,0.4,37.6-0.6,56.4-1.4c16.3-0.7,32.8,1.4,49.2,0.7C161.8,140.2,188.7,140.4,215.7,140.3z"/>
	<path fill="#D78E5F" d="M231.5,198.1c0.7,1.7,1.8,2.8,3.5,3.5c-1.2,1.2-2.3,2.3-3.5,3.5c-6,4.5-13.1,2.6-19.5,2.6
		c-10.5,0.1-20.9-0.2-31.3,1.6c-23.8,2.2-47.6,4.7-71.5,3.2c-19.4,1.2-38.5-4.7-58-1.1c-11.8,2.2-23.8,1-35.7,2
		c-3.5,0.3-7.9,0.5-8.5-4.9c0.1-2.3,0.3-4.5,0.4-6.8c26.8-2.7,53.9-1.3,80.7-4.4c14.2-0.2,28.4-0.1,42.6-0.8
		c8.8-0.5,17.9-0.8,26.8,0.7c21.2,0.7,42.2-1.7,63.4-1.5C224.5,195.8,228.4,195,231.5,198.1z"/>
	<path fill="#D27E63" d="M350.7,152.5c-5.2,0.8-10.8-1.8-15.8,1.8c-7.1,4.4-15.3,3.6-22.9,3.7c-29.9,0.4-59.8,3.7-89.8,2.2
		c-30.8-0.7-61.8-0.9-92.4,1.7c-33.8,2.8-67.5,0.4-101.2,1.8c-2.6,0.1-7.3,2.8-7.9-3.2c0-2.4,0.7-4.5,2.3-6.3
		c8.3,4.2,17.8,3.8,26.1,2.8c22.8-2.9,45.5-2.6,68.3-2.9c19-0.3,38.1-2.3,57-1.4c23.2,1.1,46.2-1.2,69.5,0.2
		c12.5,0.8,25.9-2.8,38.4-1.6c13.9,1.4,27.5-2.5,41.3,0.3c3.4,0.7,7.2,0.4,11.1-0.4C339.9,150.3,345.6,149.2,350.7,152.5z"/>
	<path fill="#D58961" d="M345.4,182.4c-5,5.2-11.4,1.7-17.1,2.8c-3,0.6-6.2,0.5-9.2,0.7c-21.7,2.6-43.5,2.5-65.2,2.8
		c-33.2,0.4-66.2,5.1-99.4,3.7c-19.9-0.9-39.4,2.2-59.1,2.7c-21.9-3.2-43.7-0.7-65.5,0.9c-4.4,0.3-8.7,1-13.1,0.8
		c-2.7-0.1-6.2,0.5-6.3-4c0-2-0.5-4.2,1.4-5.7c37.5,1.1,74.8-4.7,112.4-3.9c23.7,0.5,47.4-2.1,71.1-3.1c4-0.2,8.2-0.8,11.6,2.4
		C253.1,185.6,299.3,181.3,345.4,182.4z"/>
	<path fill="#D58861" d="M206.9,182.4c-17.7-0.3-35.3,2.3-52.9,2.7c-14.1,0.3-28.2,2-42.3,0.9c-30.2-2.2-60,5.3-90.2,3.4
		c-3.3-0.2-7.1,1.2-9.7-2.4c0.4-2.3-0.1-4.8,1.8-6.7c0.5,0,1,0,1.5,0c6.6,1.5,13.1,1.7,19.8,0.3c6.3-1.3,12.8-0.9,19.2-0.5
		c28.9,2,57.5-1.4,86.2-3.1c19.4-1.1,39-0.3,58.4-1.3c11.5-0.6,23,2,34.5-0.3c9.6,2.9,18.9-1.3,28.3-1.6c4.4-0.2,8.8-0.5,12,3.4
		c-6.2,6.1-14.2,1.8-21.2,2.9c-9.9,1.6-20.5,1.3-30.7-0.9C216.5,178,211.5,179.7,206.9,182.4z"/>
	<path fill="#D9955E" d="M3.5,238.3c-0.1-4.1-0.1-8.2-0.2-12.3c0.2-1.7,0.3-3.4,0.5-5.1c1-0.5,1.9-0.3,2.8,0.4
		c4.3,3.8,9.3,2.7,14,1.4c8-2.1,16-3.1,24.2-2.6c17.5,1,34.7-3.5,52.2-1.8c4.3,0.4,8.8-0.2,12.8,2c2.5,2.1,6.1,3.4,5.9,7.6
		c-6.4,4.3-14,4-20.9,3.3c-22.7-2.4-44.8,2.9-67.1,4.5c-7.3,0.5-16.7-0.5-23.2,6.2C4.1,242.4,3.8,239.6,3.5,238.3z"/>
	<path fill="#D38162" d="M20.7,160.7c10.4,2.1,20.9-0.1,31.5,0.4c17.7,0.9,35.5,0.6,53.2,0.1c14.8-0.4,29.6-2.4,44.4-2.7
		c24.3-0.6,48.6-0.5,73-0.6c-2.7,6.4-8.9,4.8-13.8,5.7c-4.1,0.8-8.5-0.1-12.7,1.4c-15.6,2.6-31.4,0.5-47.1,1.7
		c-22.7,1.7-45.4-0.2-68.1,2c-15,1.5-30.2,1.4-45.3,2.1c-5,0.2-9.9,0.6-14.6,2.3c-2-0.2-4.5,0.1-3.9-3.2
		C17.5,166.4,18.8,163.4,20.7,160.7z"/>
	<path fill="#D48462" d="M17.3,169.7c0.7,1.6,2.1,2.1,3.7,2.1c9.6-3.6,19.5-1.4,29.3-2c26.3-1.6,52.8,0.5,79.1-2.7
		c16.7-2.1,33.6,0,50.4-0.5c3-0.1,5.7,1,7.7,3.4c0,0.6,0,1.2,0,1.8c-8.7,4.2-18.1,3.8-27.3,4.2c-42.7,1.9-85.5,2.4-128.2,5.8
		c-5.9,0.5-12.2,1.3-18-1.1c0,0-0.5-0.4-0.5-0.4C14.3,176.6,15,172.9,17.3,169.7z"/>
	<path fill="#D68B60" d="M10.4,192.7c5.8,4.6,12.3,1.1,18.1,0.6c19.8-1.7,39.6-2.4,59.5-2.1c2.2,0,4.4,1.1,6.6,1.7
		c0.6,0.6,0.9,1.3,0.8,2.2c-1.1,4.1-5.4,2.9-7.9,4.8c-16,1.1-32,2.3-48,3.3c-3.7,0.2-7.5,0.1-11.2-0.6c-4.4-0.9-8.4-1.8-12.4,1.2
		c-3.6,2.8-6.4,1-8.8-2C7.2,198.3,8.6,195.5,10.4,192.7z"/>
	<path fill="#D7905E" d="M5.3,220.9c-0.5,0-1,0-1.4,0c1.4-4.1,0.5-8.7,3.1-12.4c2.1,2.4,5.1,3.4,7.8,2.9c17-2.6,34.5-0.2,51.4-4.4
		c5-1.2,10.1,0.3,14.5,1.9c9.4,3.3,18.9-1.4,28.1,1.5c-0.9,5.6-6.3,3.3-9.2,5.3c-11.3,3.7-22.9,2-34.4,2.2
		c-14.8,0.2-29.5,0.8-43.9,4.5C15.8,223.8,10.3,224.1,5.3,220.9z"/>
	<path fill="#E5BF53" d="M303.3,469.9c-9.4,3.5-19.3,1-28.9,2.9c-2.8,0.5-5.7,0.1-7.9,2.4c-10.1,1.5-14.9-3.4-17.2-12.8
		c-1.1-4.5-3-9.1-7.8-11.9c-2.6-1.5-3.3-5.3-3.1-8.6c10.1-5.4,20.3-10.6,31.7-13.1c4.1-0.9,7-2.4,7.1-7.2c0.1-2.6,1-5.1,3.2-6.9
		c10.7-2.3,18.5,3.1,25.8,9.8c2.5,4.3,8.3,1.4,11.1,5c-0.4,5.4-4.4,5.3-8.3,5.3c-4.2,0-7.3,0.6-4.2,5.9c2.7,4.7,1,6.8-4.3,6.8
		c-7.2-0.1-6.9,3.2-3.7,8.2C299.6,460.2,302.4,464.7,303.3,469.9z"/>
	<path fill="#E5BC54" d="M280.5,415.6c0.8,11.5-4.6,15.3-16,16.8c-8.7,1.2-16.5,8.6-26.1,9.5c-3.5-1.8-7-3.5-10.5-5.3
		c-2.3-6.9-3.3-14.7-12.7-16c-0.2-0.9-0.1-1.7,0.5-2.4c2.5-2.5,5.6-4.1,9-5c4.9-0.8,9.5-4.5,14.9-1.9c1.5,2.1,3.9,1.4,5.8,2
		c-1.1-1.6-5.7,1.5-4.7-3.3c11.9-4.1,23.7-2.5,35.5,0.8C278.4,411.3,280,413.1,280.5,415.6z"/>
	<path fill="#050006" d="M144.3,261.5c-2.7-6.5-10.2-7.5-14.3-12.5c-0.8-1-2.4-1.4-3.6-2.2c-3.6-3.9-8.6-7.1-7-13.6
		c0.5-1.2,1-2.5,1.5-3.7c5.5-7.6,11.5-7.9,23-1.2c4.8,4.4,10.2,7.8,15.9,11c3.8,3.4,7.7,6.5,12.4,8.6c5.3,4.3,11.4,7.4,16.6,11.8
		c3.3,3.7,8.3,4.8,11.9,8c2.3,2.2,3.7,4.8,4.3,7.9c0.2,7-2.9,11.9-9.4,14.6c-2.4,0.3-4.7-0.7-7.1-0.3c-4.5,3.5-1.3,8.5-2.5,12.6
		c-1.6,6.4-3.2,12.8-5.5,19c-4.4,5.7-8.5,12-16.9,12.2c-1.8,0.1-3.6,0-5.4-0.3c-0.9-0.1-1.8-0.3-2.6-0.5
		c-10.2-1.2-12.4-10.6-17.3-17.1c-2.4-5.2-3.1-10.8-3.9-16.4c-0.1-4.8-0.1-9.6,0-14.4c0.1-2.9,0.7-5.6,1.6-8.3
		C138.4,271.4,139.5,265.4,144.3,261.5z"/>
	<path fill="#D9955F" d="M143.5,229.8c-3.9,1.5-4.6-3.3-7.9-3.7c-5.5-0.7-10.4-0.4-14.8,3.4c-1.3-1.9-3.3-1.5-5.2-1.5
		c-1.8-1.8-3.5-3.5-5.3-5.3c5.4-3.7,11.8-4.6,17.9-5.3c16.9-2.1,34-2.6,51.1-2.5c4.5,0.1,8.6-0.5,12.6-2.5
		c25.2-1.8,50.5-3.5,75.7-2.7c13,0.4,25.5-1.7,38.1-3.3c8.2-1.2,16.4-1.7,24.6-0.6c8.2,3.4,16.6,2.2,25,1.4
		c8.9-0.8,17.8-2.3,26.8-0.1c4.7,7.8,11.7,1.7,17.4,2.2c15.1,1.4,30.4-0.5,45.5,1.9c4.2,0.7,8.7-1.8,12.5,1.2
		c-1.2,1.6-2.9,1.7-4.7,1.8c-20.6,0.6-41.3,0.9-61.8,2.1c-7,0.4-13.9,4-21.1,1.4c-3.9,3.3-8.5,3.4-13.2,3.3
		c-14.8-0.2-29.5-1.1-44.4,1.3c-13.2,2.1-26.8,1.2-40.2,1c-11.2-0.2-22.1,1.4-33,2.6c-16.6,1.8-33.2,1.2-49.8,0.7
		c-9.6-0.3-18.9,2.9-28.5,3.4C155,230,149.3,232.2,143.5,229.8z"/>
	<path fill="#DDA05B" d="M144.3,261.5c-2,5.2-4.1,10.4-6.1,15.5c-1.7,0.7-3.5,0.6-5.3,0.6c-11.8-1.1-23.6-0.6-35.4-0.2
		c-4,0.1-8.2,1-11.5-2.2c-10.7-6.8-21.9-0.3-32.8-1c-13.4-0.8-25.8,5.4-39.1,6.2c3.7-7.1,11.7-6.1,17.5-8
		c17.9-5.8,36.6-8.1,55.4-9.6c10.9-0.9,21.8-2.7,32.7-3.1C127.8,259.6,136.1,260.9,144.3,261.5z"/>
	<path fill="#EDC857" d="M317.4,429.6c-4.1-1.3-9.6,3-12.3-3.4c5.2-1.8,10.4-2.2,15.6-0.5c-0.5,1.3-1.1,2.6-1.6,3.9
		C318.5,429.6,318,429.6,317.4,429.6z"/>
	<path fill="#581415" d="M320.7,425.7c-5.2,1.5-10.4,2.4-15.6,0.5c-7.1-5.9-14.8-10.8-24.6-10.6c-13-7.2-26.7-6.5-40.6-3.7l0,0
		c-5.5-0.3-10.3,2.7-15.6,3.5c-4.2-1.8-6.1,1.7-8.6,3.7c-0.2,0.5-0.4,1-0.5,1.5c-3,1.8-5.8,3.8-9,5.2c-6.6,2.9-12.4,2.5-15.6-5.2
		c-0.5-2.9-0.8-5.7,0.2-8.5c0.7-0.7,1.4-1.3,2-2c3.5-2.9,7-5.7,10.5-8.6c6.6-8.7,17.3-8.4,26.3-11.9c1.3-0.2,2.5-0.2,3.7,0.2
		c2.9,2.3,6.3,2.4,9.5,2c-1.9-0.1-4.2,0.4-6.4-0.6c-0.4-0.9-0.4-1.7,0.2-2.5c1.1-0.9,2.4-1.3,3.7-1.6c3.2-0.3,6.4-0.3,9.6,0.4
		c3.4,1.2,6.8,1.2,10.2,0c3.1-0.7,6.3-0.8,9.5-0.4c1.8,0.4,3.4,1,4.2,2.8c-0.5,1.6-1.4,2.3-3.1,1.2c0.8,1.4,2,0.6,2.9,0.2
		c1.4-0.5,2.5-1.5,3.9-1.9c15.2,1,27.7,8.8,40.8,15.4c5.3,3.2,6.8,8,6.1,13.8c0,2.8-2.2,4-4,5.6
		C320.5,424.8,320.6,425.3,320.7,425.7z"/>
	<path fill="#E5BE55" d="M322.9,420.8c0.9-5.8-0.4-10.7-5.4-14.3c2.9-2.9,3.3-9.5,7.5-9.3c7.4,0.4,15.3-2.1,22.3,1.7
		c3.9,2.1,8.1,3,12.2,4.3c16.8,3.8,33.7,1.8,50.6,0.6c13.6-1,26.1-5.3,38.8-9.3c1.2,1.8,2.3,3.5,3.5,5.3
		c-7.3,9.2-19.6,7.8-28.7,13.7c-4.9,3.2-12.4,2-17.7,1.3c-11.3-1.4-21.9,2-32.9,1.9c-7.2-0.1-16.1-0.3-23.5,3.4
		c-0.3,0.1-0.6,0.4-0.8,0.4c-8.8-3.2-16.9-1.7-24.3,3.9c-1.1-1.7,0.8-2.9,0.9-4.4c0.3-1.2-0.5-2.6,0.4-3.7c-1,1.3-0.1,3-0.8,4.4
		C324.2,421.3,323.6,421.4,322.9,420.8z"/>
	<path fill="#E6C153" d="M326.1,420.8c-0.6,1.2-1.2,2.3-1.8,3.5c-1.2,1.9-2.5,0-3.8,0.1c-1.5-2.6,2.2-1.9,2.3-3.6c0.5,0,1,0,1.6,0
		C325,420,325.6,420,326.1,420.8z"/>
	<path fill="#E1AC5A" d="M440.1,277c1.2,7.4,8.9,3.5,12.3,7c-8.5,2.4-18.5,1.5-24.2,10.6c-1.1,1.8-3,1.1-4.7,0.5
		c-2.6-0.9-4.7,0-5.7,2.5c-1,2.7,0.7,4.2,2.9,5.7c6.7,4.5,11.3,11.1,15.9,17.6c-4.5,1.5-7.9-1.4-11-3.5c-3.1-2.2-5.1-1-7.5,0.7
		c-11.7-3.4-23.3-4.1-35.2-0.6c-3.3,1-7,0.8-10-1.6c-2.2-5-1.4-9.3,2.8-12.8c2.1,0.5,3,1.4,1,3.2c2-0.8,1-2.3,0.6-3.4
		c-0.7-1.9-1.7-3.6-2.1-5.6c-0.7-3.3-0.6-6.7,0.1-10c1.5-3.7,0.2-8.4,4-11.3c2.4-1.3,5-1.5,7.6-1.5c11.3-0.1,22.7-0.2,34-1.4
		C427.5,272.3,434.3,272.9,440.1,277z"/>
	<path fill="#E0AC59" d="M419.1,317.4c0.3-1.9-0.1-4.8,1-5.6c2.4-1.6,2.7,2,4.3,2.8c4.1,2.1,8.1,4.2,12.1,6.3c1.7,3,4,5.3,7,7
		c0.6,0.6,1.1,1.2,1.4,2c0.4,1.6,0.2,3.2-0.4,4.8c-2.1,2.5-1.4,4.8,0.6,7c1.2,1.8,2,3.8,2.1,6c-1.5,13.8-9,23.2-21.3,29.1
		c-13.7,4.9-28,4.8-42.1,3.8c-8.9-0.7-15.5-7.5-22.1-13.1c-6.3-10-13.8-19.6-11.3-32.6c0.2-1.5,0.8-2.8,1.8-3.9
		c2.1-1.5,4.4-1.6,6.8-1.1c4.3,1.6,4,5.1,3.7,8.7c-1.7,21,15.7,35,35.7,34.7c9.1-0.1,17.6-1.6,25.6-6.7
		c13.9-8.8,16.9-25.5,6.1-38.2C426.6,324.4,421.8,321.9,419.1,317.4z"/>
	<path fill="#E1AF59" d="M426.1,375.2c10-6.9,18.2-15,19.3-28.1c2.8-6.2,2.4-12-1.8-17.5c0-0.6,0-1.2,0-1.8
		c-0.1-5.7,3.4-11.8-2.7-16.8c-1.7-1.3-1.2-5.5,1.3-5.8c7.9-0.9,13.3-7.2,20.7-9c0.8,3.6,1.5,6.8-4,7.2c-5.5,0.4-6.9,3.3-6.8,9.3
		c0.3,13.2,2.4,26.4,0.3,39.6c-0.2,8-3.2,14.7-10.5,18.5c-5.3,2.8-8.6,10-16.3,7.8C425,377.5,425.1,376.3,426.1,375.2z"/>
	<path fill="#E4B855" d="M229.7,391c-8.5,4.1-18.2,5.3-26.3,10.5c5.5-12.3,5.5-12.2-8.6-12.9c-2.4-0.1-4.8-1.9-7.2-2.9
		c-0.2-4.5,5-5.1,6.3-8.5c1.1-1.4,2.3-3.2,4-3.2c14.1,0,25.5-9.4,39.2-11.1c19.1-2.4,37-10.1,56-12.9c6.2-0.9,12.6,0.1,18.9-1.7
		c3.4-1,6.7,1.5,9,4.4c7.8,9.6,18,16.4,27,24.7c4.5,4.2,10.6,4.5,15,8.3c5.4,10,16.4,7,24.5,10.5c-2.3,2.7-5.6,2.3-8.1,1.6
		c-12-3.7-25-4.8-35.8-12.1c-7.9,1.2-13.6-4.4-20.2-7.1c-12.5-5-25.1-5-37.5-1.1c-7.3,2.3-15.3,1.7-22.1,4.9
		c-8.9,4.1-18.2,5.4-27.7,5.7C234.2,389.7,231.3,388.8,229.7,391z"/>
	<path fill="#E5BB55" d="M235,387.5c0.2-0.2,0.4-0.6,0.6-0.6c15.1,0.5,28.1-8.2,43-9.8c8.8-0.9,17.5-3.3,26.7-4.2
		c15.3-1.4,25.8,8.3,38.4,12.8c-1.5,8.6,0.2,10.2,10.5,10.5c4.7,0.1,10.8-0.8,5.3,7c-1.3,0.5-3.2,1.9-4,1.4
		c-8.6-5.5-18.3-4.8-27.8-5.8c-2-0.2-5.3-1.1-4.2,1.6c3.1,7.9-4.3,3.9-6.1,6.1c-13.1-6.2-25.7-13.6-40.5-15.4
		c-1.1,0.8-2.2,0.9-3.2-0.3c-1.3-0.6-2.6-1.2-3.9-1.8c-9.9-0.9-19.8-0.8-29.7,0c-1.1,0.2-2.3,0.4-3.4,0.6
		C235.8,389.3,235.2,388.6,235,387.5z"/>
	<path fill="#E2B258" d="M426.1,378.7c11.5-6,22.1-13,26.3-26.3c10-3.7,4.9-11.9,4.6-17.9c-0.6-9.1,1.7-13.4,11.2-15.5
		c-6.3,20.1-7.9,42.2-24.5,57.9c-17,9.3-34.4,16.5-54.4,12.4c-2.2-0.5-4.6-0.1-6.9-0.1c-23.5-4-39.7-17.3-49.1-39.1
		c-0.5-5.2,0.6-10,2.6-14.7c5.1-2.1,5.5,2.1,6.5,5.1c1.9,6,4.6,11.6,7.6,17.1c4.4,5.5,9.1,10.6,14.9,14.6
		c17.7,11.7,36.6,11.8,56.2,6.4C422.7,378.1,424.4,377.7,426.1,378.7z"/>
	<path fill="#E0A85B" d="M440.1,277c-20.5-2.5-40.9,1.2-61.4,0c-1.8,0.5-0.5,6.7-4.8,2.6c-1.1-2.6-2.8-5.2-0.5-8
		c0-2.7,0.1-6.1,3.3-6.3c9.1-0.6,17.8-4.1,27.3-3.1c12.8,1.3,25.8,0.8,38.7-0.2c11.7-1,23.5-0.6,35.2-0.7c10.8-0.1,21.5,0,32.3,0
		c1.5,6.6-1,10-8,10c-8.9,0-17.7,0.3-26.6-0.2c-10.2-0.6-20.8,0.3-31.2,1C441.8,272.2,441.2,275,440.1,277z"/>
	<path fill="#E4B556" d="M334.9,350.7c7.7,11.5,14.8,23.4,27.6,30.6c6.4,3.5,14.2,2.8,19.7,8c-3.1,2.3-5.9,0.8-8.7-0.8
		c-3.3-1.9-6.7-3.1-10.6-2.7c-7,0.8-12.4-2.3-17.2-7.1c-8.4-8.2-19.2-13.9-25.7-24.1c-1.9-3-5.5-5.3-8-4.3
		c-5.9,2.3-12,0.9-17.7,1.8c-22.1,3.7-43.2,11.8-65.6,14.7c-4.7,0.6-10.2,3.2-13.2,5.6c-6.6,5.3-15.3,0.6-21,6.4
		c-2.7-8.9,5.3-22.7,13.9-24.6c13.4-3,27.2-4.7,39.2-12.4c5-4.6,11.7-2.1,17.5-4c15.3-5.1,31-6.9,47.2-4.4
		C323.1,335.1,330,341.5,334.9,350.7z"/>
	<path fill="#D38263" d="M187.6,170.1c-22.3-1.2-44.6-3.4-66.9,0.9c-5.8,1.1-12,0.8-17.9,0.9c-27.2,0.1-54.5,0-81.7,0
		c2.2-2.7,5.2-3.4,8.6-3.5c35-0.9,70-4.2,105.1-3.7c20.6,0.3,41.1-1,61.7-1.6c21-1.6,41.9-4.3,63-2.6c3.1,0.2,6.5,0,8.9,2.6
		c-7.3,6.4-16.7,4.4-24.8,4.8C224.9,168.8,206.2,168.9,187.6,170.1z"/>
	<path fill="#D48662" d="M14.2,180.7c57.8-4.1,115.6-6.1,173.5-8.8c15.4-1.1,30.4,2.9,45.6,3.5c-9.6,4.1-20,2-29.9,3
		c-16.3,1.6-33,1.8-49.3,1.4c-21.2-0.6-42,2.5-63,3.2c-15.3,0.5-30.4-0.8-45.7-0.7c-7.1,0.1-13.8,2.3-20.8,2
		C20.6,184,16.9,184,14.2,180.7z"/>
	<path fill="#D38163" d="M268.3,163.1c-24-1.7-47.9,0.3-71.9,0c7.1-3.7,15.3-0.4,22.5-3.5c1.3-0.6,2.5-1.2,3.8-1.7
		c17.7,0,35.7,1.6,53.2-0.4c19.7-2.3,39.4-0.9,59.1-3.1c13.5,0.7,27.3-2.2,40.3,3.5c-8.7,3.6-18.2,2.2-27.1,2.9
		c-21.1,1.6-42.3,0.8-63.5,0.7c-5,0-9.9,0.3-14.6,1.7l-0.9,0L268.3,163.1z"/>
	<path fill="#050006" d="M373.5,271.6c0.7,3,1.3,5.9,2,8.9c2.5,2,3.3,4.3,1.3,7.1c0,3.4,0,6.9,0,10.3c1.4,1.7,1.5,3.3-0.1,5
		c-2,4-3.9,8-3.3,12.7c-1.7,10.1-4.8,13.4-14.7,15.5c-2.1,0.3-4.3,0.7-6.4,1c-2,1.2-4.1,1.5-6.3,1.1c-0.8-0.2-1.6-0.5-2.4-0.8
		c-3.6-2.7-6.6-6.2-9.9-9.3c-2.1-2.3-3-5.1-3.9-8c-3-8.9-5.3-17.9-3.7-27.4c0-0.9,0.8-1.7,0.3-2.6c-0.1-0.1-0.8,0.4-1.2,0.8
		c-1.4,1.3-2.9,2.5-4.5,3.5c-5.8,3.4-10.8,1.4-15.6-2.2c-1.4-1.1-2.4-2.4-3.1-4c-0.8-2.3-1.6-4.6-0.3-7c1-1.7,1.5-3.5,2.1-5.4
		c1.4-3.6,4.6-5.5,7.5-7.5c6.3-4.8,14.3-7,19.5-13.5c4.8-2.3,8.6-6,12.9-9c6.1-1.7,11.2-4.9,15.6-9.4c5.5-7.1,13.3-6.3,20.9-6.1
		c1.3,0.4,2.5,0.7,3.8,1.1c1.8,0.3,2.7,1.6,3.4,3.1c0.8,1.8,1.1,3.7,1,5.7c0.1,3.2-1.2,5.8-3.1,8.3c-1.4,1.6-3.3,2.7-5,4.1
		c-0.6,0.4-1.3,0.6-2,0.7c-2.5-0.7-3.3,1.9-5.2,2.5c-7.9,2.5-10.2,6.7-3.8,13.5C371.2,266.3,372.1,269.2,373.5,271.6z"/>
	<path fill="#DDA05D" d="M383.7,242.8c1.3-2.6,2.5-5.3,3.8-7.9c0.6-0.7,1.1-0.7,1.7,0c-0.7,5.4,1.6,7.8,7,7
		c17.3-1.3,34.5-3.7,51.9-2.6c16.9,1.1,33.6-2,50.5-1.7c4.3,0.1,8.9-0.5,11.6,4.3c0,2.3,0,4.6,0,7.2c-2.3-0.9-2.6-3.6-5.6-3.4
		c-24,1.3-48,1.5-71.9,3.6c-10.6,0.9-21.4,0.5-32,2.8c-7.6,1.6-15.5,0.5-22.4-3.8c-0.2-0.5-0.1-0.8,0.4-1.1
		C381,246.4,383,245.4,383.7,242.8z"/>
	<path fill="#DD9F5E" d="M510.2,241.9c-9-3.5-18.6-2.7-27.5-1.3c-15.1,2.4-30,0.5-45,1.2c-13.8,0.6-27.6,0.1-41.4,0.1
		c14.5-2.6,29-4.6,43.7-5.9c13-1.2,25.7,1.5,38.7-0.5c10.3-1.6,20.9-0.5,31.4-0.6C510.1,237.3,510.1,239.6,510.2,241.9z"/>
	<path fill="#DA985E" d="M380.1,225.3c-7.9,0-14.8,2.7-20.5,8.2c-1.9-0.1-3.9-0.1-5.7-0.8c-12.2-0.4-24.3-0.7-36.5,0.4
		c-27.8,2.5-55.8,2.8-83.8,3c-16.6,0.2-33,3.7-49.7,3.5c-8.1-0.1-16.4-0.8-24.4,1.1c-6.7-1.6-12-5.1-15.9-10.8
		c8.3-1.2,16.6-2.2,24.8-3.6c26.3-4.7,53.1,1,79.3-3.5c21.1-3.7,42.4-0.7,63.4-2.8c11.1-1.2,22.1-1.3,33.1-1.9
		c8.6-0.5,17.2,1.9,25.7-0.4C368.7,226,375.8,223.8,380.1,225.3z"/>
	<path fill="#DB9B5E" d="M389.2,234.9c-0.6,0-1.1,0-1.7,0c-0.6-1.8-1.1-3.5-1.7-5.3c3.1-4.7,7.5-4.6,12.2-3.5
		c15-2.6,30.3-1.4,45.3-2c13.4-0.6,27.3-3,41.2-0.2c7.7,1.6,16,0.4,24,0.5c0,1.2,0,2.3,0,3.5c-5.9,3.6-12.6,2.2-18.6,1.2
		c-4.9-0.8-9.1,0.1-13.5,1c-5.9,1.2-11.4,2.1-17.7,1.9C435.6,231,412.3,231.4,389.2,234.9z"/>
	<path fill="#DA985E" d="M398,226.2c-4.1,1.2-8.1,2.3-12.2,3.5c-0.6-1.1-1.2-2.2-1.9-3.3C387.1,217.2,389,217.1,398,226.2z"/>
	<path fill="#D8925F" d="M306.8,208.7c-28.1,5.8-56.6,1.8-84.8,4.2c-10.3,0.9-20.6,1.1-30.9,1c-6.1,3-12.6,1-18.8,1.4
		c-17.9,1.1-35.8,1.5-53.6,3.6c-6.2,0.7-13.5,0.2-18.8-5c2.1-3.3,6.7-0.2,8.8-3.5c24,0.6,48-1.2,71.9-3.5c9.3,2.1,18.7,0.2,28,0.1
		c12.9-0.1,25.7,1,38.6-0.1c2.3,0,4.7,0,7,0c1.8-1.1,3.5,0.4,5.3,0c1.2,0,2.3,0,3.5,0c13.5-2.2,27.1-1.6,40.6-1.5
		C305.4,205.4,307,206.3,306.8,208.7z"/>
	<path fill="#D89260" d="M382.2,206.9c-14.9,2.2-29.9,3.5-44.9,3.5c-3,0-5.7-1.1-7.7-3.5c2.9-3,6.3-4.4,10.5-3.5
		c30.8-5.1,61.8-0.1,92.6-1.7c2.5-0.1,5.3-0.8,7.3,1.7c-6.3,3.7-12.9,1-19.3,0.9C407.8,203.9,395.2,208,382.2,206.9z"/>
	<path fill="#D8915F" d="M340.2,203.4c-3.5,1.2-7,2.3-10.5,3.5c-7.6-0.1-15.3,0-22.8,1.8c-7.1-3.9-14.7-0.6-22-1.6
		c-7.2-0.9-14.5-0.2-21.8-0.2c6.1-6.8,14.3-2.2,21.2-3c18.1-2,36.5,0.6,54.6-1.6C339.3,202.3,339.7,203,340.2,203.4z"/>
	<path fill="#D8915F" d="M247.2,206.9c-9.5,3.4-19.4,2.1-29,2c-9.5-0.1-18.8,1-28.2,1.2c-3.8,0.1-6.9-0.4-9.4-3.2
		c16.9-3.2,33.9-0.8,50.8-1.8C236.7,205.6,241.8,207.8,247.2,206.9z"/>
	<path fill="#D8915F" d="M259.5,206.9c-1.8,2.8-3.5,0.5-5.3,0C256,204.7,257.8,204.7,259.5,206.9z"/>
	<path fill="#D68C61" d="M94.7,194.6c0-0.6,0-1.2,0-1.8c15.3,0.2,30.3-3.8,45.8-3.1c17.3,0.8,34.7,0,52.1-0.5
		c8.6-0.2,16.9,0.4,25.6-2.7c7.4-2.6,16.4-0.7,24.8-0.7c25.4,0,50.7,0,76.1,0c-6.8,5.8-15.4-0.1-22.6,3.5
		c-1.2,0.6-2.5,1.2-3.7,1.8c-7.4,4.4-15.9,3.3-23.8,3.5c-22.4,0.5-44.7,1.8-67.1,1.9c-6.5,1.2-13-2.3-19.5-0.3
		c-0.9,0.1-1.7,0.2-2.6,0.4c-4.4,0.5-8.9,0-13.3,1c-0.9,0.1-1.9,0.1-2.8-0.1c-19.7-0.8-39.5-1.9-59.2,0.4
		C101.1,198.4,96.8,199.3,94.7,194.6z"/>
	<path fill="#D78E61" d="M164.8,196.4c0.6,0,1.2,0,1.8,0c4.5-2.3,9.6,0.7,14-1.8c0.6,0,1.2,0,1.8,0c5.8-0.3,11.7,2.2,17.5,0
		c20-0.9,40-2.4,60-2.3c11,0.1,21.9-2.5,32.9-1.2c11.2-0.6,22.3,0.3,33.5-1.3c8.4-1.3,17.4,0.8,26.1,1.3
		c-5.8,3.1-11.6,3.5-18.2,2.7c-8.2-0.9-16.8-0.4-24.9,1c-25.9,4.6-51.9,2.8-77.9,3.3c-25.1,0.6-50.3,1.2-75.4,1.8
		C157.2,194.2,161.7,197,164.8,196.4z"/>
	<path fill="#D78E61" d="M364.7,191.1c-2.9,3.1-5.8-1.2-8.8,0C358.9,187.8,361.8,189.9,364.7,191.1z"/>
	<path fill="#E4B852" d="M190.8,412.1c-0.1,2.8-0.1,5.7-0.2,8.5C188.8,417.8,188.6,414.9,190.8,412.1z"/>
	<path fill="#E3B455" d="M249,343.7c-5.7,5.1-13.2,7-19.9,8.3c-7.6,1.5-14.9,5.5-23,4.3c-0.9-0.1-2.8,0.7-2.9,1.3
		c-1.5,7.6-8.8,12.9-8.5,21.2c-0.1,4.6-5.4,4-7,7c-1.2,0.6-2.3,1.2-3.5,1.8c-5.8,2.4-10.8,8.7-18.1,3.8c0-8.5,7.2-12,12.1-16.9
		c4.1-4.1,7.5-7.9,8.6-13.6C203.6,341.1,225.3,338.8,249,343.7z"/>
	<path fill="#E3B453" d="M166.6,391c6.5,2.1,11.3-4.3,17.5-3.5c-7.1,10-17.3,15.9-28.1,21c-8.4,1.3-17.4,1-24.3,7.4
		c-1.7,1.6-3.6,1-5.7,0.5c-7.8-2.1-13.8,2.9-20.2,5.9c-3.1,1.5-1.1,2.7,0.4,4.4c4.7,5.3,3.5,10.7-2.9,15.1
		c1.3-5.3,3.7-10.6-1.8-15.1c-2-1.6-1.4-3.6,0.3-5.2c1.9-1.7,3.1-3.4,1.5-6c6.1-6.5,14.8-7.5,22.5-10.6
		c9.7-3.8,19.7-6.7,28.6-12.4C158.1,390.4,162.1,387.9,166.6,391z"/>
	<path fill="#E0AB55" d="M63.1,391c-7.5-7.6-15-15.2-18.5-25.7c-0.8-2.5-4-3.6-6.5-3.8c-7.2-0.7-8.7-4.5-6.5-10.8
		c7.5-1.2,12.2,4,14.5,9.1c5.1,11.3,14,17.2,25,20.6c11.1,3.4,21.9,9.3,34.2,5.4c6.3-3.2,12.8-4,19.5-1.5c0,7.4-6.7,6.3-10.7,8.5
		c-14.7,3.8-29.4-1.4-44.2-0.1C67.6,392.8,65.3,391.6,63.1,391z"/>
	<path fill="#DFA858" d="M124.5,385.8c-6.4,0-12.9,0-19.3,0c0-1.2,0-2.3,0-3.5c5.3-3.3,11.4-2.4,17.2-2.9c5-0.4,9.7-1.3,12.6-5.9
		c2.9-6.5,9.5-10,12.6-16.5c2.8-5.9,5.3-11.4,3.6-18.2c-0.7-2.8-2.5-8.3,4.5-6.7c0.7,0,1.4,0,2.1,0c1,0.7,2,1.5,3.2,2
		c5.8,1.8,7.7,5.3,5.4,11.3c-3,8-2.4,17.4-9.5,23.9c-7.1,6.5-14.6,12.2-23.3,16.3C130.9,386.9,127.5,388.1,124.5,385.8z"/>
	<path fill="#DEA35A" d="M155.7,332.1c-4.1,0.2-3.5,3.1-2.9,5.5c4.1,17-6,26.8-17.7,35.8c-8.8-0.8-16.8,3.7-25.7,3.8
		c-18.7,0.4-32.4-7.6-42.4-22.4c-3.9-5.8,0.1-12.8,0.6-19.2c0.3-4.4,2.9-8.7,4.4-13.1c1-4.2,3.6-6.8,7.5-8.8
		c5.9-3,12.8-7.1,18.2-7.2c8.7-0.3,18.4-1.4,26.9,3c4.4,2.3,8.6,4.8,13.7,5.1c0.9,0,1.7,0.3,2.5,0.7
		C144.7,321.9,148.2,328.8,155.7,332.1z"/>
	<path fill="#DFA559" d="M138.5,315.6c-5.8,3.8-10.2-1.1-14-3.4c-4.2-2.6-7.4-3.7-11.9-2c-1.5,0.6-3.5,0.3-5.2-0.1
		c-14.6-3.4-25,4.6-35.6,12.5c-1.4-4.8-3.2-9.3,4.2-11.3c3-0.8,4.5-4.3,0.1-6.1c-6-2.5-4.5-6.4-2.5-10.6c2.8-5.9,8.4-5.5,13.5-6
		c13.2-1.2,26.3-3.3,39.3-5.9c2.6-0.5,5.2-0.7,7.4,1.2c2.4,5.5,0.2,11.4,1.5,17C136.5,305.8,137.1,310.8,138.5,315.6z"/>
	<path fill="#DEA45A" d="M133.3,284.1c-9,3.2-18.8,2-27.9,5.6c-5.5,2.2-12.3,1.4-18.5,1.3c-4.9-0.1-9.1,1.3-13.2,3.6
		c-9.1-6-19.5-5.6-28.1-1.3c-12.7,6.5-25.6,4.3-38.6,4.8c8.9-8,19.8-10.8,31.3-10.4c13.4,0.5,25-6,37.7-8.4c3.5-0.7,8,0.7,9.9-4
		c16.4,0.1,32.7-1.6,49.1,0c1.9,2.6,0.6,5.5,0.6,8.3C135,284.5,134.2,284.7,133.3,284.1z"/>
	<path fill="#E2B254" d="M166.6,391c-12.1,1.5-20.8,10.7-32.4,13.8c-10.5,2.8-20.5,7.1-30.8,10.8c-3.2-4.5-8.3-2-12.4-3.3
		c-4.5-1.4-5.6-3.2-3.3-7.2c8.2,2.7,13.9-5.2,21.7-4.9c3.3,0.1,7.9,0.8,9.8-3.9c9.3-7.6,21.7-8,31.9-13.5c4.9-1.4,10-2.4,12-8.2
		c1.9-4.4,6.3-6.3,9.5-9.4c4.5-3.3,8.1-9.7,15-4c0.8,6-1.5,9.9-6.7,13.5C175,378.8,170.3,384.7,166.6,391z"/>
	<path fill="#E1AD57" d="M152.5,384c-10.4,6-22.1,8.6-33.3,12.3c-1.8-1.2-3.5-2.3-5.3-3.5c1.9-4.7,7.5-3.9,10.5-7
		c14.5-2.6,25.1-11.6,34.1-22.2c5.4-6.4,3.7-15.9,6.9-23.7c1.6-3.8-6-1.8-7.7-5.1c1.4-1.6,3.6-1.7,5.3-2.8
		c6.8-1.5,11.5-6,15.7-11.2c6,3.7,6.9,6.8,2.7,12.1c-3,3.9-5.8,7.4-3.3,12.6c-1.8,9.2-5.6,17.5-11.3,24.8c-2.1,2.7-4.2,5.5-6,8.5
		C158.8,381.5,155.2,382,152.5,384z"/>
	<path fill="#D68C60" d="M164.8,196.4c-2.5,2.2-6.5,0.7-8.8,3.5c-8.3-2.7-17.2-1.6-25.2-1c-14.5,1.2-28.8,0.2-43.2,1
		c2.3-1.8,4.7-3.5,7-5.3c11.5,3.6,22.9-1.2,34.4-0.6c3.7,0.2,8.3-0.9,11.7,0.4C148.7,197.6,157.1,193.1,164.8,196.4z"/>
	<path fill="#D8925F" d="M99.9,213.9c25,6.2,50-0.2,75-0.6c5.5-0.1,10.8,1.8,16.2,0.6c-2.5,4.6-7.1,3.4-10.7,3.3
		c-18-0.5-35.9,0.4-53.7,2.4c-5.3,0.6-10.6,2.8-16.2,3c-11-3.1-22.3-2.3-33.5-1.8c-8.1,0.4-16.1,2-24.3,1.8
		c-11.3-0.2-22.5-0.3-33.8,2.8c-3.9,1.1-12.1,5.4-13.7-4.6c23.4-0.8,46.3-7.7,70-5.7C83.4,215.9,91.8,215.8,99.9,213.9z"/>
	<path fill="#561416" d="M215.8,419.1c1.3-4.7,3.3-5.5,8.6-3.7C221.5,416.6,218.6,417.9,215.8,419.1z"/>
	<path fill="#F5CE5C" d="M240,411.9c2.4,0.2,4.9,0.4,8.2,0.6C244.6,414.4,242.1,414.3,240,411.9C239.9,411.9,240,411.9,240,411.9z
		"/>
	<path fill="#E2AE59" d="M177.1,345.4c-6.3-4.5-2.1-9.3,1-11.9c5.5-4.6,5.1-8.2,0.7-12.7c1.8-6.4,3.5-12.8,5.3-19.2
		c2.2-4-0.1-8.4,1.4-12.5c2.2-1.1,4.4-1.5,6,0.9c-0.6,3.8-2,7.6-1.6,11.6c0.5,6.6,5.6,9.6,12.6,6.1c10.8-5.4,22.1-5.6,33.8-6.4
		c11.5-0.8,23-3,34.6-4.4c12.7-1.5,25.5-1.7,37-6.2c1.8,0.8,1.4-0.3,1.2-0.2c-3.7,0.3-5.8-0.8-3.9-5c5,1.6,9.7,5.9,15.4,1.7
		c5-1.4,6.5,0.5,6.6,5.6c0.2,15.1-1.6,16-16.6,16.3c-9.8,0.2-20.2-0.7-29.5,4.2c-13,1.2-26.2,0.6-38.9,4.8
		c-10.8,3.6-22.6,2.5-33,7.5c-1.3,0.6-2.8,1-4.3,0.8c-8.6-1.2-13.6,3.7-17.6,10.3C184.8,340.9,182.8,345.4,177.1,345.4z"/>
	<path fill="#DEA15C" d="M331.8,250.9c-4.1,8-13.1,9.2-19.5,13.9c-7.3,1.3-13.8-3.9-21.3-2.3c-25.6,5.7-52,1.4-77.9,5.2
		c-4.4,0.6-9,3-13.7,0.6c-4.1-2.2-9.3-2.6-12-7.2c3.2-6.8,9.8-8.5,16-9c17.1-1.4,34.2-5.3,51.1-4.2c20.5,1.3,40.5-1.7,60.8-2.5
		C321.3,245.4,327.9,244.5,331.8,250.9z"/>
	<path fill="#DB9B5D" d="M159.4,240.6c1.7-4.2,5.3-4,8.8-3.9c35.1,1.3,69.9-3.9,105-4.3c18.3-0.2,37.1,1.2,55.8-3.2
		c7.8-1.9,18.2-1.6,27,2.2c0.1,5.4-3.8,6.1-7.7,5.9c-9.6-0.5-19.3-1.1-28.7,0.2c-22.2,3.1-44.5,3.2-66.8,3.6
		c-6.5,0.1-12.3,4.9-19.1,4.9c-7,2.5-14.3,0.9-21.5,1.2c-13.5,0.5-26.9,3.3-40.5,2.1C166.4,248,162.3,245.2,159.4,240.6z"/>
	<path fill="#DFA55C" d="M199.5,268.4c5.9-2.5,12.1-3,18.4-3.1c18.1-0.1,36.1-5.6,54.4-0.9c5.9,1.5,10.5-3.9,17-4.2
		c8.6-0.4,15.7,1.2,23,4.6c-2,2.8-6,3.4-7.5,6.8c-1.1,1-2.3,1.8-3.9,2.1c-30.5,3.8-61.4,3.3-91.7,8c-4.3,0-3.3-4.9-5.9-6.6
		C202.1,273,200.8,270.7,199.5,268.4z"/>
	<path fill="#DC9E5C" d="M171.7,249.3c9.2-3.8,19-2.6,28.5-3.7c10.9-1.3,22-1.3,33-1.9c4.9,0.9,9.8,1.3,14.2-2
		c2.5-1.9,5.6-1.9,8.4-1.1c15.3,4.3,30.7,2.4,46,0.3c9-1.2,18-1.5,27-2.6c5.4-0.7,11.1-0.2,15.6,3.9c-3.7,3.6-6.6,8.2-12.5,8.6
		c-12.5-6.6-25.4-1.3-38-1.3c-12,0-23.7,3.5-36,0.6c-6.5-1.5-14.2-1.1-20.5,1c-8.5,2.8-16.9,1.9-25.3,2.2
		c-8.9,0.3-17.1,2.7-24.4,7.7C182.7,256.7,175.5,255.3,171.7,249.3z"/>
	<path fill="#E0A959" d="M203.4,275.3c6.5-1.8,2.3,3.5,3.5,5.3c1,2.5,0.1,4.2-2.7,5.8c22.9-3.1,45.3-3.5,67.7-4.8
		c2.6-0.2,5.3-0.4,7.9,0.2c8.4,2.1,15.5,0.3,20.9-6.9c1.5-0.1,2.8,0,2.6,2.1c-0.7,1.9,1.7,3.6,0.3,5.5c-2.1,7.1-6.3,10-15.9,9.1
		c-7.6-0.7-15.4-1.3-22.5,0.6c-15.4,4.1-31.7,1.2-47,7.3c-7.6,3-16.7,0.7-24.5,4.8c-2.2,1.2-4.3-0.9-6-2.6c1-3.6-2.6-8.8,3.5-10.7
		c1-1.1,2.3-1.7,3.7-2.1C200.3,285.9,203.7,281.8,203.4,275.3z"/>
	<path fill="#EFB15D" d="M133.3,284.1c0.6,0,1.2,0,1.7,0c0.6-0.8,1.2-0.8,1.7,0c0,5.3,0,10.5-0.1,15.8c-0.4,0.7-0.9,1.3-1.7,1.8
		C131.4,296.1,134,289.9,133.3,284.1z"/>
	<path fill="#EBAF5E" d="M135,301.6c0.6-0.6,1.1-1.2,1.7-1.8c2,5,0.9,10.8,4,15.6c-0.7,0.1-1.5,0.2-2.2,0.2
		C135.1,311.5,134.9,306.6,135,301.6z"/>
	<path fill="#716252" d="M186.1,289.3c-0.7,4.1,0.7,8.6-2,12.4c0-4.3,0-8.5,0.1-12.8c0.1-3,1.4-3.5,3.7-1.6
		C187.8,288.4,186.6,288.5,186.1,289.3z"/>
	<path fill="#B2A18D" d="M186.1,289.3c0.6-0.7,1.2-1.3,1.8-2c2.1,1.6,5-0.6,7,1.5c-0.7,1.6-2,2.2-3.7,2.1
		C189.9,289,187.9,289.3,186.1,289.3z"/>
	<path fill="#EDB165" d="M136.7,284.1c-0.6,0-1.1,0-1.7,0c0-2.9,0-5.8,0-8.8c1.1,0.6,2.1,1.2,3.2,1.7
		C137.7,279.4,137.2,281.7,136.7,284.1z"/>
	<path fill="#D5B180" d="M163.2,332.1c-0.6,3.1-3,2.9-5.3,2.8c0-0.9-0.1-1.8-0.1-2.7C159.6,332.1,161.4,332.1,163.2,332.1z"/>
	<path fill="#E4B855" d="M240.3,389c9.9-2.5,19.8-2.6,29.7,0c-3.5,0-7,0.1-10.4,0.1c-3,1.4-5.9,1.6-8.9-0.1
		C247.2,389.1,243.7,389.1,240.3,389z"/>
	<path fill="#ECC35A" d="M235,387.5c0.6,0.7,1.3,1.4,1.9,2.1c-0.1,0.5-0.2,0.9-0.3,1.4c-1,1.1-2.1,1-3.3,0.3
		c-1.2-0.1-2.4-0.2-3.6-0.3C229.9,387.5,232.4,387.5,235,387.5z"/>
	<path fill="#4E0811" d="M233.3,391.3c1.1-0.1,2.2-0.2,3.3-0.3c2.3,0.5,4.9-0.8,7.8,1.5C240.2,392.6,236.6,393.9,233.3,391.3z"/>
	<path fill="#4C0910" d="M250.7,389.1c3-0.7,5.9-0.7,8.9,0.1C256.5,391.9,253.6,391.9,250.7,389.1z"/>
	<path fill="#4E0811" d="M273.8,390.9c1.1,0.1,2.1,0.2,3.2,0.3c-2.2,2.2-4.6,1.9-8.4,0.5C271.1,391.3,272.5,391.1,273.8,390.9z"/>
	<path fill="#F4CF5A" d="M326.1,420.8c-0.6,0-1.1,0-1.7,0c0-2.3,0-4.5,0-6.8c0.5,0,0.9,0,1.4-0.1
		C325.9,416.2,326,418.5,326.1,420.8z"/>
	<path fill="#DFA85B" d="M358.8,331.1c7.6-2.6,10-10.1,14.7-15.5c7.5,1.9,14.5-1.9,21.7-2.8c8.9-1.1,16.3,1,23.9,4.5
		c20.7,8.7,26.4,34.2,11.5,47.1c-17.2,15-42.4,15.7-60.3,0.9c-7.8-6.4-11.7-16.5-9.8-27.4C361,335.3,361.7,332.8,358.8,331.1z"/>
	<path fill="#F0B761" d="M376.8,287.7c-0.4-2.4-0.9-4.8-1.3-7.1c2.2-0.1,0.1-4.2,3.2-3.5C378.1,280.6,380.3,284.6,376.8,287.7z"/>
	<path fill="#F0BB68" d="M376.8,302.9c0-1.7,0-3.3,0.1-5c2.9,2.6,1.9,5.7,0.5,8.9C377.1,305.6,376.9,304.2,376.8,302.9z"/>
	<path fill="#E1AF59" d="M426.1,378.7c-21.9,9-43,8-63.1-5.3c-1.5-2.3-2.2-4.7,0-7c12.7,11.3,27.2,14.2,44,11.6
		c6.3-1,12.7-2.2,19.1-2.9C426.1,376.4,426.1,377.6,426.1,378.7z"/>
	<path fill="#E1AF59" d="M363,366.5c0,2.3,0,4.7,0,7c-5.4-4-10.1-8.6-14-14c-1.6-5.1-4.2-9.9-5.5-15.2c-0.8-3.4-0.6-6.8,1.6-9.8
		c2.5-1.7,5-1.4,7.4,0.4C349.8,347.5,358.6,356.2,363,366.5z"/>
	<path fill="#E2AE5A" d="M443.6,329.6c8.3,7,8.4,8,1.8,17.5c-0.6-1.8-1.2-3.5-1.8-5.3c-2-2.3-0.6-4.7,0-7
		C443.6,333.2,443.6,331.4,443.6,329.6z"/>
	<path fill="#E1AC5A" d="M443.6,334.9c3.2,2.3-0.6,4.7,0,7C440.1,339.6,437.8,337.2,443.6,334.9z"/>
	<path fill="#E2B258" d="M352.4,334.9c-2.3,0-4.7,0-7,0c-0.9-1.2-1-2.4,0-3.6c2.3,0.2,4.7,0.5,7,0.7
		C352.4,333,352.4,334,352.4,334.9z"/>
	<path fill="#E3B257" d="M187.6,361.2c-6.5-3-9.7,2.6-14,5.3c-2.4-6.9,1.2-12.4,5.6-16.2c7.1-6.3,14.5-12.5,22.4-18
		c13.6-9.4,29.2-6.3,44-8.3c10.9-1.5,22.1-1.6,32.9-4.2c8.1-1.9,16.2-1.5,24.4-0.8c3.2,0.3,6.3,0.3,9.5-0.4
		c10.9-2.6,21.8,4.9,24.2,16.4c-0.6,5.3-1.2,10.5-1.8,15.8c-7.2-3.3-9.5-13.4-18.7-13.8c-12-0.5-23.7-4.2-36.3-0.5
		c-8.5,2.6-17.3,6.9-26.9,4.8c-2.2-0.5-3.2,0.8-4,2.4c-9.1,1.2-18.3-0.8-27.5,0.5c-3.3,0.4-6.1,0.3-8.4,2.9
		c-0.7,0.9-2,2.4-2.5,2.2C198.4,344.6,196.1,358.9,187.6,361.2z"/>
	<path fill="#E2B058" d="M336.7,334.9c-1.9-2.6-3.3-5.9-5.7-7.5c-5.7-3.8-10.4-11.9-19.4-5.6c-4,2.8-8.4-0.7-12.7-1.1
		c-13.6-1.3-26.3,4-39.7,4.3c-10.4,0.2-20.7,3-31,2.7c-15-0.4-25.6,6.5-36.8,15.6c-8.1,6.7-15.6,12.5-17.8,23.2
		c-1.8,4-7.3,4.3-8.8,8.8c-1.6,1.4-2,4.6-5.3,3.5c5.7-8.2,10.8-16.8,14.6-26.1c1-2.4,2-4.8,2.9-7.2c3.3-2.8,6.2-5.7,8.6-9.6
		c4.2-7.1,8.7-14.3,19.5-11.1c2.5,0.7,6.1-3.2,9.3-3.6c22.1-2.7,43.3-11.5,66-9c13.4-5.1,26.3,1.2,39.5,1.7
		c3.9,0.2,8.1,0.6,12,1.5c1,2.3,2,4.6,3.1,6.8c1.9,4,5.2,6.7,8.7,9.2c0.6-0.2,1.1-0.2,1.7,0c0,1.2,0,2.4,0,3.6
		c-1.9,8.6,3.1,16.3,3.5,24.5c-4.5-5.7-7-12.3-8.7-19.1C339.6,337.9,339,336,336.7,334.9z"/>
	<path fill="#E1AB59" d="M187.6,301.6c3.3,0.7,6.7,2.4,9.5-1.4c0.6-0.9,2-1.9,2.9-1.7c13.4,2.5,25.1-7.1,38.3-5.6
		c11.5,1.3,22-4.6,33.5-4.2c4.2,0.1,8.5,0.2,12.7,0.4c7.2,0.4,14.6,0.9,18.9-6.8c0.6,1.1,1.1,2.3,1.7,3.4c-0.2,3.7,3.7,4,5.6,6.1
		c-13.6,6.8-28.3,5.6-42.3,8.1c-9.6,1.7-19.4,2.3-29,4c-8.1,1.4-17,0.5-25.6,1.8c-2,0.3-4.7,0.2-5.6,1.6c-5.1,7.5-13,1.7-19.2,4.5
		c-2,0.9-2.8-1-2.3-3.2C187.3,306.2,187.4,303.9,187.6,301.6z"/>
	<path fill="#DC9D5D" d="M344.4,242.3c-18.5-3.7-36.4,1.7-54.7,2.6c-11.4,0.6-23.1,3-34.3-2.3c-3-1.4-5.6-0.2-8.3,1.1
		c-4.6,2.1-9.3,3.2-13.9,0c20.2-6.7,41.1-4.8,61.9-5.8c11.3-0.5,22.7-3.6,34.2-3.2c6.3,0.2,12.6-1,18.8,0.6c3.8,1,6.1-0.9,7.8-3.9
		c1.6,0.1,2.9,0.5,3.7,2C355,237.3,351,242.1,344.4,242.3z"/>
	<path fill="#E2B059" d="M332,315.4c-8,5.2-16.1,0-24-0.7c-9.1-0.7-18.2-3-27.5-2.6c5.2-2.8,10.8-3.4,16.6-4.4
		c8.4-1.5,16.8,1.7,24.9-1.9c6.9-3,3.1-8.4,4.1-12.6c1.2-4.8-3-4.5-5.6-5.7c0.4-2.4,3.4-1.4,4.2-3.3c2.3-1.3,3.8-1,3.5,2.1
		C327.4,296.2,329.5,305.8,332,315.4z"/>
	<path fill="#E2B258" d="M343.7,331.3c-5.1-1-8.2-3.8-8.7-9.2C338.9,324.3,341.8,327.4,343.7,331.3z"/>
	<path fill="#DFA45D" d="M383.7,242.8c0.2,3.6-0.3,6.5-5,4.4C379.5,244.8,381.9,244.1,383.7,242.8z"/>
	<path fill="#E5B472" d="M303.2,276.8c-0.5-0.5-1.1-1-1.6-1.5c-1.1-1.2-1-2.4,0.1-3.5c1.1,0,2.2-0.1,3.3-0.1
		C304.9,273.6,304.9,275.5,303.2,276.8z"/>
	<path fill="#C2AE96" d="M328.2,286.2c-0.6-1.6-1.9-2.1-3.5-2.1c0.7-2.2,2.9-3.2,4.3-2.3C330.5,282.8,329.3,284.8,328.2,286.2z"/>
	<path fill="#D68C60" d="M199.9,194.6c-5.8,2.7-11.7,2.7-17.5,0C188.2,191,194,195.6,199.9,194.6z"/>
	<path fill="#D68C60" d="M180.6,194.6c-4.3,3.5-9.4,1-14,1.8C170.9,192.9,176,195.4,180.6,194.6z"/>
	<path fill="#DD9F5A" d="M105.7,320.9c5.1,1.3,11.8,1.3,18.4,2.1c8.1,1,17.4,12.7,18,21.3c0.6,8.5-5.9,19.3-13.9,22.3
		c-14.9,5.5-29.3,7-43.5-3.1c-9.9-7.1-13.1-18.7-6.4-28.6C83.2,327.7,95.8,320.9,105.7,320.9z"/>
	<path fill="#E3B257" d="M159.6,378.7c1.8-1.2,3.5-2.3,5.3-3.5c-1.4,6.6-6.4,8.4-12.3,8.8C153.8,380.8,157,380.2,159.6,378.7z"/>
	<path fill="#E0A85A" d="M301.6,271.8c0,1.2,0,2.3-0.1,3.5c-3.9,8.7-9.2,11.4-19.1,9c-5-1.2-9.8-0.7-14.7-0.1
		c-18.9,2.1-38.1-0.2-56.7,4.7c-2.2,0.6-4.4,0.1-5.7-1.4c-2.3-2.6,0.8-4.6,1.4-7c11.8-2.8,23.7-5.2,35.7-4.9
		C262.5,276,281.9,271.7,301.6,271.8z"/>
	<path fill="#DEA45C" d="M427.8,334.9c2.3,1.8,3.2,4.2,3.5,7c2.6,10.1-4.6,22.6-16.2,25.9c-10.9,3.2-22.1,4.4-32.9-1.6
		c-10.2-5.6-15-15.3-11.7-25.2c4.3-12.8,14.6-19.7,26.3-17.6c1.4,0.3,2.8,0.8,4.3,0.5C412.2,322.3,421,326.3,427.8,334.9z"/>
	<path fill="#DEA65B" d="M427.8,334.9c-6.7-2.4-11.2-9.3-19.2-9c-8.1,0.2-16.1-3.2-24.2,1.6c-9.4,5.6-14.2,13.2-12.6,23.4
		c1.1,7.2,10.5,16.6,19.1,17c12.8,0.6,26.1,2.1,35.3-10.9c3.4-4.8,5.7-9.3,5.1-15.1c5.6,4.9,3.1,10.2-0.1,14.7
		c-10.9,15.5-25.9,17.9-42.9,14.6c-11.4-2.2-16.4-11.4-22.7-19.2c-0.6-0.8-0.9-2.4-0.5-3.3c4.5-9.4,5.9-21,16.7-26.4
		c4.6-2.3,9.1-5.1,14.5-1c3.4,2.6,7.8,0.4,11.6,0.3C418,321.5,424.3,325.9,427.8,334.9z"/>
	<path fill="#DB9C5B" d="M133.3,349.6c1.1,6.4-3.4,8.9-7.7,11.4c-10.9,6.3-27.7,6.8-37.4-3.7c-7.2-7.8-2-21.4,11.1-25
		c7.6-2.1,16.1-4,24.3,1C130.2,337.3,132.6,342.7,133.3,349.6z"/>
	<path fill="#DCA05C" d="M400,363.9c-10.5-0.3-20.4-8.3-19.9-16c0.5-8.4,9.7-15.1,20.3-14.7c10.1,0.4,20.4,8.4,20.1,15.6
		C420.3,355.6,408.7,364.2,400,363.9z"/>
	<path fill="#DB9A5C" d="M111.3,361c-9.8,0-16.6-5.2-16.6-12.8c0-6.9,9.5-13.7,19.1-12.6c5.8,0.6,11.5,3.6,12.1,10.6
		C126.4,352.9,117.9,361,111.3,361z"/>

</svg>
