<svg width="22" height="22" viewBox="0 0 22 22" fill="none" xmlns="http://www.w3.org/2000/svg">
<g clip-path="url(#clip0)">
<path d="M20.5372 11.285C20.4487 11.1038 20.4487 10.8961 20.5372 10.7151L21.3577 9.03649C21.8146 8.10188 21.4526 6.98793 20.5337 6.50036L18.8833 5.62466C18.7052 5.53022 18.5831 5.36213 18.5483 5.16365L18.2255 3.32335C18.0458 2.29873 17.098 1.6102 16.0682 1.75591L14.2182 2.01758C14.0186 2.04577 13.8211 1.98158 13.6763 1.84146L12.3335 0.542431C11.5858 -0.180901 10.4144 -0.180944 9.66679 0.542431L8.32394 1.84159C8.17905 1.98175 7.98161 2.04581 7.78198 2.01771L5.93205 1.75603C4.90188 1.61024 3.95443 2.29886 3.77469 3.32348L3.45191 5.1637C3.41706 5.36221 3.29499 5.53026 3.11697 5.62475L1.46655 6.50045C0.547628 6.98797 0.185661 8.10201 0.642502 9.03662L1.46299 10.7151C1.5515 10.8963 1.5515 11.104 1.46299 11.285L0.642459 12.9636C0.185618 13.8982 0.547585 15.0121 1.46651 15.4997L3.11693 16.3754C3.29499 16.4698 3.41706 16.6379 3.45191 16.8364L3.77469 18.6767C3.93832 19.6095 4.73813 20.2636 5.65736 20.2635C5.74789 20.2635 5.83976 20.2572 5.9321 20.2441L7.78202 19.9824C7.98152 19.9541 8.17909 20.0184 8.32398 20.1586L9.66679 21.4576C10.0407 21.8193 10.5203 22.0001 11.0001 22.0001C11.4798 22 11.9597 21.8192 12.3334 21.4576L13.6763 20.1586C13.8212 20.0184 14.0186 19.9544 14.2182 19.9824L16.0682 20.2441C17.0985 20.3899 18.0458 19.7013 18.2255 18.6767L18.5483 16.8364C18.5832 16.6379 18.7053 16.4699 18.8833 16.3754L20.5337 15.4997C21.4526 15.0122 21.8146 13.8981 21.3577 12.9635L20.5372 11.285ZM19.939 14.3788L18.2885 15.2545C17.7624 15.5337 17.4015 16.0304 17.2986 16.6171L16.9758 18.4574C16.915 18.8041 16.5945 19.0369 16.2459 18.9877L14.3959 18.726C13.806 18.6425 13.2222 18.8323 12.794 19.2465L11.4512 20.5455C11.1983 20.7901 10.802 20.7901 10.549 20.5455L9.20617 19.2465C8.84429 18.8964 8.3712 18.7067 7.87732 18.7067C7.78683 18.7067 7.69561 18.713 7.60426 18.726L5.75434 18.9877C5.40603 19.0369 5.08527 18.804 5.02443 18.4573L4.70161 16.617C4.59866 16.0303 4.23781 15.5336 3.71157 15.2544L2.06115 14.3787C1.75023 14.2138 1.62777 13.8369 1.78233 13.5207L2.60285 11.8421C2.86445 11.3069 2.86445 10.6931 2.60285 10.1578L1.78233 8.47928C1.62777 8.16307 1.75023 7.78619 2.06115 7.62124L3.71157 6.74554C4.23776 6.46629 4.59866 5.96966 4.70156 5.38288L5.02434 3.54262C5.08519 3.19595 5.40565 2.96306 5.75425 3.01231L7.60417 3.27398C8.19392 3.35747 8.7779 3.16768 9.20608 2.75351L10.5489 1.45448C10.8018 1.20982 11.1981 1.20982 11.4511 1.45448L12.794 2.75351C13.2221 3.16772 13.806 3.35747 14.3959 3.27398L16.2458 3.01231C16.5941 2.96302 16.9149 3.19595 16.9757 3.54262L17.2985 5.38292C17.4014 5.9697 17.7623 6.46637 18.2885 6.74554L19.9389 7.62124C20.2498 7.78619 20.3723 8.16307 20.2177 8.47928L19.3972 10.1578C19.1356 10.693 19.1356 11.3069 19.3972 11.8421L20.2177 13.5206C20.3724 13.8369 20.2499 14.2138 19.939 14.3788Z" fill="white"/>
<path d="M15.6356 6.36431C15.3879 6.11656 14.9861 6.11656 14.7384 6.36431L6.36428 14.7384C6.11653 14.9862 6.11653 15.3879 6.36428 15.6357C6.48816 15.7595 6.65054 15.8215 6.81288 15.8215C6.97521 15.8215 7.13763 15.7596 7.26147 15.6357L15.6356 7.26158C15.8834 7.01378 15.8834 6.61211 15.6356 6.36431Z" fill="white"/>
<path d="M8.46226 5.29012C7.17956 5.29012 6.13599 6.33369 6.13599 7.61639C6.13599 8.89908 7.17956 9.94266 8.46226 9.94266C9.74495 9.94266 10.7885 8.89908 10.7885 7.61639C10.7885 6.33369 9.74495 5.29012 8.46226 5.29012ZM8.46226 8.67376C7.87922 8.67376 7.40489 8.19943 7.40489 7.61634C7.40489 7.0333 7.87922 6.55897 8.46226 6.55897C9.0453 6.55897 9.51967 7.0333 9.51967 7.61634C9.51963 8.19943 9.0453 8.67376 8.46226 8.67376Z" fill="white"/>
<path d="M13.5378 12.0574C12.2551 12.0574 11.2115 13.101 11.2115 14.3837C11.2115 15.6664 12.2551 16.7099 13.5378 16.7099C14.8205 16.7099 15.8641 15.6664 15.8641 14.3837C15.8641 13.101 14.8205 12.0574 13.5378 12.0574ZM13.5378 15.441C12.9548 15.441 12.4804 14.9667 12.4804 14.3837C12.4804 13.8006 12.9547 13.3263 13.5378 13.3263C14.1209 13.3263 14.5952 13.8006 14.5952 14.3837C14.5952 14.9667 14.1209 15.441 13.5378 15.441Z" fill="white"/>
</g>
<defs>
<clipPath id="clip0">
<rect width="22" height="22" fill="white"/>
</clipPath>
</defs>
</svg>
