<?xml version="1.0" encoding="iso-8859-1"?>
<svg version="1.1" xmlns="http://www.w3.org/2000/svg" xmlns:xlink="http://www.w3.org/1999/xlink" x="0px" y="0px"
	 viewBox="0 0 512 512" enable-background="new 0 0 512 512" xml:space="preserve">
	<path fill="#FCDA3A" d="M280.6,511.5c-15.2,0-30.5,0-45.7,0c-17-2.2-34.1-2.4-50.7-7.7c-68.6-21.6-119.8-63.9-153.9-127.2
		c-6.1-11.3-10.7-23.3-15.4-35.3c-10-25.7-9.6-52.6-9.3-79.5c0-2.8,0-5.5,0-8.3c-0.2-26.3-0.4-52.4,8.7-77.9
		C34.5,119.3,68.7,74.1,119.1,41.5c22-14.2,45.7-24.6,70.9-31.8c14.8-4.1,29.9-3.6,44.8-6c15.2,0,30.5,0,45.7,0
		c8.3,1.6,16.7,1,25.1,2.2C343,11,376.2,26.5,406.6,47.9c50.2,35.3,82.9,83.1,99.7,141.9c3.1,11,2.1,22.5,4.5,33.6
		c0,22.8,0,45.7,0,68.5c-2,17.6-4.1,35-10.1,52c-10.5,29.3-26,55.5-45.7,79.3c-31.8,38.4-72.3,64-119.4,79.7
		c-15.4,5.1-31.2,7-47.3,7.8C285.7,510.8,283,509.8,280.6,511.5z"/>
	<path fill="#FDFCF2" d="M6.2,262c-0.5,0-1,0-1.5,0c0-2.9,0-5.9,0-8.8c0.5,0,1,0,1.5,0C6.2,256.2,6.2,259.1,6.2,262z"/>
	<path fill="#374043" d="M352.7,400.5c-23.3,21.8-51,33.3-82.7,35.3c-8.1-1.2-16.3-1.2-24.4,0c-23.8-1-45.2-9.4-65.3-21.7
		c-12.3-7.5-21.2-18.7-31.6-28.2c-0.4-3.1-2.8-4.6-5-6.1c-14.5-18.4-24.4-38.8-26.6-62.4c-0.9-6.5-1.4-13-1.6-19.6
		c-0.3-6.7,1.7-9.9,8.8-7.4c30.5,15.1,63.4,22.1,96.5,28.1c7.3,1.3,15.4-0.4,23.1,1.1c8.6,2.2,17.1,2.1,25.7,0.1
		c7.7-1.8,15.6-1.6,23.4-1.4c0.6,0.6,1.4,0.8,2.3,0.8c1.4,0,2.8,0,4.2,0c-1.3-0.2-2.8,0.3-3.6-1.2c22.7-3.6,45.4-7.2,67.1-15
		c10-3.6,19.5-8,28.8-13c6.9-3.7,10.2-2,10,5.9c-0.7,27.9-7.7,53.7-24.5,76.7c-3.5,4.8-7,9.7-10.9,14.3
		C361.3,390.9,356.8,395.5,352.7,400.5z"/>
	<path fill="#374043" d="M385.8,226.8c-0.1,5.4-2.1,10-5.4,14.2c-3.2,2.5-6.1,5.2-8.4,8.6c-7.6,5.2-15.1,5.5-22.7,0.1
		c-2.3-3.5-5.4-6.2-8.8-8.7c-11-17.4-8.4-38.7,6.5-52.3c10.4-9.5,26.1-5.5,34.9,9.3c2.4,4,4.4,8.2,4.1,13.1
		C384.6,216.4,384.8,221.6,385.8,226.8z"/>
	<path fill="#374043" d="M180.2,230.3c-0.1,4-2,7.3-4.1,10.4c-12,17.3-29.7,17.9-42.3-2.5c-5.8-9.3-6.8-20.3-2.7-31.1
		c1.3-0.3,1.3-0.3,0.6-3c0.9-3.4,2.1-6.6,4.8-9.1c3.2-1.5,5.4-3.8,7-6.9c12.2-12,30.9,0.3,36.6,17.7
		C180.3,214.1,180.5,222.2,180.2,230.3z"/>
	<path fill="#323B40" d="M124.2,290.4c-6-0.1-7.6,2.8-7.1,8.5c0.5,6.1,0,12.3-0.1,18.4c-3.2-7.8-3.8-16.2-2.9-24.4
		C114.9,285.3,120,288.2,124.2,290.4z"/>
	<path fill="#27333F" d="M180.2,230.3c-2.5-8.1-2.3-16.2-0.2-24.4C182.6,214.1,183,222.2,180.2,230.3z"/>
	<path fill="#2F3940" d="M269.5,319.7c-8.6,3.6-17.2,3.2-25.7-0.1C252.4,319.6,261,319.6,269.5,319.7z"/>
	<path fill="#2C3641" d="M352.7,400.5c2.7-6.4,7.3-10.9,13.7-13.7C362.9,392.5,358.3,397,352.7,400.5z"/>
	<path fill="#1F2C3D" d="M245.5,435.8c8.1-2.5,16.3-2.5,24.4,0C261.8,436.7,253.7,436.7,245.5,435.8z"/>
	<path fill="#293440" d="M340.5,241c4.5,1.3,8.1,3.6,8.8,8.7C345.2,247.9,342.4,244.9,340.5,241z"/>
	<path fill="#25313F" d="M143.5,188.2c-0.2,4.4-2.5,6.8-7,6.9C138,192.1,140.3,189.7,143.5,188.2z"/>
	<path fill="#2E3741" d="M372,249.6c1-4.6,3.9-7.4,8.4-8.6C378.6,244.9,375.9,247.8,372,249.6z"/>
	<path fill="#1F2B3D" d="M385.8,226.8c-2.4-5.2-2.5-10.4,0.1-15.6C387,216.4,387,221.6,385.8,226.8z"/>
	<path fill="#2D3840" d="M295.8,317.9c2.3,0.2,4.5,0.4,6.8,0.7c-3.3,1.5-6.6,2.3-9.7-0.3C293.9,318.2,294.8,318,295.8,317.9z"/>
	<path fill="#26313F" d="M131.6,204.2c0.4,1,1.2,2.1,1.2,3.1c0,1.1,1,2.8-1.1,3c-0.1,0-0.5-2-0.7-3.1
		C131.3,206.2,131.5,205.2,131.6,204.2z"/>
	<path fill="#2A3440" d="M143.6,379.8c3.7,0.4,5.2,2.6,5,6.1C146.4,384.3,144.7,382.3,143.6,379.8z"/>
	<path fill="#FEFEFE" d="M124.3,305.9c0.8-7.1,4.7-2,6.5-1.2c21.7,9.4,44.2,15.7,67.4,20.1c1.7,0.3,3.4,0.2,5.2,0.3
		c1.1-0.8,2.2-0.9,3.2,0.3c11.6,2.9,23.5,3.7,35.4,3.4c3-1.8,6.3-0.5,9.4-0.9c3.2,1,6.3,0.8,9.5,0c3.7,0.4,7.5-1,11,0.9
		c9.4,0.4,18.8,0,28.1-2c4.5-2,9.1-2.7,14-1.8c13.5-1.1,26.4-4.6,39.3-8.2c12.7-3.6,24.9-8.2,37.8-14.6c-0.2,11.3-2.5,21.2-5.8,31
		c-1,2.9-4.6,3.4-7.2,4.5c-22.8,9.6-46.3,16.7-71,19.4c-1.4,0.2-2.8,0.8-4.1,1.2c-1.2,2-3.5,0.8-5.1,1.6c-4.2,1-8.6-0.3-12.7,1.3
		c-1.9,0.6-3.9,0.9-5.9,0.8c-14.4,0-28.7,0.1-43.1-0.1c-2.1-0.4-4.3-0.2-5.9-2c-4.2-1.4-8.6-1.5-12.9-1.3c-1.1,0.9-2.2,1-3.1-0.3
		c-22.3-4.4-44.3-9.8-66-16.6c-14.9-4.6-21.6-13-22.3-27.8c-0.1-2.3-1-4.5-1.5-6.8c-0.7-0.2-0.9-0.5-0.7-0.9
		C123.9,306.1,124.1,305.9,124.3,305.9z"/>
	<path fill="#2F383A" d="M230.2,360.1c1.6,0.1,3.1,0.2,4.7,0.4c13.1,2,26.4,0.1,39.5,1c1.2,0.5,1.5,1.3,0.9,2.5
		c-17.9-0.2-35.8,1.1-55.6-2.8C224.5,360.7,227.4,360.4,230.2,360.1z"/>
	<path fill="#30393B" d="M275.3,363.9c0-0.6,0-1.1,0-1.7c1.4-1.8,3.9-0.1,5.3-1.8c1.4,0,2.8-0.1,4.3-0.1c3.9-1.3,8-0.6,12-0.6
		c0.4,0.2,0.9,0.5,1.3,0.7C290.8,363.2,283,363.1,275.3,363.9z"/>
	<path fill="#242D30" d="M313.9,325.1c-4.7,0.6-9.3,1.2-14,1.8C303.9,320.9,309,323.4,313.9,325.1z"/>
	<path fill="#242D2F" d="M259.6,329.1c-2.4,1.1-4.8,1.1-7.2-0.1c-1.1-0.7-1-1.4,0.1-2c2.3,0,4.7,0,7,0
		C260.7,327.7,260.7,328.3,259.6,329.1z"/>
	<path fill="#232C30" d="M206.5,325.4c-1.1-0.1-2.1-0.2-3.2-0.3c3-2.4,6.3-1.6,9.9-1.2C211.2,326.2,208.5,324.4,206.5,325.4z"/>
	<path fill="#2B3334" d="M259.6,329.1c0-0.7-0.1-1.4-0.1-2c4.1,0.5,8.6-1.4,12.3,1.8C267.8,329.9,263.7,329.6,259.6,329.1z"/>
	<path fill="#242E31" d="M298.2,358.8c1.6-0.2,3.2-0.3,4.7-0.5c1.6,0.3,3.2,0.5,4.9,0.8c0,0.4,0.1,0.8,0.1,1.2c-3.2,0-6.5,0-9.7,0
		c0,0,0,0,0,0C297.1,359.9,297.1,359.3,298.2,358.8z"/>
	<path fill="#252F32" d="M231.1,326c-2.2,1.5-4.3,1.1-6.6,0.2C226.8,324.8,228.8,325.1,231.1,326z"/>
	<path fill="#2C3334" d="M252.5,327.1c0,0.6-0.1,1.3-0.1,2c-3.5,0.6-7,0.9-10.5-0.2C245.1,325.9,248.9,327.4,252.5,327.1z"/>
	<path fill="#242E31" d="M214.2,358.5c1,0.1,2.1,0.2,3.1,0.3c-2.4,2.2-5.2,1.9-9.8,0.9C210.9,359.1,212.5,358.8,214.2,358.5z"/>
	<path fill="#252F32" d="M289.1,326.7c-1.4,0-2.8,0.2-4.1-0.1c-0.8-0.1-0.8-1,0.1-1.1c1.3-0.2,2.7,0,4,0
		C289.1,325.9,289.1,326.3,289.1,326.7z"/>
	<path fill="#222B2E" d="M124.3,305.9c0.4,0.4,0.5,0.9,0.2,1.4c-0.3,1.7-0.5,3.4-0.9,5.9C122,310.1,122.3,307.9,124.3,305.9z"/>
	<path fill="#27323F" d="M231.6,320.8c1.7-1,3.3-1.2,4.9,0.2C234.8,322,233.2,322.2,231.6,320.8z"/>
	<path fill="#374043" d="M280.6,360.4c-1.4,1.8-3.3,1.7-5.3,1.8c-10.4,0-20.8,0.1-31.3,0c-3.1,0-6.4,0.8-9.1-1.7
		C250.2,360.5,265.4,360.4,280.6,360.4z"/>
	<path fill="#374043" d="M298.2,358.8c0,0.5,0,1.1,0,1.6c-4.4,0-8.9-0.1-13.3-0.1C289.2,358.5,293.7,358.7,298.2,358.8z"/>
	<path fill="#FCDA3A" d="M513.8,230.3c0,4.7,0,9.4,0,14.2c-1.5,8.3-1.5,16.5,0,24.8c0,4.7,0,9.4,0,14.2c-2.7,4-1.3,8.6-1.7,12.9
		c-3.1,35.4-16.1,67.4-34.5,97.3c-33.6,54.6-81.7,91.1-142.1,111.8c-15.6,5.4-32.3,5.8-48.4,8.3c-20.1,0-40.2,0-60.2,0
		c-24-2.3-47.6-6.4-70-16.2c-53.3-23.3-95-59.5-124.3-109.8c-10.6-18.2-19.1-37.1-25.3-57.2c-3.6-11.7-3.2-23.8-4.5-35.8
		c-0.2-1.4,0.3-3-0.9-4.2c0-21.9,0-43.7,0-65.6c1.9-8,1.1-16.3,2.4-24.4c5-30.2,17.4-57.3,33.7-83c24.9-39,58.3-68.9,98.7-90.5
		c26.9-14.4,55.5-24.7,86.8-24.4c1.7,0,3.6,0.5,5.1-0.9c3.5,0,7.1,0,10.6,0c3.5,1.4,7.1,1.4,10.6,0c11.8,0,23.6,0,35.4,0
		c8.6,2,17.4,1.2,26.1,2.5c30.6,4.5,57.9,17.5,83.7,33.7c41.4,25.9,73.4,60.7,94.6,104.8c12.8,26.5,23.2,54.1,22.7,84.4
		C512.4,228.3,513,229.4,513.8,230.3z"/>
	<path fill="#F9DC58" d="M513.8,269.3c-2.8-8.3-2.8-16.5,0-24.8C513.8,252.8,513.8,261,513.8,269.3z"/>
	<path fill="#F9D947" d="M249.8,1.8c-3.5,2.5-7.1,2.6-10.6,0C242.7,1.8,246.3,1.8,249.8,1.8z"/>
	<path fill="#581415" d="M262.2,205.7c16.3,1.4,29.7,8.1,42.1,19.2c33.7,30.2,39.9,67,28.8,108.6c-2,7.6-5.1,15-10.5,21.1
		c-4.5,2.6-8.4,0.5-12.4-1.6c-35.6-18.4-71.2-18.9-106.6,0.5c-2.8,1.5-5.5,3.4-9,3.1c-12.3-13-16.1-29.2-17.4-46.3
		c0-0.4,0.1-0.8,0.1-1.2c0.1-5.8,0.2-11.7,0-17.5c-0.1-0.4-0.1-0.8-0.2-1.2c0.3-3.6-0.3-7.4,1.7-10.7c2.6-0.6,0.6-2,0.6-3.1
		c3.7-17.3,12.1-31.7,24.9-44.3c12.3-12.1,24.9-22.7,42.3-26c1.7-0.3,3.5-0.2,5.2-0.3C255.2,206.7,258.7,206.9,262.2,205.7z"/>
	<path fill="#871A1D" d="M194.4,356.6c12.8-13.4,29.7-17.3,47-19.9c26.6-3.9,51.5,1.4,74.6,15.2c2,1.2,4.3,1.8,6.5,2.6
		c-16.6,23.3-39.8,32.7-67.8,31.8c-19.3-0.6-36.8-6-51.2-19.5c-0.8-2.6-2.5-4.4-5.2-5.2C197,360,195.7,358.3,194.4,356.6z"/>
	<path fill="#050006" d="M340.6,166.1c-10.9-0.2-27.7-8.4-37.5-28.3c-5-10.1-3-18.2,5.2-21.9c7.3-3.3,13.7,0,18.4,9.8
		c4.6,9.6,12.8,13.7,22.8,14.1c10.4,0.4,19.1-3.2,24.8-12.4c1.1-1.7,1.9-3.7,2.9-5.5c4.1-6.7,10.8-8.9,17.3-5.7
		c6.6,3.3,9.1,9.8,6.5,17.1C394.2,153,374.2,166.1,340.6,166.1z"/>
	<path fill="#050006" d="M154,166.2c-15.2-3.8-28.9-10.1-37-24.6c-1.6-2.8-3.1-5.8-3.9-8.8c-2.2-8.1,1.1-14.8,8.1-17.3
		c6.4-2.3,13,0.9,16.6,8c7,14,16.6,18.5,31.7,15.5c8.9-1.8,14.5-7.1,18.6-14.9c4.6-8.7,11.7-11.5,18.7-7.7c7.2,3.9,9.1,11,5,19.7
		c-8.9,18.6-24.2,27.9-44.2,30.3C162.9,168.8,158.5,166.7,154,166.2z"/>
	<path fill="#EBBF69" d="M121,230.3c-11.5,0.4-21.7-2-31.1-7.4c-11.1-6.4-11-17.6,0.3-24.2c12.2-7,25.6-8.5,39.4-6.7
		c6.7,0.9,13.4,2.3,19.4,5.7c5.4,3,10.2,6.8,10.1,13.4c-0.1,6.6-4.9,10.5-10.5,13.1C139.7,228.5,130.4,230.8,121,230.3z"/>
	<path fill="#EBBF69" d="M385.8,230.3c-10.2,0.4-19.9-1.9-28.9-6.8c-12.3-6.8-12.8-18.7-0.5-25.1c19.5-10.1,39.8-10.1,59.3-0.1
		c12.4,6.3,12,18.3-0.3,25.1C406.4,228.6,396.4,230.8,385.8,230.3z"/>
	<path fill="#581415" d="M177,310.2c-1.8-6.7-2-13.3-0.1-20c0.2,0.4,0.5,0.7,0.7,1.1c0.8,6,0.7,11.9,0,17.9
		C177.4,309.5,177.2,309.9,177,310.2z"/>
	<path fill="#EAD196" d="M154,166.2c4.5-1.5,9,0.2,13.5,0.2C162.9,168.9,158.4,168.8,154,166.2z"/>
	<path fill="#81121C" d="M198.3,361.7c4.2-0.7,5.9,1,5.2,5.2C201.2,365.7,199.3,364.1,198.3,361.7z"/>
	<path fill="#500A12" d="M262.2,205.7c-3.5,2.3-7,2.2-10.5,0.1C255.1,205,258.6,204.9,262.2,205.7z"/>
	<path fill="#4D0711" d="M179.2,276.4c0.5,1,1.2,2,1.3,3c0.1,1.1,1,2.7-1,3.1c-0.1,0-0.6-2-0.9-3
		C178.8,278.5,179,277.5,179.2,276.4z"/>
	<path fill="#47020E" d="M177.6,309.2c0-6,0-11.9,0-17.9C179.8,297.3,179.7,303.2,177.6,309.2z"/>
	<path fill="#FCDA3A" d="M231.7,11.9c6,0,12,0,18,0c5.4,1.5,10.8,1.5,16.2,0c3.6,0,7.2,0,10.8,0c9,2.3,18.2,1.6,27.2,2.8
		c29,3.9,54.6,16.6,79,33.2c2.8,1.9,5,4.5,6.6,7.6c1.6,4.7,0.1,9-1.8,13c-6.5,13.8-12.2,28-18.6,41.9
		c-3.9,8.6-10.1,12.8-18.9,14.1c-19.8,2.8-39.5,6.4-59.3,9.2c-0.5,4.3,2.4,5.6,4.1,7.4c12.7,13.7,25.2,27.5,38.1,41
		c6.3,6.6,8.6,13.9,7,23.5c-3.1,18.7-5.9,37.5-8.7,56.2c-0.4,2.8-1.4,5.6,0,8.9c10.6-4.4,20.3-10.7,30.2-16.4
		c9-5.2,18.2-9.8,27.1-15.1c5.8-3.5,11.2-2.9,17,0.2c16.4,8.7,32.3,18.2,48.5,27.2c2.6,1.5,5.1,3.4,8.3,3.6
		c1.7-2.8,0.7-5.6,0.2-8.4c-3.5-19.3-5.9-38.8-9.2-58.1c-2.2-13.2,6.8-26,19.5-28.6c4.5,1.9,5.5,6.5,6.7,10.8
		c8.9,30.7,12.3,61.9,9.4,94.2c-3.9,44-16.4,84.4-40,120.4c-32.8,50.2-76.2,84.7-131.9,100c-11.9,3.3-24.2,3.2-36.4,4.3
		c-2.6,0.2-5.4-0.9-7.8,0.9c-3,0-6,0-9,0c-5.4-1.5-10.8-1.5-16.2,0c-2.4,0-4.8,0-7.2,0c-14.1-2.5-28.6-1.2-42.4-5.3
		c-75.1-22.4-127-73-156.8-150.4c-9-23.4-13.2-47.9-15.1-73.2c-2.3-29.7,1.3-58.4,7.8-86.9c1.3-5.6,2.6-11.4,8.1-14.4
		c12,1.5,20.9,13.4,19.4,26.2c-2.2,18.5-5.8,36.8-8.6,55.3c-0.7,4.2-1.3,8.2-0.6,13.9c10.2-4.4,19.6-9.7,28.7-15.3
		c8.9-5.4,18.1-10,27-15.3c7-4.2,13.4-4,20.4-0.2c15.8,8.5,31,18.2,46.9,26.4c2.7,1.4,5.1,3.5,8.6,3.8c1.9-4.1,0-8-0.5-11.9
		c-2.3-16.9-4.6-33.8-7.9-50.5c-2.2-11.1,0.5-19.3,7.8-26.9c12.5-13,24.6-26.4,36.8-39.6c1.6-1.8,4.5-3.3,3.8-6
		c-0.7-2.8-3.8-2.7-6.1-3c-17.8-2.2-35.4-5.9-53.2-8.1c-6.6-0.8-12.5-3.1-15.8-9.5c-8.1-15.8-15.7-31.9-22.5-48.4
		c-1.2-3-1.8-6.2-1.3-9.5c1-4.4,4.1-7,7.4-9.2c20.8-14.1,42.9-25.1,66.7-31.8C209.9,12.9,221.1,14.9,231.7,11.9z"/>
	<path fill="#F9E372" d="M265.9,11.9c-5.4,3-10.8,3-16.2,0C255.1,11.9,260.5,11.9,265.9,11.9z"/>
	<path fill="#F7DE70" d="M247.9,505.9c5.4-3.1,10.8-2.9,16.2,0C258.7,505.9,253.3,505.9,247.9,505.9z"/>
	<path fill="#05AEF1" d="M98.6,81.8c6.4-13.5,12.7-27.1,19.6-41.6c3.2,6,6.1,11.2,9,16.5c7.2,20,17.2,38.6,25.6,58
		c2.1,4.9,6.2,4.7,9.8,5.3c22.4,3.6,44.9,6.9,67.3,10.4c1.1,0.2,2.2,0.6,3.3,0.8c1.1,3.7-1.7,4.8-3.2,6.4
		c-15.7,16.8-31.4,33.7-47.4,50.2c-4.3,4.4-5,8.7-4.1,14.5c4.1,24,7.9,48,11.8,72c0.2,1.5,0,3.1,0,5.6
		c-21.8-12.3-42.9-24-63.8-36.2c-5.5-3.2-9.7-3.8-15.5-0.4c-17.9,10.7-36.1,20.7-54.3,31c-3.1,1.8-6.2,3.4-10.8,6
		c2.5-16.5,4.7-31.3,7.1-46.1c2-12.3,4.1-24.5,6.2-36.8c0.5-2.8-0.3-5-2.3-6.9c-4.6-4.5-9.2-9.1-13.8-13.7
		c-10.4-13.1-22.5-24.4-33.7-36.5c-2.4-2.6-7.2-4.1-5.5-9.7c21.7-2.3,43.2-5.8,64.5-10.3c7.3-3.3,12.7-8.5,16.3-16.4
		C88.4,95.8,93.8,89,98.6,81.8z"/>
	<path fill="#05AEF1" d="M447.1,120.4c5,2.4,10.5,1.8,15.7,2.3c16.2,3,32.4,5.9,52,9.5c-15.3,15.9-28.9,29.9-42.5,44
		c-0.3,0.1-0.6,0.2-0.8,0.4c-13.7,9.5-17,21.9-12.8,39.3c5,20.3,6.9,41.5,10.4,64c-21.4-12.1-41.7-23.2-61.6-35.2
		c-7.5-4.5-13.2-5-21-0.2c-18.6,11.6-37.8,21.8-56.8,32.6c-1.7,1-3.3,3-5.7,1.5c5.9-26.3,8.5-53.4,13.5-79.9c0.9-4.5-1-7-3.6-10
		c-17.1-19.4-34-38.9-50.5-57.9c11.9-1.9,26.4-4.2,40.9-6.4c10-1.6,20.1-3,30.1-4.6c3.2-0.5,6.4-0.9,8.1-4.9
		c8.5-19.4,17.2-38.8,25.8-58.1c2.7-5.2,5.4-10.3,8.7-16.8c7.5,16.3,14.7,31.7,21.8,47.1c4.2,4.6,8.1,9.7,10.5,15.5
		C433.1,111.5,439,117,447.1,120.4z"/>
	<path fill="#50341D" d="M350,329.5c-12.3,20.6-28.1,37.9-45.8,52.9c-25.3,21.3-58.4,22.4-87.5,2.9
		c-20.3-13.6-36.4-32.4-49.8-53.7c1.6-3.2,4.3-2.9,7-2.9c57.9,0,115.7-0.1,173.6,0C348.4,328.7,349.1,329.2,350,329.5z"/>
	<path fill="#FDFDFD" d="M257.9,326.2c-28.7,0-57.4-0.4-86.1,0.2c-9,0.2-11.6-3.9-11.8-12.3c-0.3-11.1,3.8-17.7,11.9-17.9
		c15.2-0.4,30.5-0.3,45.7-0.2c40.9,0,81.9,0.1,122.8,0.1c5.4,0,10.2,0.4,12.8,6.5c2.8,6.8,3.1,13.7,0.3,20.6c-1.8,4.3-5.6,3-8.7,3
		C315.9,326.3,286.9,326.2,257.9,326.2z"/>
	<path fill="#321100" d="M350,329.5c-56.7,0-113.3,0.1-170,0.1c-4.4,0-9-0.6-13.1,2c-1.6-1.3-2.9-3-0.2-4c1.9-0.7,4.1-0.3,6.2-0.3
		c56.5,0,113,0,169.5,0.1C344.9,327.4,348.5,324.9,350,329.5z"/>
	<path fill="#F6D12C" d="M302,294.3c-5.6,0-11.2,0-16.8,0c0-0.5,0-1-0.1-1.4c5.6,0,11.1,0,16.7,0c0.7,0.2,0.9,0.5,0.7,0.9
		C302.4,294.1,302.2,294.3,302,294.3z"/>
	<path fill="#F0C81E" d="M302,294.3c-0.1-0.5-0.1-1-0.1-1.4c4.4,0,8.7,0,13.1,0c0,0.5,0,1,0.1,1.4
		C310.6,294.3,306.3,294.3,302,294.3z"/>
	<path fill="#FADA3F" d="M98.6,81.8c-5.2,11.4-9.9,23.1-15.8,34.1c-2.9,5.4-9.2,4.4-14.4,4.3C78.3,107.2,86.4,92.6,98.6,81.8z"/>
	<path fill="#F9D93E" d="M447.1,120.4c-9.3,1.1-15.9-2.3-19.2-12.5c-2.3-7.2-5.9-13.8-9-20.7c8.2,2,10.9,10.5,16.1,15.9
		C439.8,108.1,443.2,114.6,447.1,120.4z"/>
</svg>
