<?xml version="1.0" encoding="iso-8859-1"?>
<svg version="1.1" xmlns="http://www.w3.org/2000/svg" viewBox="0 0 512 512" xml:space="preserve">
	<path fill="#FCDA3A" d="M280.6,511.5c-15.2,0-30.5,0-45.7,0c-17-2.2-34.1-2.4-50.7-7.7c-68.6-21.6-119.8-63.9-153.9-127.2
		c-6.1-11.3-10.7-23.3-15.4-35.3c-10-25.7-9.6-52.6-9.3-79.5c0-2.8,0-5.5,0-8.3c-0.2-26.3-0.4-52.4,8.7-77.9
		C34.5,119.3,68.7,74.1,119.1,41.5c22-14.2,45.7-24.6,70.9-31.8c14.8-4.1,29.9-3.6,44.8-6c15.2,0,30.5,0,45.7,0
		c8.3,1.6,16.7,1,25.1,2.2C343,11,376.2,26.5,406.6,47.9c50.2,35.3,82.9,83.1,99.7,141.9c3.1,11,2.1,22.5,4.5,33.6
		c0,22.8,0,45.7,0,68.5c-2,17.6-4.1,35-10.1,52c-10.5,29.3-26,55.5-45.7,79.3c-31.8,38.4-72.3,64-119.4,79.7
		c-15.4,5.1-31.2,7-47.3,7.8C285.7,510.8,283,509.8,280.6,511.5z"/>
	<path fill="#FDFCF2" d="M6.2,262c-0.5,0-1,0-1.5,0c0-2.9,0-5.9,0-8.8c0.5,0,1,0,1.5,0C6.2,256.2,6.2,259.1,6.2,262z"/>
	<path fill="#374043" d="M352.7,400.5c-23.3,21.8-51,33.3-82.7,35.3c-8.1-1.2-16.3-1.2-24.4,0c-23.8-1-45.2-9.4-65.3-21.7
		c-12.3-7.5-21.2-18.7-31.6-28.2c-0.4-3.1-2.8-4.6-5-6.1c-14.5-18.4-24.4-38.8-26.6-62.4c-0.9-6.5-1.4-13-1.6-19.6
		c-0.3-6.7,1.7-9.9,8.8-7.4c30.5,15.1,63.4,22.1,96.5,28.1c7.3,1.3,15.4-0.4,23.1,1.1c8.6,2.2,17.1,2.1,25.7,0.1
		c7.7-1.8,15.6-1.6,23.4-1.4c0.6,0.6,1.4,0.8,2.3,0.8c1.4,0,2.8,0,4.2,0c-1.3-0.2-2.8,0.3-3.6-1.2c22.7-3.6,45.4-7.2,67.1-15
		c10-3.6,19.5-8,28.8-13c6.9-3.7,10.2-2,10,5.9c-0.7,27.9-7.7,53.7-24.5,76.7c-3.5,4.8-7,9.7-10.9,14.3
		C361.3,390.9,356.8,395.5,352.7,400.5z"/>
	<path fill="#374043" d="M385.8,226.8c-0.1,5.4-2.1,10-5.4,14.2c-3.2,2.5-6.1,5.2-8.4,8.6c-7.6,5.2-15.1,5.5-22.7,0.1
		c-2.3-3.5-5.4-6.2-8.8-8.7c-11-17.4-8.4-38.7,6.5-52.3c10.4-9.5,26.1-5.5,34.9,9.3c2.4,4,4.4,8.2,4.1,13.1
		C384.6,216.4,384.8,221.6,385.8,226.8z"/>
	<path fill="#374043" d="M180.2,230.3c-0.1,4-2,7.3-4.1,10.4c-12,17.3-29.7,17.9-42.3-2.5c-5.8-9.3-6.8-20.3-2.7-31.1
		c1.3-0.3,1.3-0.3,0.6-3c0.9-3.4,2.1-6.6,4.8-9.1c3.2-1.5,5.4-3.8,7-6.9c12.2-12,30.9,0.3,36.6,17.7
		C180.3,214.1,180.5,222.2,180.2,230.3z"/>
	<path fill="#323B40" d="M124.2,290.4c-6-0.1-7.6,2.8-7.1,8.5c0.5,6.1,0,12.3-0.1,18.4c-3.2-7.8-3.8-16.2-2.9-24.4
		C114.9,285.3,120,288.2,124.2,290.4z"/>
	<path fill="#27333F" d="M180.2,230.3c-2.5-8.1-2.3-16.2-0.2-24.4C182.6,214.1,183,222.2,180.2,230.3z"/>
	<path fill="#2F3940" d="M269.5,319.7c-8.6,3.6-17.2,3.2-25.7-0.1C252.4,319.6,261,319.6,269.5,319.7z"/>
	<path fill="#2C3641" d="M352.7,400.5c2.7-6.4,7.3-10.9,13.7-13.7C362.9,392.5,358.3,397,352.7,400.5z"/>
	<path fill="#1F2C3D" d="M245.5,435.8c8.1-2.5,16.3-2.5,24.4,0C261.8,436.7,253.7,436.7,245.5,435.8z"/>
	<path fill="#293440" d="M340.5,241c4.5,1.3,8.1,3.6,8.8,8.7C345.2,247.9,342.4,244.9,340.5,241z"/>
	<path fill="#25313F" d="M143.5,188.2c-0.2,4.4-2.5,6.8-7,6.9C138,192.1,140.3,189.7,143.5,188.2z"/>
	<path fill="#2E3741" d="M372,249.6c1-4.6,3.9-7.4,8.4-8.6C378.6,244.9,375.9,247.8,372,249.6z"/>
	<path fill="#1F2B3D" d="M385.8,226.8c-2.4-5.2-2.5-10.4,0.1-15.6C387,216.4,387,221.6,385.8,226.8z"/>
	<path fill="#2D3840" d="M295.8,317.9c2.3,0.2,4.5,0.4,6.8,0.7c-3.3,1.5-6.6,2.3-9.7-0.3C293.9,318.2,294.8,318,295.8,317.9z"/>
	<path fill="#26313F" d="M131.6,204.2c0.4,1,1.2,2.1,1.2,3.1c0,1.1,1,2.8-1.1,3c-0.1,0-0.5-2-0.7-3.1
		C131.3,206.2,131.5,205.2,131.6,204.2z"/>
	<path fill="#2A3440" d="M143.6,379.8c3.7,0.4,5.2,2.6,5,6.1C146.4,384.3,144.7,382.3,143.6,379.8z"/>
	<path fill="#FEFEFE" d="M124.3,305.9c0.8-7.1,4.7-2,6.5-1.2c21.7,9.4,44.2,15.7,67.4,20.1c1.7,0.3,3.4,0.2,5.2,0.3
		c1.1-0.8,2.2-0.9,3.2,0.3c11.6,2.9,23.5,3.7,35.4,3.4c3-1.8,6.3-0.5,9.4-0.9c3.2,1,6.3,0.8,9.5,0c3.7,0.4,7.5-1,11,0.9
		c9.4,0.4,18.8,0,28.1-2c4.5-2,9.1-2.7,14-1.8c13.5-1.1,26.4-4.6,39.3-8.2c12.7-3.6,24.9-8.2,37.8-14.6c-0.2,11.3-2.5,21.2-5.8,31
		c-1,2.9-4.6,3.4-7.2,4.5c-22.8,9.6-46.3,16.7-71,19.4c-1.4,0.2-2.8,0.8-4.1,1.2c-1.2,2-3.5,0.8-5.1,1.6c-4.2,1-8.6-0.3-12.7,1.3
		c-1.9,0.6-3.9,0.9-5.9,0.8c-14.4,0-28.7,0.1-43.1-0.1c-2.1-0.4-4.3-0.2-5.9-2c-4.2-1.4-8.6-1.5-12.9-1.3c-1.1,0.9-2.2,1-3.1-0.3
		c-22.3-4.4-44.3-9.8-66-16.6c-14.9-4.6-21.6-13-22.3-27.8c-0.1-2.3-1-4.5-1.5-6.8c-0.7-0.2-0.9-0.5-0.7-0.9
		C123.9,306.1,124.1,305.9,124.3,305.9z"/>
	<path fill="#2F383A" d="M230.2,360.1c1.6,0.1,3.1,0.2,4.7,0.4c13.1,2,26.4,0.1,39.5,1c1.2,0.5,1.5,1.3,0.9,2.5
		c-17.9-0.2-35.8,1.1-55.6-2.8C224.5,360.7,227.4,360.4,230.2,360.1z"/>
	<path fill="#30393B" d="M275.3,363.9c0-0.6,0-1.1,0-1.7c1.4-1.8,3.9-0.1,5.3-1.8c1.4,0,2.8-0.1,4.3-0.1c3.9-1.3,8-0.6,12-0.6
		c0.4,0.2,0.9,0.5,1.3,0.7C290.8,363.2,283,363.1,275.3,363.9z"/>
	<path fill="#242D30" d="M313.9,325.1c-4.7,0.6-9.3,1.2-14,1.8C303.9,320.9,309,323.4,313.9,325.1z"/>
	<path fill="#242D2F" d="M259.6,329.1c-2.4,1.1-4.8,1.1-7.2-0.1c-1.1-0.7-1-1.4,0.1-2c2.3,0,4.7,0,7,0
		C260.7,327.7,260.7,328.3,259.6,329.1z"/>
	<path fill="#232C30" d="M206.5,325.4c-1.1-0.1-2.1-0.2-3.2-0.3c3-2.4,6.3-1.6,9.9-1.2C211.2,326.2,208.5,324.4,206.5,325.4z"/>
	<path fill="#2B3334" d="M259.6,329.1c0-0.7-0.1-1.4-0.1-2c4.1,0.5,8.6-1.4,12.3,1.8C267.8,329.9,263.7,329.6,259.6,329.1z"/>
	<path fill="#242E31" d="M298.2,358.8c1.6-0.2,3.2-0.3,4.7-0.5c1.6,0.3,3.2,0.5,4.9,0.8c0,0.4,0.1,0.8,0.1,1.2c-3.2,0-6.5,0-9.7,0
		c0,0,0,0,0,0C297.1,359.9,297.1,359.3,298.2,358.8z"/>
	<path fill="#252F32" d="M231.1,326c-2.2,1.5-4.3,1.1-6.6,0.2C226.8,324.8,228.8,325.1,231.1,326z"/>
	<path fill="#2C3334" d="M252.5,327.1c0,0.6-0.1,1.3-0.1,2c-3.5,0.6-7,0.9-10.5-0.2C245.1,325.9,248.9,327.4,252.5,327.1z"/>
	<path fill="#242E31" d="M214.2,358.5c1,0.1,2.1,0.2,3.1,0.3c-2.4,2.2-5.2,1.9-9.8,0.9C210.9,359.1,212.5,358.8,214.2,358.5z"/>
	<path fill="#252F32" d="M289.1,326.7c-1.4,0-2.8,0.2-4.1-0.1c-0.8-0.1-0.8-1,0.1-1.1c1.3-0.2,2.7,0,4,0
		C289.1,325.9,289.1,326.3,289.1,326.7z"/>
	<path fill="#222B2E" d="M124.3,305.9c0.4,0.4,0.5,0.9,0.2,1.4c-0.3,1.7-0.5,3.4-0.9,5.9C122,310.1,122.3,307.9,124.3,305.9z"/>
	<path fill="#27323F" d="M231.6,320.8c1.7-1,3.3-1.2,4.9,0.2C234.8,322,233.2,322.2,231.6,320.8z"/>
	<path fill="#374043" d="M280.6,360.4c-1.4,1.8-3.3,1.7-5.3,1.8c-10.4,0-20.8,0.1-31.3,0c-3.1,0-6.4,0.8-9.1-1.7
		C250.2,360.5,265.4,360.4,280.6,360.4z"/>
	<path fill="#374043" d="M298.2,358.8c0,0.5,0,1.1,0,1.6c-4.4,0-8.9-0.1-13.3-0.1C289.2,358.5,293.7,358.7,298.2,358.8z"/>
</svg>
