<?xml version="1.0" encoding="iso-8859-1"?>
<svg version="1.1" xmlns="http://www.w3.org/2000/svg" viewBox="0 0 512 512" xml:space="preserve">
	<path fill="#FCDA3A" d="M280.6,511.5c-15.2,0-30.5,0-45.7,0c-17-2.2-34.1-2.4-50.7-7.7c-68.6-21.6-119.8-63.9-153.9-127.2
		c-6.1-11.3-10.7-23.3-15.4-35.3c-10-25.7-9.6-52.6-9.3-79.5c0-2.8,0-5.5,0-8.3c-0.2-26.3-0.4-52.4,8.7-77.9
		C34.5,119.3,68.7,74.1,119.1,41.5c22-14.2,45.7-24.6,70.9-31.8c14.8-4.1,29.9-3.6,44.8-6c15.2,0,30.5,0,45.7,0
		c8.3,1.6,16.7,1,25.1,2.2C343,11,376.2,26.5,406.6,47.9c50.2,35.3,82.9,83.1,99.7,141.9c3.1,11,2.1,22.5,4.5,33.6
		c0,22.8,0,45.7,0,68.5c-2,17.6-4.1,35-10.1,52c-10.5,29.3-26,55.5-45.7,79.3c-31.8,38.4-72.3,64-119.4,79.7
		c-15.4,5.1-31.2,7-47.3,7.8C285.7,510.8,283,509.8,280.6,511.5z"/>
	<path fill="#FDFCF2" d="M6.2,262c-0.5,0-1,0-1.5,0c0-2.9,0-5.9,0-8.8c0.5,0,1,0,1.5,0C6.2,256.2,6.2,259.1,6.2,262z"/>
	<path fill="#374043" d="M352.7,400.5c-23.3,21.8-51,33.3-82.7,35.3c-8.1-1.2-16.3-1.2-24.4,0c-23.8-1-45.2-9.4-65.3-21.7
		c-12.3-7.5-21.2-18.7-31.6-28.2c-0.4-3.1-2.8-4.6-5-6.1c-14.5-18.4-24.4-38.8-26.6-62.4c-0.9-6.5-1.4-13-1.6-19.6
		c-0.3-6.7,1.7-9.9,8.8-7.4c30.5,15.1,63.4,22.1,96.5,28.1c7.3,1.3,15.4-0.4,23.1,1.1c8.6,2.2,17.1,2.1,25.7,0.1
		c7.7-1.8,15.6-1.6,23.4-1.4c0.6,0.6,1.4,0.8,2.3,0.8c1.4,0,2.8,0,4.2,0c-1.3-0.2-2.8,0.3-3.6-1.2c22.7-3.6,45.4-7.2,67.1-15
		c10-3.6,19.5-8,28.8-13c6.9-3.7,10.2-2,10,5.9c-0.7,27.9-7.7,53.7-24.5,76.7c-3.5,4.8-7,9.7-10.9,14.3
		C361.3,390.9,356.8,395.5,352.7,400.5z"/>
	<path fill="#374043" d="M385.8,226.8c-0.1,5.4-2.1,10-5.4,14.2c-3.2,2.5-6.1,5.2-8.4,8.6c-7.6,5.2-15.1,5.5-22.7,0.1
		c-2.3-3.5-5.4-6.2-8.8-8.7c-11-17.4-8.4-38.7,6.5-52.3c10.4-9.5,26.1-5.5,34.9,9.3c2.4,4,4.4,8.2,4.1,13.1
		C384.6,216.4,384.8,221.6,385.8,226.8z"/>
	<path fill="#374043" d="M180.2,230.3c-0.1,4-2,7.3-4.1,10.4c-12,17.3-29.7,17.9-42.3-2.5c-5.8-9.3-6.8-20.3-2.7-31.1
		c1.3-0.3,1.3-0.3,0.6-3c0.9-3.4,2.1-6.6,4.8-9.1c3.2-1.5,5.4-3.8,7-6.9c12.2-12,30.9,0.3,36.6,17.7
		C180.3,214.1,180.5,222.2,180.2,230.3z"/>
	<path fill="#323B40" d="M124.2,290.4c-6-0.1-7.6,2.8-7.1,8.5c0.5,6.1,0,12.3-0.1,18.4c-3.2-7.8-3.8-16.2-2.9-24.4
		C114.9,285.3,120,288.2,124.2,290.4z"/>
	<path fill="#27333F" d="M180.2,230.3c-2.5-8.1-2.3-16.2-0.2-24.4C182.6,214.1,183,222.2,180.2,230.3z"/>
	<path fill="#2F3940" d="M269.5,319.7c-8.6,3.6-17.2,3.2-25.7-0.1C252.4,319.6,261,319.6,269.5,319.7z"/>
	<path fill="#2C3641" d="M352.7,400.5c2.7-6.4,7.3-10.9,13.7-13.7C362.9,392.5,358.3,397,352.7,400.5z"/>
	<path fill="#1F2C3D" d="M245.5,435.8c8.1-2.5,16.3-2.5,24.4,0C261.8,436.7,253.7,436.7,245.5,435.8z"/>
	<path fill="#293440" d="M340.5,241c4.5,1.3,8.1,3.6,8.8,8.7C345.2,247.9,342.4,244.9,340.5,241z"/>
	<path fill="#25313F" d="M143.5,188.2c-0.2,4.4-2.5,6.8-7,6.9C138,192.1,140.3,189.7,143.5,188.2z"/>
	<path fill="#2E3741" d="M372,249.6c1-4.6,3.9-7.4,8.4-8.6C378.6,244.9,375.9,247.8,372,249.6z"/>
	<path fill="#1F2B3D" d="M385.8,226.8c-2.4-5.2-2.5-10.4,0.1-15.6C387,216.4,387,221.6,385.8,226.8z"/>
	<path fill="#2D3840" d="M295.8,317.9c2.3,0.2,4.5,0.4,6.8,0.7c-3.3,1.5-6.6,2.3-9.7-0.3C293.9,318.2,294.8,318,295.8,317.9z"/>
	<path fill="#26313F" d="M131.6,204.2c0.4,1,1.2,2.1,1.2,3.1c0,1.1,1,2.8-1.1,3c-0.1,0-0.5-2-0.7-3.1
		C131.3,206.2,131.5,205.2,131.6,204.2z"/>
	<path fill="#2A3440" d="M143.6,379.8c3.7,0.4,5.2,2.6,5,6.1C146.4,384.3,144.7,382.3,143.6,379.8z"/>
	<path fill="#FEFEFE" d="M124.3,305.9c0.8-7.1,4.7-2,6.5-1.2c21.7,9.4,44.2,15.7,67.4,20.1c1.7,0.3,3.4,0.2,5.2,0.3
		c1.1-0.8,2.2-0.9,3.2,0.3c11.6,2.9,23.5,3.7,35.4,3.4c3-1.8,6.3-0.5,9.4-0.9c3.2,1,6.3,0.8,9.5,0c3.7,0.4,7.5-1,11,0.9
		c9.4,0.4,18.8,0,28.1-2c4.5-2,9.1-2.7,14-1.8c13.5-1.1,26.4-4.6,39.3-8.2c12.7-3.6,24.9-8.2,37.8-14.6c-0.2,11.3-2.5,21.2-5.8,31
		c-1,2.9-4.6,3.4-7.2,4.5c-22.8,9.6-46.3,16.7-71,19.4c-1.4,0.2-2.8,0.8-4.1,1.2c-1.2,2-3.5,0.8-5.1,1.6c-4.2,1-8.6-0.3-12.7,1.3
		c-1.9,0.6-3.9,0.9-5.9,0.8c-14.4,0-28.7,0.1-43.1-0.1c-2.1-0.4-4.3-0.2-5.9-2c-4.2-1.4-8.6-1.5-12.9-1.3c-1.1,0.9-2.2,1-3.1-0.3
		c-22.3-4.4-44.3-9.8-66-16.6c-14.9-4.6-21.6-13-22.3-27.8c-0.1-2.3-1-4.5-1.5-6.8c-0.7-0.2-0.9-0.5-0.7-0.9
		C123.9,306.1,124.1,305.9,124.3,305.9z"/>
	<path fill="#2F383A" d="M230.2,360.1c1.6,0.1,3.1,0.2,4.7,0.4c13.1,2,26.4,0.1,39.5,1c1.2,0.5,1.5,1.3,0.9,2.5
		c-17.9-0.2-35.8,1.1-55.6-2.8C224.5,360.7,227.4,360.4,230.2,360.1z"/>
	<path fill="#30393B" d="M275.3,363.9c0-0.6,0-1.1,0-1.7c1.4-1.8,3.9-0.1,5.3-1.8c1.4,0,2.8-0.1,4.3-0.1c3.9-1.3,8-0.6,12-0.6
		c0.4,0.2,0.9,0.5,1.3,0.7C290.8,363.2,283,363.1,275.3,363.9z"/>
	<path fill="#242D30" d="M313.9,325.1c-4.7,0.6-9.3,1.2-14,1.8C303.9,320.9,309,323.4,313.9,325.1z"/>
	<path fill="#242D2F" d="M259.6,329.1c-2.4,1.1-4.8,1.1-7.2-0.1c-1.1-0.7-1-1.4,0.1-2c2.3,0,4.7,0,7,0
		C260.7,327.7,260.7,328.3,259.6,329.1z"/>
	<path fill="#232C30" d="M206.5,325.4c-1.1-0.1-2.1-0.2-3.2-0.3c3-2.4,6.3-1.6,9.9-1.2C211.2,326.2,208.5,324.4,206.5,325.4z"/>
	<path fill="#2B3334" d="M259.6,329.1c0-0.7-0.1-1.4-0.1-2c4.1,0.5,8.6-1.4,12.3,1.8C267.8,329.9,263.7,329.6,259.6,329.1z"/>
	<path fill="#242E31" d="M298.2,358.8c1.6-0.2,3.2-0.3,4.7-0.5c1.6,0.3,3.2,0.5,4.9,0.8c0,0.4,0.1,0.8,0.1,1.2c-3.2,0-6.5,0-9.7,0
		c0,0,0,0,0,0C297.1,359.9,297.1,359.3,298.2,358.8z"/>
	<path fill="#252F32" d="M231.1,326c-2.2,1.5-4.3,1.1-6.6,0.2C226.8,324.8,228.8,325.1,231.1,326z"/>
	<path fill="#2C3334" d="M252.5,327.1c0,0.6-0.1,1.3-0.1,2c-3.5,0.6-7,0.9-10.5-0.2C245.1,325.9,248.9,327.4,252.5,327.1z"/>
	<path fill="#242E31" d="M214.2,358.5c1,0.1,2.1,0.2,3.1,0.3c-2.4,2.2-5.2,1.9-9.8,0.9C210.9,359.1,212.5,358.8,214.2,358.5z"/>
	<path fill="#252F32" d="M289.1,326.7c-1.4,0-2.8,0.2-4.1-0.1c-0.8-0.1-0.8-1,0.1-1.1c1.3-0.2,2.7,0,4,0
		C289.1,325.9,289.1,326.3,289.1,326.7z"/>
	<path fill="#222B2E" d="M124.3,305.9c0.4,0.4,0.5,0.9,0.2,1.4c-0.3,1.7-0.5,3.4-0.9,5.9C122,310.1,122.3,307.9,124.3,305.9z"/>
	<path fill="#27323F" d="M231.6,320.8c1.7-1,3.3-1.2,4.9,0.2C234.8,322,233.2,322.2,231.6,320.8z"/>
	<path fill="#374043" d="M280.6,360.4c-1.4,1.8-3.3,1.7-5.3,1.8c-10.4,0-20.8,0.1-31.3,0c-3.1,0-6.4,0.8-9.1-1.7
		C250.2,360.5,265.4,360.4,280.6,360.4z"/>
	<path fill="#374043" d="M298.2,358.8c0,0.5,0,1.1,0,1.6c-4.4,0-8.9-0.1-13.3-0.1C289.2,358.5,293.7,358.7,298.2,358.8z"/>
	<path fill="#FCDA3A" d="M513.8,230.3c0,4.7,0,9.4,0,14.2c-1.5,8.3-1.5,16.5,0,24.8c0,4.7,0,9.4,0,14.2c-2.7,4-1.3,8.6-1.7,12.9
		c-3.1,35.4-16.1,67.4-34.5,97.3c-33.6,54.6-81.7,91.1-142.1,111.8c-15.6,5.4-32.3,5.8-48.4,8.3c-20.1,0-40.2,0-60.2,0
		c-24-2.3-47.6-6.4-70-16.2c-53.3-23.3-95-59.5-124.3-109.8c-10.6-18.2-19.1-37.1-25.3-57.2c-3.6-11.7-3.2-23.8-4.5-35.8
		c-0.2-1.4,0.3-3-0.9-4.2c0-21.9,0-43.7,0-65.6c1.9-8,1.1-16.3,2.4-24.4c5-30.2,17.4-57.3,33.7-83c24.9-39,58.3-68.9,98.7-90.5
		c26.9-14.4,55.5-24.7,86.8-24.4c1.7,0,3.6,0.5,5.1-0.9c3.5,0,7.1,0,10.6,0c3.5,1.4,7.1,1.4,10.6,0c11.8,0,23.6,0,35.4,0
		c8.6,2,17.4,1.2,26.1,2.5c30.6,4.5,57.9,17.5,83.7,33.7c41.4,25.9,73.4,60.7,94.6,104.8c12.8,26.5,23.2,54.1,22.7,84.4
		C512.4,228.3,513,229.4,513.8,230.3z"/>
	<path fill="#F9DC58" d="M513.8,269.3c-2.8-8.3-2.8-16.5,0-24.8C513.8,252.8,513.8,261,513.8,269.3z"/>
	<path fill="#F9D947" d="M249.8,1.8c-3.5,2.5-7.1,2.6-10.6,0C242.7,1.8,246.3,1.8,249.8,1.8z"/>
	<path fill="#581415" d="M262.2,205.7c16.3,1.4,29.7,8.1,42.1,19.2c33.7,30.2,39.9,67,28.8,108.6c-2,7.6-5.1,15-10.5,21.1
		c-4.5,2.6-8.4,0.5-12.4-1.6c-35.6-18.4-71.2-18.9-106.6,0.5c-2.8,1.5-5.5,3.4-9,3.1c-12.3-13-16.1-29.2-17.4-46.3
		c0-0.4,0.1-0.8,0.1-1.2c0.1-5.8,0.2-11.7,0-17.5c-0.1-0.4-0.1-0.8-0.2-1.2c0.3-3.6-0.3-7.4,1.7-10.7c2.6-0.6,0.6-2,0.6-3.1
		c3.7-17.3,12.1-31.7,24.9-44.3c12.3-12.1,24.9-22.7,42.3-26c1.7-0.3,3.5-0.2,5.2-0.3C255.2,206.7,258.7,206.9,262.2,205.7z"/>
	<path fill="#871A1D" d="M194.4,356.6c12.8-13.4,29.7-17.3,47-19.9c26.6-3.9,51.5,1.4,74.6,15.2c2,1.2,4.3,1.8,6.5,2.6
		c-16.6,23.3-39.8,32.7-67.8,31.8c-19.3-0.6-36.8-6-51.2-19.5c-0.8-2.6-2.5-4.4-5.2-5.2C197,360,195.7,358.3,194.4,356.6z"/>
	<path fill="#050006" d="M340.6,166.1c-10.9-0.2-27.7-8.4-37.5-28.3c-5-10.1-3-18.2,5.2-21.9c7.3-3.3,13.7,0,18.4,9.8
		c4.6,9.6,12.8,13.7,22.8,14.1c10.4,0.4,19.1-3.2,24.8-12.4c1.1-1.7,1.9-3.7,2.9-5.5c4.1-6.7,10.8-8.9,17.3-5.7
		c6.6,3.3,9.1,9.8,6.5,17.1C394.2,153,374.2,166.1,340.6,166.1z"/>
	<path fill="#050006" d="M154,166.2c-15.2-3.8-28.9-10.1-37-24.6c-1.6-2.8-3.1-5.8-3.9-8.8c-2.2-8.1,1.1-14.8,8.1-17.3
		c6.4-2.3,13,0.9,16.6,8c7,14,16.6,18.5,31.7,15.5c8.9-1.8,14.5-7.1,18.6-14.9c4.6-8.7,11.7-11.5,18.7-7.7c7.2,3.9,9.1,11,5,19.7
		c-8.9,18.6-24.2,27.9-44.2,30.3C162.9,168.8,158.5,166.7,154,166.2z"/>
	<path fill="#EBBF69" d="M121,230.3c-11.5,0.4-21.7-2-31.1-7.4c-11.1-6.4-11-17.6,0.3-24.2c12.2-7,25.6-8.5,39.4-6.7
		c6.7,0.9,13.4,2.3,19.4,5.7c5.4,3,10.2,6.8,10.1,13.4c-0.1,6.6-4.9,10.5-10.5,13.1C139.7,228.5,130.4,230.8,121,230.3z"/>
	<path fill="#EBBF69" d="M385.8,230.3c-10.2,0.4-19.9-1.9-28.9-6.8c-12.3-6.8-12.8-18.7-0.5-25.1c19.5-10.1,39.8-10.1,59.3-0.1
		c12.4,6.3,12,18.3-0.3,25.1C406.4,228.6,396.4,230.8,385.8,230.3z"/>
	<path fill="#581415" d="M177,310.2c-1.8-6.7-2-13.3-0.1-20c0.2,0.4,0.5,0.7,0.7,1.1c0.8,6,0.7,11.9,0,17.9
		C177.4,309.5,177.2,309.9,177,310.2z"/>
	<path fill="#EAD196" d="M154,166.2c4.5-1.5,9,0.2,13.5,0.2C162.9,168.9,158.4,168.8,154,166.2z"/>
	<path fill="#81121C" d="M198.3,361.7c4.2-0.7,5.9,1,5.2,5.2C201.2,365.7,199.3,364.1,198.3,361.7z"/>
	<path fill="#500A12" d="M262.2,205.7c-3.5,2.3-7,2.2-10.5,0.1C255.1,205,258.6,204.9,262.2,205.7z"/>
	<path fill="#4D0711" d="M179.2,276.4c0.5,1,1.2,2,1.3,3c0.1,1.1,1,2.7-1,3.1c-0.1,0-0.6-2-0.9-3
		C178.8,278.5,179,277.5,179.2,276.4z"/>
	<path fill="#47020E" d="M177.6,309.2c0-6,0-11.9,0-17.9C179.8,297.3,179.7,303.2,177.6,309.2z"/>
	<path fill="#FCDA3A" d="M231.7,11.9c6,0,12,0,18,0c5.4,1.5,10.8,1.5,16.2,0c3.6,0,7.2,0,10.8,0c9,2.3,18.2,1.6,27.2,2.8
		c29,3.9,54.6,16.6,79,33.2c2.8,1.9,5,4.5,6.6,7.6c1.6,4.7,0.1,9-1.8,13c-6.5,13.8-12.2,28-18.6,41.9
		c-3.9,8.6-10.1,12.8-18.9,14.1c-19.8,2.8-39.5,6.4-59.3,9.2c-0.5,4.3,2.4,5.6,4.1,7.4c12.7,13.7,25.2,27.5,38.1,41
		c6.3,6.6,8.6,13.9,7,23.5c-3.1,18.7-5.9,37.5-8.7,56.2c-0.4,2.8-1.4,5.6,0,8.9c10.6-4.4,20.3-10.7,30.2-16.4
		c9-5.2,18.2-9.8,27.1-15.1c5.8-3.5,11.2-2.9,17,0.2c16.4,8.7,32.3,18.2,48.5,27.2c2.6,1.5,5.1,3.4,8.3,3.6
		c1.7-2.8,0.7-5.6,0.2-8.4c-3.5-19.3-5.9-38.8-9.2-58.1c-2.2-13.2,6.8-26,19.5-28.6c4.5,1.9,5.5,6.5,6.7,10.8
		c8.9,30.7,12.3,61.9,9.4,94.2c-3.9,44-16.4,84.4-40,120.4c-32.8,50.2-76.2,84.7-131.9,100c-11.9,3.3-24.2,3.2-36.4,4.3
		c-2.6,0.2-5.4-0.9-7.8,0.9c-3,0-6,0-9,0c-5.4-1.5-10.8-1.5-16.2,0c-2.4,0-4.8,0-7.2,0c-14.1-2.5-28.6-1.2-42.4-5.3
		c-75.1-22.4-127-73-156.8-150.4c-9-23.4-13.2-47.9-15.1-73.2c-2.3-29.7,1.3-58.4,7.8-86.9c1.3-5.6,2.6-11.4,8.1-14.4
		c12,1.5,20.9,13.4,19.4,26.2c-2.2,18.5-5.8,36.8-8.6,55.3c-0.7,4.2-1.3,8.2-0.6,13.9c10.2-4.4,19.6-9.7,28.7-15.3
		c8.9-5.4,18.1-10,27-15.3c7-4.2,13.4-4,20.4-0.2c15.8,8.5,31,18.2,46.9,26.4c2.7,1.4,5.1,3.5,8.6,3.8c1.9-4.1,0-8-0.5-11.9
		c-2.3-16.9-4.6-33.8-7.9-50.5c-2.2-11.1,0.5-19.3,7.8-26.9c12.5-13,24.6-26.4,36.8-39.6c1.6-1.8,4.5-3.3,3.8-6
		c-0.7-2.8-3.8-2.7-6.1-3c-17.8-2.2-35.4-5.9-53.2-8.1c-6.6-0.8-12.5-3.1-15.8-9.5c-8.1-15.8-15.7-31.9-22.5-48.4
		c-1.2-3-1.8-6.2-1.3-9.5c1-4.4,4.1-7,7.4-9.2c20.8-14.1,42.9-25.1,66.7-31.8C209.9,12.9,221.1,14.9,231.7,11.9z"/>
	<path fill="#F9E372" d="M265.9,11.9c-5.4,3-10.8,3-16.2,0C255.1,11.9,260.5,11.9,265.9,11.9z"/>
	<path fill="#F7DE70" d="M247.9,505.9c5.4-3.1,10.8-2.9,16.2,0C258.7,505.9,253.3,505.9,247.9,505.9z"/>
	<path fill="#05AEF1" d="M98.6,81.8c6.4-13.5,12.7-27.1,19.6-41.6c3.2,6,6.1,11.2,9,16.5c7.2,20,17.2,38.6,25.6,58
		c2.1,4.9,6.2,4.7,9.8,5.3c22.4,3.6,44.9,6.9,67.3,10.4c1.1,0.2,2.2,0.6,3.3,0.8c1.1,3.7-1.7,4.8-3.2,6.4
		c-15.7,16.8-31.4,33.7-47.4,50.2c-4.3,4.4-5,8.7-4.1,14.5c4.1,24,7.9,48,11.8,72c0.2,1.5,0,3.1,0,5.6
		c-21.8-12.3-42.9-24-63.8-36.2c-5.5-3.2-9.7-3.8-15.5-0.4c-17.9,10.7-36.1,20.7-54.3,31c-3.1,1.8-6.2,3.4-10.8,6
		c2.5-16.5,4.7-31.3,7.1-46.1c2-12.3,4.1-24.5,6.2-36.8c0.5-2.8-0.3-5-2.3-6.9c-4.6-4.5-9.2-9.1-13.8-13.7
		c-10.4-13.1-22.5-24.4-33.7-36.5c-2.4-2.6-7.2-4.1-5.5-9.7c21.7-2.3,43.2-5.8,64.5-10.3c7.3-3.3,12.7-8.5,16.3-16.4
		C88.4,95.8,93.8,89,98.6,81.8z"/>
	<path fill="#05AEF1" d="M447.1,120.4c5,2.4,10.5,1.8,15.7,2.3c16.2,3,32.4,5.9,52,9.5c-15.3,15.9-28.9,29.9-42.5,44
		c-0.3,0.1-0.6,0.2-0.8,0.4c-13.7,9.5-17,21.9-12.8,39.3c5,20.3,6.9,41.5,10.4,64c-21.4-12.1-41.7-23.2-61.6-35.2
		c-7.5-4.5-13.2-5-21-0.2c-18.6,11.6-37.8,21.8-56.8,32.6c-1.7,1-3.3,3-5.7,1.5c5.9-26.3,8.5-53.4,13.5-79.9c0.9-4.5-1-7-3.6-10
		c-17.1-19.4-34-38.9-50.5-57.9c11.9-1.9,26.4-4.2,40.9-6.4c10-1.6,20.1-3,30.1-4.6c3.2-0.5,6.4-0.9,8.1-4.9
		c8.5-19.4,17.2-38.8,25.8-58.1c2.7-5.2,5.4-10.3,8.7-16.8c7.5,16.3,14.7,31.7,21.8,47.1c4.2,4.6,8.1,9.7,10.5,15.5
		C433.1,111.5,439,117,447.1,120.4z"/>
	<path fill="#50341D" d="M350,329.5c-12.3,20.6-28.1,37.9-45.8,52.9c-25.3,21.3-58.4,22.4-87.5,2.9
		c-20.3-13.6-36.4-32.4-49.8-53.7c1.6-3.2,4.3-2.9,7-2.9c57.9,0,115.7-0.1,173.6,0C348.4,328.7,349.1,329.2,350,329.5z"/>
	<path fill="#FDFDFD" d="M257.9,326.2c-28.7,0-57.4-0.4-86.1,0.2c-9,0.2-11.6-3.9-11.8-12.3c-0.3-11.1,3.8-17.7,11.9-17.9
		c15.2-0.4,30.5-0.3,45.7-0.2c40.9,0,81.9,0.1,122.8,0.1c5.4,0,10.2,0.4,12.8,6.5c2.8,6.8,3.1,13.7,0.3,20.6c-1.8,4.3-5.6,3-8.7,3
		C315.9,326.3,286.9,326.2,257.9,326.2z"/>
	<path fill="#321100" d="M350,329.5c-56.7,0-113.3,0.1-170,0.1c-4.4,0-9-0.6-13.1,2c-1.6-1.3-2.9-3-0.2-4c1.9-0.7,4.1-0.3,6.2-0.3
		c56.5,0,113,0,169.5,0.1C344.9,327.4,348.5,324.9,350,329.5z"/>
	<path fill="#F6D12C" d="M302,294.3c-5.6,0-11.2,0-16.8,0c0-0.5,0-1-0.1-1.4c5.6,0,11.1,0,16.7,0c0.7,0.2,0.9,0.5,0.7,0.9
		C302.4,294.1,302.2,294.3,302,294.3z"/>
	<path fill="#F0C81E" d="M302,294.3c-0.1-0.5-0.1-1-0.1-1.4c4.4,0,8.7,0,13.1,0c0,0.5,0,1,0.1,1.4
		C310.6,294.3,306.3,294.3,302,294.3z"/>
	<path fill="#FADA3F" d="M98.6,81.8c-5.2,11.4-9.9,23.1-15.8,34.1c-2.9,5.4-9.2,4.4-14.4,4.3C78.3,107.2,86.4,92.6,98.6,81.8z"/>
	<path fill="#F9D93E" d="M447.1,120.4c-9.3,1.1-15.9-2.3-19.2-12.5c-2.3-7.2-5.9-13.8-9-20.7c8.2,2,10.9,10.5,16.1,15.9
		C439.8,108.1,443.2,114.6,447.1,120.4z"/>
	<path fill="#FCDA3A" d="M9.8,246.6c0-4.8,0-9.7,0-14.5c3-7.2,1.4-14.8,2.1-22.2c2.7-28.1,12.9-53.9,26.1-78.3
		C62.1,86.9,96.3,52,141,27.6c26.5-14.4,54.3-24.6,84.9-24.9c1.2,0,2.4,0,3.4-0.9c5.4,0,10.9,0,16.3,0c8.5,1.5,16.9,1.5,25.4,0
		c4.8,0,9.7,0,14.5,0c6.7,2,13.6,1.3,20.4,2.2c39.3,4.9,72.9,23.1,103.3,46.9c44.8,35.1,74.3,80.9,89.9,135.8
		c3.9,13.8,3.4,28,4.9,42.1c0.2,1.7-0.5,3.6,0.9,5.2c0,3.6,0,7.3,0,10.9c-1.5,7.9-1.5,15.7,0,23.6c0,5.4,0,10.9,0,16.3
		c-2.4,9.3-1.3,19-2.7,28.5c-4.2,28.4-14.8,54.3-29.5,78.7c-1.9,3.1-4.3,5.8-8.2,6.6c-5.3,0-6.9-4.3-8.6-8
		c-6.2-12.7-12.8-25.1-20.5-37.1c-4.7-7.4-5.4-7.4-11.1-0.1c-3.3,3.8-6,8-7.9,12.7c-5.1,11.2-11.5,21.8-15.6,33.6
		c-5.5,16,0.8,31.8,15.8,39.6c3.4,1.8,7.3,3,9.3,6.8c0.7,4.2-1.8,6.8-4.5,9.3c-29.7,26.5-63.8,45.1-102.3,55.2
		c-9.9,2.6-20.1,2.9-30.3,3.2c-3,0.1-5.9,0-8.7,1.4c-4.8,0-9.7,0-14.5,0c-4.6-2-9.5-0.4-14.2-0.9c-3.7,0.5-7.6-1-11.2,0.9
		c-1.8,0-3.6,0-5.4,0c-6.9-2.3-14.2-1.4-21.3-2c-30.3-2.5-57.2-14.9-82.4-30.3c-60-36.6-97.8-90-116-157.6
		c-3.6-13.2-3-26.8-4.2-40.3c-0.4-3.1,0.9-6.3-0.9-9.3c0-1.8,0-3.6,0-5.4C11.3,262.3,11.3,254.5,9.8,246.6z"/>
	
	<path fill="#FADA46" d="M270.9,1.8c-8.5,2.9-16.9,2.9-25.4,0C254,1.8,262.5,1.8,270.9,1.8z"/>
	<path fill="#F6DB63" d="M9.8,246.6c2.8,7.9,2.9,15.7,0,23.6C9.8,262.3,9.8,254.5,9.8,246.6z"/>
	<path fill="#FADA46" d="M504.8,268.4c-2.9-7.9-2.9-15.7,0-23.6C504.8,252.6,504.8,260.5,504.8,268.4z"/>
	<path fill="#F6DB65" d="M250.7,513.4c4.9,0.2,10.1-1.8,14.7,1.5c-4.8,0-9.7,0-14.5,0c-0.7-0.2-0.9-0.6-0.8-0.9
		C250.4,513.6,250.5,513.4,250.7,513.4z"/>
	<path fill="#F5E292" d="M250.7,513.4c0.1,0.5,0.1,1,0.2,1.5c-3.6,0-7.3,0-10.9,0C243.3,511.7,247.1,513.6,250.7,513.4z"/>
	<path fill="#F7F0D2" d="M11.3,284.8l-0.7,0l-0.7-0.1c0-3,0-6,0-9.1C12.9,278.2,11.4,281.6,11.3,284.8z"/>
	<path fill="#6074B0" d="M463,397.8c-0.1,1-0.2,2.1-0.4,3.1c0.3,6.6,0,13.1,0.2,19.7c-3.1,11.6-10.7,18.9-21.5,23.3
		c-4-1.1-8.1-0.1-11.7-0.6c2.5,0.9,5.9-1.1,8.5,1.2c-4.2,3-9.3,0.8-13.7,2.1c-8.1-2.6-15.8-5.9-21.2-12.9
		c-7.8-10.2-10.9-21.4-6.4-33.8c4.5-12.4,9.9-24.4,17.4-35.3c3.8-3.3,5.6-7.8,7.3-12.4c2.2-4.1,3.5-10.3,8.4-10.4
		c4.5-0.1,6,5.9,8.4,9.6C447.9,366,455.6,381.8,463,397.8z"/>
	<path fill="#313131" d="M245.1,313.5c22.6-5.3,42.4,1.6,59.6,15.4c7.2,5.7,14.7,11.5,20.6,19.1c3.7,4.8,4.7,8.5,0.8,12.4
		c-3.8,3.8-7.2,2.9-11.2-1.4c-12.6-13.3-26.5-25.2-45.2-29.2c-11.9-2.6-23.5-2.9-34.6,3.2c-12.8,7.1-26.2,13.3-34.5,26.4
		c-2.6,4.1-7,4.7-11.1,1.7c-3.9-2.9-5.3-7.7-1.7-11c12.5-11.5,22.6-25.9,39.6-31.9c4.8-1.7,9.4-3.9,14.5-4.4
		C243,314,244.4,316.1,245.1,313.5z"/>
	<path fill="#313131" d="M406.9,230.4c14.6,6.6,29.7,11.2,45.5,13.8c8,1.3,9.5,5.7,5.3,13.3c-3.1,1.5-6.3,2.1-9.6,1.3
		c-3.9-1.7-8-1.5-12.1-1.5c-31.2-5.8-56.7-20.2-72.7-48.7c0.1-3.8,0-7.5,1.7-11c3.7-3.9,8.4-2.3,9.8,0.9
		c5.2,11.6,14.5,19.5,23.2,28C400.6,228.5,403.2,230.7,406.9,230.4z"/>
	<path fill="#313131" d="M86,241.3c1.8-3.6,5.6-4,8.8-5.4c17.7-7.9,35.6-15.5,43.8-35.3c1.7-4.1,5.6-7,10.3-4
		c4.3,2.7,6.6,6.8,3.5,12.1c-9.9,16.7-23.1,29.7-41,37.7c-3.6-0.2-6.8,0.7-9,3.8c-5.7,3-11.5,5.7-18.1,5.4
		C78.7,250,80.9,245.4,86,241.3z"/>
	<path fill="#313131" d="M389,293.8c-0.2-4.6,3.7-6.5,6.1-9.4c6.6-3.4,13.6-3.8,20.8-3.4c8.4,3.2,12.3,9.6,12.9,18.3
		c0.6,10.1-4,17-13,21.2c-4.8-0.3-9.6,0.7-14.3,0.2c-7.2-2.2-11.7-6.7-12.9-14.2C388.7,302.3,389,298,389,293.8z"/>
	<path fill="#313131" d="M114.9,281.2c5.2,2,8.6,5.7,10.6,10.8c0,4.9,1,9.9-0.4,14.7c-1.3,5.1-5.5,8.3-8.2,12.4
		c-11.9,5.9-22.7,2.6-29-8.9c-5.6-10.1-1-22.5,10.8-29C104.1,281.1,109.5,281.1,114.9,281.2z"/>
	<path fill="#313131" d="M86,241.3c-1.4,4.6-2.2,9.3-1.8,14.2c-5.1,2.7-10.5,4.2-16.3,3.9c-1.7-0.1-3.4-0.3-4.4-2
		c1.3-5.7-4.8-6.9-6.5-10.8c0.3-0.5,0.6-1.4,0.8-1.4C67.5,246.1,76.3,240.8,86,241.3z"/>
	<path fill="#313131" d="M57,246.6c3.1,2.2,8-2.3,10.2,2.5c1.7,3.5-0.7,6.1-3,8.4c-2.3,2-4.7,1.3-7.1,0
		C53.4,253.9,54.5,250.2,57,246.6z"/>
	<path fill="#26282E" d="M415.9,281.1c-6.7,2.9-13.9,2-20.8,3.4C401.3,278.6,408.2,277.2,415.9,281.1z"/>
	<path fill="#22252C" d="M114.9,281.2c-5.4,2.6-10.8,2.6-16.2,0C104.1,278,109.5,278.1,114.9,281.2z"/>
	<path fill="#22252C" d="M124,308.2c0.6-5.4-1.4-11,1.5-16.2c2.7,5.4,3.1,10.8,0.3,16.2C125.2,309.1,124.6,309.1,124,308.2z"/>
	<path fill="#1D212B" d="M389,293.8c2.3,4.3,2.6,8.5-0.3,12.7C386.4,302.2,386.7,298,389,293.8z"/>
	<path fill="#2D2D2F" d="M124,308.2c0.6,0,1.2,0,1.8,0c-1.8,4.6-3.6,9.2-8.9,10.9C116.5,313.7,122.1,312.2,124,308.2z"/>
	<path fill="#25272D" d="M401.5,320.7c4.8-2.5,9.5-2.3,14.3-0.2C411.1,322.6,406.3,323.7,401.5,320.7z"/>
	<path fill="#6075B2" d="M421.4,352c0,5.5-1.1,10.5-7.3,12.4C415.2,359.5,418.6,355.9,421.4,352z"/>
	<path fill="#22252C" d="M364.9,197.5c1.3,4,0.7,7.6-1.7,11C360.2,204.3,360.5,200.6,364.9,197.5z"/>
	<path fill="#27282E" d="M57.2,257.4c2.4,0,4.7,0,7.1,0c1.2,0.7,2.4,1.3,3.6,2C63.8,261.3,60.2,261.3,57.2,257.4z"/>
	<path fill="#22242D" d="M446.8,257.5c3.6,0,7.3,0,10.9,0c-3.1,4-6.9,3.7-10.9,1.8c-0.2-0.3-0.5-0.6-0.7-0.9
		C446.3,258.1,446.6,257.8,446.8,257.5z"/>
	<path fill="#2B2C30" d="M102.3,250.1c1.7-4.3,4.4-6.4,9-3.8C108.3,247.6,105.3,248.8,102.3,250.1z"/>
	<path fill="#25272D" d="M406.9,230.4c-4.6,2.3-6.8-0.9-9-4C401.3,226.8,404.1,228.6,406.9,230.4z"/>
	<path fill="#26272D" d="M436,257.3c3.7-2.2,7.3-2.4,10.8,0.2c0,0,0,0,0,0c-3.1,1.4-6.1,1.3-9.2,0.1l-0.8,0L436,257.3z"/>
	<path fill="#313131" d="M437.6,257.5c3.1,0,6.1,0,9.2-0.1c0,0.6,0,1.2,0,1.8C443.6,259.1,440.3,259.9,437.6,257.5z"/>
	<path fill="#25272D" d="M245.1,313.5c1,0.6,3.8,0.3,2.9,1.3c-1.6,1.7-4.2,0.7-6.1-0.9C243,313.7,244.1,313.6,245.1,313.5z"/>
	<path fill="#566CAC" d="M462.8,420.6c-2.4-6.5-2.2-13.1-0.2-19.7C465.4,407.4,465.1,414,462.8,420.6z"/>
	<path fill="#5E72AE" d="M438.1,444.4c-4,0-8.1,0-12.1,0c5.1-1.7,10.3-3,15.3-0.5C440.2,444,439.1,444.2,438.1,444.4z"/>
	<path fill="#FCDA3A" d="M235,1.8c14,0,28.1,0,42.1,0c3.3,1.8,6.9,0.4,10.3,0.9c53,1.5,97,24.6,137.1,57c2.5,2,4.6,4.5,5,8
		c0,4.7-3.3,7.2-6.5,9.7c-4.4,3.4-8.7,6.9-12.3,11c-4.6,5.3-9.2,5.1-14.2,0.3c-7.5-7.3-14.3-15.4-25-18.3
		c-1.2-0.4-2.3-0.9-3.4-1.4c-2.2-1-4.4-1.6-6.8-1.6c-4.3-0.1-8.7-0.6-12.9,0.8c-30.4,3.3-54.1,40.6-47,72.2
		c3.7,16.5,10.9,31.1,21.3,44.3c2.7,4.5,6.6,7.9,10.6,11.2c3.7,2.8,7.5,5.6,10.7,8.9c1.5,2.3,3.5,4.2,5.8,5.7
		c11.8,8.5,21,19.9,32.3,29c2.3,2.8,4.8,5.4,7.7,7.6c1.9,1.3,3.9,2.6,5.4,4.3c5.4,6,11,6.8,16.9,0.8c3-2,5.4-4.6,7.7-7.3
		c4-3.2,7.5-7,11.6-10c1.9-1.5,3.7-3,5.5-4.5c3.4-3.3,6.9-6.4,10.4-9.6c2.3-1.7,4.1-3.9,5.8-6.2c12.5-11.7,26.5-21.8,37.4-35.1
		c2.4-3,5.7-5.2,10-3.2c8.8,9.8,9.3,22.5,10.4,34.4c1.3,13.6,2.7,27.2,2.2,41c0,2.9,0,5.7,0,8.6c2.1,62.8-19,117.6-59.4,164.7
		c-37.2,43.4-84,72-140.2,84.1c-17.1,3.7-34.7,3.4-52.2,3.6c-2.7,0-5.5,0-8.2,0c-62.6,2.5-116.8-19.1-163.9-59
		c-41.9-35.5-69.8-80.3-83-133.9c-2.6-10.5-2.1-21.4-3.4-32.1c-0.5-3,0.9-6.2-0.9-9.1c0-14.6,0-29.2,0-43.8c1.8-3,0.4-6.3,1-9.4
		c1.4-12.3,1.1-24.7,4.4-36.7c1.4-4.9,2.3-10.2,6.8-13.6c4.8-2.3,7.6,1,10.3,4c5.5,6.4,11.1,12.6,17.4,18.2c1.7,2.3,3.6,4.5,6,6.1
		c17.3,14.2,33,30.3,49.9,45c2.4,2.7,4.8,5.5,7.9,7.4c4,3.3,6.8,0.8,9.8-1.8c16.4-14.1,32.7-28.3,48.4-43.1
		c3.6-3.4,7.6-6.4,11.5-9.4c3-2.2,5.5-5,7.9-7.8c16.1-16.3,28.9-34.4,30.6-58.3c1-3.9,1.1-7.7,0-11.6c-2-28.4-21.4-51-48.5-55.7
		c-4.1-1.2-8.3-0.8-12.3,0.3c-13.9,1.1-24.4,8.9-34.2,17.8c-7.7,6.9-11.6,6.9-18.4-0.6c-3.4-3.8-7.8-6.1-11.3-9.6
		c-2.3-2.3-4.5-4.6-4.7-8.1c0.3-4.2,3.1-6.8,6-9.3c30-25.2,64.1-42.6,101.9-52.5c11-2.9,22.5-2.8,33.8-3.6
		C229,2.2,232.1,3.5,235,1.8z"/>
	<path fill="#C96165" d="M497.7,176.3c-12.1,16-27.9,28.2-42.8,41.3c-2.8,0.8-4.8,2.4-5.7,5.2c-3.1,3.9-6.6,7.4-11,10
		c-2.8-0.1-4,1.7-4.8,4c-3.6,4-7.4,7.7-12,10.6c-3.5,1.2-5.9,3.6-7.5,6.9c-2,1.6-4.4,2.9-5.8,4.9c-3.7,5.2-6.8,3.5-10.3-0.2
		c-3.3-3.5-7-6.7-10.6-10c-1.5-3.3-4-5.7-7.5-6.9c-11-10-21.9-19.9-32.9-29.9c-0.9-2.9-2.9-4.4-5.7-5.2c-3.3-3-6.7-5.9-10-8.9
		c-2.7-4.3-6-7.9-10.5-10.4c-21.2-25.2-31.7-53.2-18.8-85.4c8.3-20.8,23.1-35.5,47-37.6c4.1,1.1,8.2,1.3,12.2-0.1
		c2.6,0.1,5.3-0.2,7.5,1.6c0.5,2.4,1.9,0.7,2.9,0.6c12.4,2.6,20.4,11.4,28.4,20.3c1.8,2,3.2,5.8,6.2,1.2
		c5.6-8.4,14.2-13.5,22-19.3c3.9-7.5,11.1-6.9,18-7.3c4.3,0.9,8.5,1.6,12.9,0.4c14.1,0.7,26.3,5,34.3,17.5
		c1.4,3.3,4.4,4.7,7.1,6.6c8.1,8.4,10.9,18.8,11.4,30c0.2,4,0.3,8,1.8,11.8c0,1.2,0,2.3,0,3.5c-2.7,7.5-1.1,15.5-3.3,23.1
		C508,162.9,506.6,171.8,497.7,176.3z"/>
	<path fill="#C55559" d="M3.9,140.2c-0.7-0.5-1.4-1.1-2.1-1.6c0-0.6,0-1.2,0-1.8c1.4-4.7,1.4-9.4,0-14c0-0.6,0-1.2,0-1.8
		c0.7-0.5,1.4-1.1,2.1-1.6C11.1,124.6,11.1,134.7,3.9,140.2z"/>
	<path fill="#EFD4D3" d="M1.8,122.7c2.7,4.7,2.7,9.4,0,14C1.8,132.1,1.8,127.4,1.8,122.7z"/>
	<path fill="#FEF8DC" d="M287.6,1.8c0,0.5,0,1,0.1,1.5c-3.5-0.4-7.5,1.9-10.6-1.5C280.5,1.8,284.1,1.8,287.6,1.8z"/>
	<path fill="#FDFBF0" d="M512.3,252.5c0.5,0,1,0,1.5,0c0,2.9,0,5.8,0,8.8c-0.5,0-1,0-1.5,0C512.3,258.3,512.3,255.4,512.3,252.5z"
		/>
	<path fill="#FDF7DC" d="M226.1,3.3c0-0.5,0-1,0.1-1.5c2.9,0,5.8,0,8.8,0C232.5,5.1,229.1,2.8,226.1,3.3z"/>
	<path fill="#FDFAE9" d="M1.8,226.2c0.5-0.1,1-0.1,1.4,0c0,3,1.7,6.3-1.4,8.8C1.8,232,1.8,229.1,1.8,226.2z"/>
	<path fill="#FDFAE9" d="M3.2,287.6l-0.7,0l-0.7-0.1c0-2.9,0-5.8,0-8.8C4.9,281.3,3.2,284.6,3.2,287.6z"/>
	<path fill="#FDFBF0" d="M252.5,513.8c0-0.5,0-1,0-1.5c2.9,0,5.9,0,8.8,0c0,0.5,0,1,0,1.5C258.3,513.8,255.4,513.8,252.5,513.8z"
		/>
	<path fill="#C96165" d="M3.9,140.2c2.1-6.9,2.2-13.9-0.1-20.8c4-26.9,18.5-45.1,44.6-53.7c1.9-0.6,4-0.4,6-0.6
		c4.6,1.1,9.2,1.1,13.9,0c6.2-0.5,11.5,3.1,17.4,3.9c6.3,5.8,14.3,9.6,19.2,17.1c3.4,5.2,6.5,3.2,10.2-0.8
		c10.2-10.8,21.7-19.8,37.6-20.2c4.1,1.2,8.2,1.1,12.2-0.4c27.5,3,50.9,28.2,52.4,58.2c-1.2,4.6-1.1,9.2-0.1,13.8
		c-2.2,24.6-14.4,43.9-32.4,60c-3.5,1.2-5.9,3.6-7.5,6.9c-21.2,19.1-42.4,38.1-63.6,57.3c-5.3,4.8-7.6,0.3-10.4-2.9
		c-1.5-3.4-3.9-5.7-7.5-6.9c-13.5-12.1-26.9-24.2-40.4-36.4c-3.4-3.1-6.7-6.2-10-9.3c-0.9-2.8-2.9-4.3-5.6-5.2
		c-9.4-6.8-16-16.1-23.4-24.8C10.9,164.1,5.4,152.8,3.9,140.2z"/>
	<path fill="#374043" d="M252.5,336.7c-19,1.4-45-21.3-47.5-41.7c-1.3-3-0.6-6.1-0.5-9.1c1.7-3.8-1-8.8,3-12.1
		c2.2-1.1,4.5-1.1,6.8-1.1c28.3-0.1,56.6-0.1,84.9,0c2.3,0,4.7,0,6.9,1c5.1,5.5,1.1,12.4,2.9,18.4c0.5,1,0.4,2-0.2,3
		c-2.6,20.5-28.5,43-47.5,41.6C258.3,335.3,255.4,335.3,252.5,336.7z"/>
	<path fill="#959068" d="M308.8,295c-0.2-0.8-0.4-1.6-0.5-2.4c-1-4.6-0.3-9.3-0.5-13.9c-0.1-2.1,0-4.2-3-4.2
		c-31.8,0-63.6,0-95.4,0c-7,1.7-1.1,8.2-4.1,11.3c-0.1,3.1-0.2,6.2-0.2,9.2c-3.4-7.4-1.3-15.1-1.5-22.7c1.1-2,3-1.4,4.7-1.4
		c32.3,0,64.7,0,97,0c1.2,0,2.3,0.2,3.4,0.7C312.1,279.3,311.2,287.2,308.8,295z"/>
	<path fill="#FCDD3F" d="M308.5,271.6c-31.5,0.1-63.1,0.1-94.6,0.2c-3.5,0-7,0.3-10.5,0.5c1.6-2.1,3.9-2.3,6.2-2.3
		c31.3,0,62.6,0,93.9,0.1C305.2,270.1,306.9,271.1,308.5,271.6z"/>
	<path fill="#C75966" d="M320.8,187.8c6,1,9.3,4.6,10.5,10.4C327.2,195.3,323.6,191.9,320.8,187.8z"/>
	<path fill="#C34F63" d="M361.2,64.7c-4.1,2.8-8.1,2.7-12.2,0.1C353,63.8,357.1,63.9,361.2,64.7z"/>
	<path fill="#C55464" d="M217.2,136.6c-2.2-4.6-2.3-9.2,0.1-13.8C217.2,127.4,217.2,132,217.2,136.6z"/>
	<path fill="#C75A68" d="M177.2,203.5c-0.3-5.4,3.6-6.2,7.5-6.9C182.2,198.9,179.7,201.2,177.2,203.5z"/>
	<path fill="#C75A68" d="M379.8,242.2c4,0.7,7.9,1.5,7.5,6.9C384.8,246.8,382.3,244.5,379.8,242.2z"/>
	<path fill="#C75A67" d="M414,254.3c-0.4-5.4,3.5-6.2,7.5-6.9C418.9,249.7,416.4,252,414,254.3z"/>
	<path fill="#C75A67" d="M95.8,251c4,0.7,7.9,1.5,7.5,6.9C100.8,255.6,98.3,253.3,95.8,251z"/>
	<path fill="#C34F63" d="M164.9,64.6c-4,3-8,2.7-12.2,0.4C156.8,64.9,160.9,64.8,164.9,64.6z"/>
	<path fill="#C65967" d="M39.8,200.1c3.1,0.4,6.4,0.5,5.6,5.2C43.5,203.6,41.6,201.8,39.8,200.1z"/>
	<path fill="#C75A68" d="M341.3,207.1c3.1,0.4,6.5,0.5,5.7,5.2C345,210.6,343.1,208.8,341.3,207.1z"/>
	<path fill="#C75A67" d="M449.1,222.8c-0.8-4.8,2.6-4.8,5.7-5.2C453,219.4,451,221.1,449.1,222.8z"/>
	<path fill="#C65866" d="M433.4,236.9c-0.8-4.2,1.1-5.2,4.8-4C436.6,234.2,435,235.5,433.4,236.9z"/>
	<path fill="#C65764" d="M371.6,66.9c-1,0.4-1.9,1.1-3,1.3c-1,0.1-2.1-0.3-3.1-0.4c0.5-1.8,2.1-0.9,3.2-1.4
		C369.6,66.5,370.6,66.7,371.6,66.9z"/>
	<path fill="#2C3748" d="M252.5,336.7c2.9-2.4,5.9-2.4,8.8,0C258.3,337.4,255.4,337.4,252.5,336.7z"/>
	<path fill="#C24B4F" d="M447.2,65c4.1-0.7,8.1-0.7,12.2,0C455.3,67.4,451.2,67.4,447.2,65z"/>
	<path fill="#C5575A" d="M491.1,81.9c3.6,0.3,5.4,2.8,6.7,5.8C494.4,87.2,492.3,85.1,491.1,81.9z"/>
	<path fill="#C24C50" d="M68.3,65.1c-4.6,2.3-9.2,2.3-13.9,0C59.1,64.3,63.7,64.3,68.3,65.1z"/>
	<path fill="#2A3645" d="M206.8,273.8c33.4,0,66.7,0,100.1,0c0.5,0.4,0.7,0.7,0.5,1c-0.2,0.3-0.4,0.5-0.5,0.5
		c-33.3,0-66.6,0-99.9,0c-0.5-0.3-0.7-0.6-0.6-1C206.5,274,206.7,273.8,206.8,273.8z"/>
	<path fill="#16253F" d="M306.8,275.3c0-0.5,0-1,0.1-1.5c3.5,6.1,1.6,12.5,1.3,18.8C305.6,287,307.6,281,306.8,275.3z"/>
	<path fill="#16233F" d="M206.8,273.8c0,0.5,0,1,0.1,1.5c-0.4,3.5,0.9,7.3-1.7,10.5C205.7,281.8,203.2,277.3,206.8,273.8z"/>
</svg>
